<svg width="18" height="18" viewBox="0 0 18 18" fill="none" xmlns="http://www.w3.org/2000/svg">
<path d="M12.836 0H4.892C3.59504 0.00211617 2.35182 0.518339 1.43482 1.43552C0.517819 2.35271 0.00185108 3.59604 0 4.893L0 12.837C0.00185108 14.134 0.517819 15.3773 1.43482 16.2945C2.35182 17.2117 3.59504 17.7279 4.892 17.73H12.836C14.1331 17.7281 15.3766 17.212 16.2938 16.2948C17.211 15.3776 17.7271 14.1341 17.729 12.837V4.893C17.7271 3.59586 17.211 2.35239 16.2938 1.43517C15.3766 0.517957 14.1331 0.00185173 12.836 0V0ZM16.156 12.836C16.1552 13.7163 15.8052 14.5603 15.1827 15.1827C14.5603 15.8052 13.7163 16.1552 12.836 16.156H4.892C4.0119 16.1549 3.16816 15.8048 2.54593 15.1824C1.9237 14.5599 1.57379 13.7161 1.573 12.836V4.893C1.57379 4.0129 1.9237 3.16906 2.54593 2.54664C3.16816 1.92422 4.0119 1.57406 4.892 1.573H12.836C13.7163 1.57379 14.5603 1.92383 15.1827 2.54628C15.8052 3.16873 16.1552 4.01272 16.156 4.893V12.837V12.836Z" fill="#4D4F5C"/>
<path d="M8.86399 4.2959C7.96036 4.29511 7.07679 4.56234 6.32506 5.0638C5.57333 5.56526 4.98722 6.2784 4.64086 7.11303C4.29451 7.94765 4.20347 8.86625 4.37928 9.75262C4.55509 10.639 4.98983 11.4533 5.62852 12.0925C6.2672 12.7318 7.08114 13.1673 7.96735 13.3438C8.85356 13.5204 9.77224 13.4302 10.6072 13.0846C11.4421 12.7389 12.1558 12.1534 12.6579 11.4022C13.16 10.6509 13.428 9.76753 13.428 8.8639C13.4267 7.65349 12.9455 6.49297 12.09 5.63671C11.2345 4.78044 10.0744 4.29828 8.86399 4.2959ZM8.86399 11.8589C8.27065 11.8589 7.69063 11.683 7.19728 11.3533C6.70394 11.0237 6.31942 10.5551 6.09236 10.0069C5.86529 9.45877 5.80588 8.85557 5.92164 8.27363C6.03739 7.69168 6.32312 7.15713 6.74268 6.73758C7.16223 6.31802 7.69678 6.0323 8.27872 5.91654C8.86067 5.80079 9.46387 5.8602 10.012 6.08726C10.5602 6.31432 11.0288 6.69884 11.3584 7.19219C11.688 7.68554 11.864 8.26556 11.864 8.8589C11.864 9.65455 11.5479 10.4176 10.9853 10.9802C10.4227 11.5428 9.65964 11.8589 8.86399 11.8589Z" fill="#4D4F5C"/>
<path d="M13.6252 2.96289C13.3585 2.96299 13.1001 3.05555 12.894 3.22481C12.6878 3.39406 12.5468 3.62955 12.4948 3.89115C12.4428 4.15275 12.4831 4.42429 12.6088 4.6595C12.7346 4.89471 12.938 5.07906 13.1844 5.18112C13.4308 5.28319 13.705 5.29667 13.9603 5.21927C14.2155 5.14187 14.436 4.97838 14.5842 4.75664C14.7324 4.5349 14.7992 4.26863 14.7731 4.00319C14.7471 3.73775 14.6298 3.48956 14.4412 3.30089C14.2246 3.08485 13.9312 2.96333 13.6252 2.96289Z" fill="#4D4F5C"/>
</svg>
