<svg width="257" height="215" viewBox="0 0 257 215" fill="none" xmlns="http://www.w3.org/2000/svg">
<path opacity="0.7" d="M189.538 76.0282C188.09 68.3603 186.232 60.7754 183.973 53.306C177.202 31.6899 163.722 9.8155 140.567 2.4604C123.482 -2.96889 105.027 0.776028 90.5975 11.8311C67.9483 29.1689 51.4639 52.8175 26.6755 67.8421C5.98022 80.3851 -4.85591 100.642 2.10616 129.277C9.06824 157.911 32.2901 174.615 57.741 172.548C78.8855 170.864 100.973 172.666 119.26 182.924C135.587 192.093 164.446 184.131 188.319 159.073C202.227 144.475 200.879 125.914 196.348 108.542C193.53 97.8577 191.705 86.898 189.538 76.0282Z" fill="#92E3A9"/>
<path opacity="0.7" d="M245.217 85.5519C243.553 78.5473 241.42 71.6184 238.825 64.7951C231.045 45.0486 215.558 25.0661 188.957 18.3472C169.328 13.3875 148.126 16.8085 131.548 26.9074C105.527 42.7457 86.5889 64.3488 58.1105 78.0739C34.3343 89.532 21.8851 108.037 29.8836 134.195C37.882 160.353 64.5609 175.611 93.8005 173.724C118.093 172.185 143.468 173.832 164.477 183.202C183.235 191.578 216.39 184.305 243.817 161.414C259.795 148.079 258.247 131.123 253.041 115.254C249.803 105.493 247.707 95.4816 245.217 85.5519Z" fill="white"/>
<path d="M20.1011 47.2817V183.946" stroke="#263238" stroke-linecap="round" stroke-linejoin="round"/>
<path d="M24.6714 48.5281V185.192" stroke="#263238" stroke-linecap="round" stroke-linejoin="round"/>
<path d="M128.934 59.3308V195.99" stroke="#263238" stroke-linecap="round" stroke-linejoin="round"/>
<path d="M133.499 60.5713V197.236" stroke="#263238" stroke-linecap="round" stroke-linejoin="round"/>
<path d="M6.95166 182.644L198.774 204.198" stroke="#263238" stroke-linecap="round" stroke-linejoin="round"/>
<path d="M6.95166 118.261L206.555 130.72" stroke="#263238" stroke-linecap="round" stroke-linejoin="round"/>
<path d="M168.988 214.253C182.564 214.253 193.569 211.687 193.569 208.521C193.569 205.355 182.564 202.788 168.988 202.788C155.413 202.788 144.408 205.355 144.408 208.521C144.408 211.687 155.413 214.253 168.988 214.253Z" fill="#92E3A9"/>
<path opacity="0.5" d="M168.988 214.253C182.564 214.253 193.569 211.687 193.569 208.521C193.569 205.355 182.564 202.788 168.988 202.788C155.413 202.788 144.408 205.355 144.408 208.521C144.408 211.687 155.413 214.253 168.988 214.253Z" fill="white"/>
<path d="M149.197 197.634V207.067C149.197 209.526 157.265 211.513 167.22 211.513C177.174 211.513 185.237 209.526 185.237 207.067V197.634H149.197Z" fill="#92E3A9"/>
<path d="M183.254 196.062C179.981 194.72 174.024 193.816 167.219 193.816C160.414 193.816 154.457 194.714 151.178 196.062H148.495V198.443C148.495 200.997 156.877 203.063 167.219 203.063C177.561 203.063 185.938 200.997 185.938 198.443V196.062H183.254Z" fill="#92E3A9"/>
<path d="M167.219 200.683C177.561 200.683 185.944 198.614 185.944 196.062C185.944 193.51 177.561 191.441 167.219 191.441C156.878 191.441 148.495 193.51 148.495 196.062C148.495 198.614 156.878 200.683 167.219 200.683Z" fill="#92E3A9"/>
<path opacity="0.39" d="M184.069 195.77C184.069 197.92 176.517 199.667 167.225 199.667C157.933 199.667 150.353 197.92 150.353 195.77C150.353 193.62 157.905 191.868 167.225 191.868C176.545 191.868 184.069 193.614 184.069 195.77Z" fill="black"/>
<path opacity="0.39" d="M167.219 199.666C176.351 199.666 183.754 198.266 183.754 196.539C183.754 194.812 176.351 193.412 167.219 193.412C158.087 193.412 150.684 194.812 150.684 196.539C150.684 198.266 158.087 199.666 167.219 199.666Z" fill="black"/>
<path d="M162.453 126.891C162.453 126.891 162.144 125.206 162.11 125.094C161.723 123.87 160.291 121.647 158.893 121.495C158.67 121.472 158.446 121.501 158.236 121.579C158.027 121.657 157.838 121.783 157.685 121.945C157.531 122.108 157.418 122.305 157.353 122.519C157.288 122.733 157.273 122.959 157.31 123.179C157.411 124.167 158.292 125.099 159.084 125.672C160.016 126.363 162.447 126.891 162.453 126.891Z" fill="#92E3A9"/>
<path d="M165.148 116.049C163.84 116.369 163.188 118.721 163.228 119.979C163.228 120.086 163.48 121.787 163.503 121.776C163.402 122.146 163.289 122.545 163.183 122.983C162.981 123.797 162.767 124.718 162.621 125.745C162.429 126.859 162.305 127.984 162.251 129.114C162.178 130.393 162.221 131.677 162.38 132.949C162.38 132.949 162.38 132.982 162.38 132.994C162.211 132.606 161.695 131.528 161.644 131.449C160.965 130.327 159.033 128.507 157.714 128.726C157.494 128.773 157.287 128.869 157.109 129.006C156.931 129.144 156.786 129.32 156.686 129.521C156.586 129.723 156.532 129.944 156.529 130.169C156.526 130.394 156.574 130.617 156.67 130.821C157.023 131.781 158.09 132.471 158.989 132.825C159.994 133.224 162.239 133.139 162.419 133.128C162.612 134.443 162.888 135.745 163.244 137.025C163.452 137.777 163.682 138.529 163.924 139.271C163.761 138.939 163.621 138.642 163.593 138.602C162.913 137.48 160.982 135.66 159.662 135.885C159.441 135.931 159.233 136.028 159.055 136.166C158.876 136.305 158.732 136.483 158.632 136.686C158.533 136.889 158.481 137.112 158.48 137.338C158.48 137.564 158.531 137.787 158.629 137.99C158.983 138.951 160.05 139.641 160.948 139.995C161.846 140.349 163.755 140.321 164.283 140.304C164.379 140.59 164.468 140.865 164.564 141.168C165.024 142.55 165.49 143.925 165.906 145.289C166.052 145.767 166.181 146.244 166.31 146.721C166.17 146.424 166.046 146.16 166.024 146.16C165.339 145.037 163.413 143.223 162.065 143.442C161.844 143.489 161.636 143.586 161.458 143.726C161.279 143.865 161.135 144.043 161.035 144.246C160.936 144.45 160.884 144.673 160.883 144.9C160.883 145.126 160.934 145.349 161.032 145.553C161.392 146.508 162.458 147.198 163.351 147.552C164.244 147.906 165.99 147.878 166.596 147.861C166.714 148.355 166.832 148.843 166.928 149.321C166.984 149.646 167.057 149.961 167.096 150.292L167.231 151.258C167.293 151.875 167.365 152.51 167.41 153.111C167.444 153.526 167.472 153.925 167.5 154.329C167.36 153.846 167.062 152.914 167.029 152.841C166.533 151.801 165.805 150.888 164.901 150.174C164.85 150.057 164.79 149.945 164.721 149.837C164.16 148.984 163.037 148.613 162.296 149.186C161.24 149.978 161.504 152.504 161.987 153.706C162.015 153.779 162.408 154.52 162.666 154.986C162.475 154.728 162.296 154.48 162.105 154.222C161.717 153.7 161.313 153.195 160.886 152.65L160.235 151.87C160.022 151.606 159.763 151.348 159.533 151.084C158.972 150.483 158.382 149.899 157.776 149.321C158.191 149.029 159.645 147.962 160.061 147.176C160.315 146.75 160.473 146.272 160.521 145.778C160.57 145.284 160.508 144.786 160.342 144.318C160.254 144.098 160.124 143.898 159.958 143.729C159.793 143.56 159.596 143.425 159.379 143.332C159.161 143.239 158.927 143.19 158.691 143.188C158.454 143.186 158.22 143.23 158 143.319C156.821 143.925 156.703 146.424 157.012 147.664C157.012 147.737 157.343 148.613 157.529 149.096C157.158 148.748 156.799 148.406 156.406 148.069C155.283 147.092 154.16 146.137 153.037 145.177L151.976 144.296C152.122 144.195 153.879 142.965 154.351 142.083C154.605 141.658 154.761 141.182 154.81 140.689C154.858 140.196 154.797 139.698 154.632 139.231C154.454 138.788 154.108 138.433 153.669 138.244C153.23 138.056 152.734 138.049 152.29 138.226C151.111 138.838 150.993 141.331 151.297 142.572C151.297 142.667 151.779 143.925 151.909 144.256C151.151 143.611 150.398 142.954 149.663 142.28C148.687 141.378 147.766 140.418 146.906 139.405C146.973 139.36 148.815 138.092 149.298 137.16C149.552 136.733 149.709 136.256 149.758 135.762C149.806 135.268 149.745 134.769 149.579 134.302C149.491 134.082 149.361 133.882 149.195 133.713C149.03 133.544 148.833 133.409 148.615 133.316C148.398 133.223 148.164 133.174 147.928 133.172C147.691 133.169 147.457 133.214 147.237 133.302C146.058 133.909 145.94 136.407 146.243 137.648C146.243 137.727 146.614 138.687 146.805 139.141L146.738 139.175C145.901 138.141 145.15 137.041 144.492 135.885C144.121 135.256 143.796 134.633 143.498 134.027C143.868 133.83 145.553 132.904 146.081 132.151C146.384 131.765 146.595 131.314 146.699 130.833C146.802 130.353 146.794 129.855 146.676 129.378C146.538 128.918 146.225 128.531 145.806 128.298C145.387 128.066 144.893 128.006 144.43 128.131C143.178 128.597 142.785 131.034 142.959 132.286C142.959 132.353 143.139 133.044 143.268 133.544C143.133 133.269 142.993 132.982 142.875 132.718C142.414 131.719 142.055 130.781 141.752 129.95C141.578 129.479 141.426 129.046 141.291 128.642C141.533 128.244 142.487 126.621 142.577 125.683C142.652 125.175 142.621 124.657 142.487 124.162C142.353 123.666 142.118 123.204 141.797 122.803C141.089 122.073 139.95 121.95 139.349 122.685C138.518 123.707 139.309 126.177 140.028 127.272C140.096 127.368 141.224 128.754 141.235 128.732C141.359 129.125 141.494 129.541 141.651 129.995C141.948 130.832 142.291 131.781 142.729 132.803C143.193 133.9 143.716 134.972 144.295 136.014C144.939 137.196 145.679 138.323 146.507 139.383L146.541 139.422C146.193 139.17 145.199 138.49 145.121 138.445C143.998 137.828 141.477 137.272 140.562 138.221C139.905 138.9 140.14 140.04 140.926 140.685C141.347 140.968 141.822 141.159 142.322 141.245C142.821 141.331 143.333 141.311 143.824 141.185C144.823 140.983 146.507 139.647 146.631 139.54C147.505 140.606 148.442 141.619 149.438 142.572C150 143.133 150.606 143.695 151.207 144.217L150.584 143.796C149.461 143.178 146.94 142.622 146.024 143.571C145.368 144.251 145.603 145.39 146.389 146.036C146.809 146.32 147.285 146.512 147.784 146.598C148.284 146.684 148.796 146.663 149.287 146.536C150.185 146.351 151.65 145.25 152.032 144.947C152.262 145.155 152.492 145.362 152.728 145.565C153.851 146.547 154.974 147.524 156.035 148.507C156.417 148.855 156.776 149.214 157.158 149.568L156.597 149.203C155.474 148.585 152.958 148.029 152.043 148.978C151.381 149.658 151.622 150.797 152.408 151.443C152.827 151.727 153.302 151.918 153.8 152.005C154.299 152.091 154.81 152.07 155.3 151.943C156.159 151.769 157.546 150.764 157.978 150.41C158.343 150.78 158.702 151.157 159.039 151.533C159.264 151.791 159.494 152.027 159.707 152.302L160.342 153.094C160.729 153.61 161.133 154.144 161.504 154.655C161.762 155.008 161.998 155.351 162.239 155.693C161.869 155.345 161.116 154.671 161.06 154.626C160.005 153.846 157.579 152.942 156.513 153.706C155.743 154.267 155.816 155.39 156.513 156.154C156.896 156.496 157.345 156.755 157.833 156.915C158.321 157.076 158.837 157.134 159.348 157.086C160.359 157.041 162.189 156.053 162.413 155.929C162.812 156.491 163.194 157.052 163.536 157.613C164.766 159.449 165.726 161.021 166.383 162.105L166.45 162.217L167.304 161.903L167.169 161.684C166.478 160.561 165.485 159.006 164.199 157.192C163.795 156.631 163.351 156.002 162.891 155.373C163.368 154.91 163.811 154.413 164.216 153.885C165.27 154.286 166.372 154.542 167.495 154.649C167.54 155.317 167.573 155.963 167.601 156.569C167.686 158.675 167.68 160.426 167.657 161.622V161.701L168.595 161.353C168.595 160.134 168.545 158.484 168.421 156.53C168.382 155.856 168.326 155.132 168.258 154.391C168.516 154.357 170.639 154.048 171.436 153.498C172.233 152.948 172.93 152.145 172.901 151.162C172.893 150.68 172.701 150.218 172.364 149.873C172.027 149.527 171.57 149.324 171.088 149.304C169.707 149.304 168.55 151.426 168.32 152.628C168.32 152.695 168.247 153.487 168.219 153.992C168.219 153.689 168.168 153.391 168.135 153.082C168.073 152.465 167.994 151.853 167.91 151.19L167.759 150.225C167.714 149.899 167.624 149.562 167.562 149.225C167.394 148.45 167.186 147.67 166.961 146.884C167.523 146.884 169.381 146.884 170.19 146.502C170.998 146.12 171.874 145.413 172.02 144.453C172.079 143.974 171.952 143.491 171.664 143.103C171.377 142.715 170.951 142.453 170.476 142.37C169.084 142.185 167.601 144.054 167.191 145.177C167.163 145.25 166.967 146.104 166.866 146.575C166.725 146.104 166.591 145.632 166.433 145.16C165.984 143.79 165.49 142.415 165.002 141.045C164.85 140.624 164.71 140.203 164.564 139.782C164.749 139.782 167.001 139.821 167.933 139.4C168.735 139.029 169.617 138.316 169.757 137.356C169.816 136.877 169.689 136.394 169.402 136.006C169.114 135.618 168.689 135.356 168.213 135.273C166.821 135.082 165.339 136.957 164.929 138.08C164.901 138.165 164.614 139.394 164.558 139.709C164.233 138.782 163.924 137.861 163.649 136.941C163.279 135.706 162.985 134.449 162.767 133.179C162.857 133.179 165.21 133.229 166.136 132.803C166.939 132.426 167.82 131.713 167.961 130.753C168.021 130.274 167.894 129.79 167.607 129.402C167.319 129.014 166.893 128.752 166.417 128.67C165.024 128.479 163.542 130.355 163.132 131.478C163.104 131.551 162.891 132.488 162.795 132.937H162.717C162.534 131.677 162.463 130.403 162.503 129.131C162.503 128.44 162.571 127.778 162.638 127.143C163.082 127.194 165.103 127.424 166.007 127.143C166.911 126.862 167.837 126.267 168.067 125.335C168.177 124.867 168.1 124.374 167.853 123.961C167.605 123.548 167.207 123.248 166.742 123.123C165.367 122.781 163.665 124.443 163.132 125.509C163.104 125.565 162.874 126.194 162.717 126.632C162.75 126.346 162.778 126.071 162.818 125.773C162.958 124.746 163.149 123.819 163.329 123C163.435 122.539 163.542 122.118 163.643 121.731C164.075 121.562 165.827 120.844 166.422 120.17C166.767 119.826 167.027 119.406 167.182 118.944C167.337 118.482 167.383 117.991 167.315 117.509C167.219 117.029 166.937 116.607 166.531 116.333C166.126 116.06 165.628 115.958 165.148 116.049Z" fill="#92E3A9"/>
<path d="M139.966 134.7C141.055 134.779 143.234 133.903 143.234 133.903C143.234 133.903 142.06 132.561 141.959 132.505C140.988 131.618 138.652 130.433 137.468 131.073C136.631 131.534 136.569 132.662 137.181 133.476C137.538 133.859 137.969 134.165 138.447 134.376C138.926 134.586 139.443 134.697 139.966 134.7Z" fill="#92E3A9"/>
<g opacity="0.3">
<path opacity="0.3" d="M162.453 126.891C162.453 126.891 162.144 125.206 162.11 125.094C161.723 123.87 160.291 121.647 158.893 121.495C158.67 121.472 158.446 121.501 158.236 121.579C158.027 121.657 157.838 121.783 157.685 121.945C157.531 122.108 157.418 122.305 157.353 122.519C157.288 122.733 157.273 122.959 157.31 123.179C157.411 124.167 158.292 125.099 159.084 125.672C160.016 126.363 162.447 126.891 162.453 126.891Z" fill="white"/>
<path opacity="0.3" d="M165.148 116.049C163.84 116.369 163.188 118.721 163.228 119.979C163.228 120.086 163.48 121.787 163.503 121.776C163.402 122.146 163.289 122.545 163.183 122.983C162.981 123.797 162.767 124.718 162.621 125.745C162.429 126.859 162.305 127.984 162.251 129.114C162.178 130.393 162.221 131.677 162.38 132.949C162.38 132.949 162.38 132.982 162.38 132.994C162.211 132.606 161.695 131.528 161.644 131.449C160.965 130.327 159.033 128.507 157.714 128.726C157.494 128.773 157.287 128.869 157.109 129.006C156.931 129.144 156.786 129.32 156.686 129.521C156.586 129.723 156.532 129.944 156.529 130.169C156.526 130.394 156.574 130.617 156.67 130.821C157.023 131.781 158.09 132.471 158.989 132.825C159.994 133.224 162.239 133.139 162.419 133.128C162.612 134.443 162.888 135.745 163.244 137.025C163.452 137.777 163.682 138.529 163.924 139.271C163.761 138.939 163.621 138.642 163.593 138.602C162.913 137.48 160.982 135.66 159.662 135.885C159.441 135.931 159.233 136.028 159.055 136.166C158.876 136.305 158.732 136.483 158.632 136.686C158.533 136.889 158.481 137.112 158.48 137.338C158.48 137.564 158.531 137.787 158.629 137.99C158.983 138.951 160.05 139.641 160.948 139.995C161.846 140.349 163.755 140.321 164.283 140.304C164.379 140.59 164.468 140.865 164.564 141.168C165.024 142.55 165.49 143.925 165.906 145.289C166.052 145.767 166.181 146.244 166.31 146.721C166.17 146.424 166.046 146.16 166.024 146.16C165.339 145.037 163.413 143.223 162.065 143.442C161.844 143.489 161.636 143.586 161.458 143.726C161.279 143.865 161.135 144.043 161.035 144.246C160.936 144.45 160.884 144.673 160.883 144.9C160.883 145.126 160.934 145.349 161.032 145.553C161.392 146.508 162.458 147.198 163.351 147.552C164.244 147.906 165.99 147.878 166.596 147.861C166.714 148.355 166.832 148.843 166.928 149.321C166.984 149.646 167.057 149.961 167.096 150.292L167.231 151.258C167.293 151.875 167.365 152.51 167.41 153.111C167.444 153.526 167.472 153.925 167.5 154.329C167.36 153.846 167.062 152.914 167.029 152.841C166.533 151.801 165.805 150.888 164.901 150.174C164.85 150.057 164.79 149.945 164.721 149.837C164.16 148.984 163.037 148.613 162.296 149.186C161.24 149.978 161.504 152.504 161.987 153.706C162.015 153.779 162.408 154.52 162.666 154.986C162.475 154.728 162.296 154.48 162.105 154.222C161.717 153.7 161.313 153.195 160.886 152.65L160.235 151.87C160.022 151.606 159.763 151.348 159.533 151.084C158.972 150.483 158.382 149.899 157.776 149.321C158.191 149.029 159.645 147.962 160.061 147.176C160.315 146.75 160.473 146.272 160.521 145.778C160.57 145.284 160.508 144.786 160.342 144.318C160.254 144.098 160.124 143.898 159.958 143.729C159.793 143.56 159.596 143.425 159.379 143.332C159.161 143.239 158.927 143.19 158.691 143.188C158.454 143.186 158.22 143.23 158 143.319C156.821 143.925 156.703 146.424 157.012 147.664C157.012 147.737 157.343 148.613 157.529 149.096C157.158 148.748 156.799 148.406 156.406 148.069C155.283 147.092 154.16 146.137 153.037 145.177L151.976 144.296C152.122 144.195 153.879 142.965 154.351 142.083C154.605 141.658 154.761 141.182 154.81 140.689C154.858 140.196 154.797 139.698 154.632 139.231C154.454 138.788 154.108 138.433 153.669 138.244C153.23 138.056 152.734 138.049 152.29 138.226C151.111 138.838 150.993 141.331 151.297 142.572C151.297 142.667 151.779 143.925 151.909 144.256C151.151 143.611 150.398 142.954 149.663 142.28C148.687 141.378 147.766 140.418 146.906 139.405C146.973 139.36 148.815 138.092 149.298 137.16C149.552 136.733 149.709 136.256 149.758 135.762C149.806 135.268 149.745 134.769 149.579 134.302C149.491 134.082 149.361 133.882 149.195 133.713C149.03 133.544 148.833 133.409 148.615 133.316C148.398 133.223 148.164 133.174 147.928 133.172C147.691 133.169 147.457 133.214 147.237 133.302C146.058 133.909 145.94 136.407 146.243 137.648C146.243 137.727 146.614 138.687 146.805 139.141L146.738 139.175C145.901 138.141 145.15 137.041 144.492 135.885C144.121 135.256 143.796 134.633 143.498 134.027C143.868 133.83 145.553 132.904 146.081 132.151C146.384 131.765 146.595 131.314 146.699 130.833C146.802 130.353 146.794 129.855 146.676 129.378C146.538 128.918 146.225 128.531 145.806 128.298C145.387 128.066 144.893 128.006 144.43 128.131C143.178 128.597 142.785 131.034 142.959 132.286C142.959 132.353 143.139 133.044 143.268 133.544C143.133 133.269 142.993 132.982 142.875 132.718C142.414 131.719 142.055 130.781 141.752 129.95C141.578 129.479 141.426 129.046 141.291 128.642C141.533 128.244 142.487 126.621 142.577 125.683C142.652 125.175 142.621 124.657 142.487 124.162C142.353 123.666 142.118 123.204 141.797 122.803C141.089 122.073 139.95 121.95 139.349 122.685C138.518 123.707 139.309 126.177 140.028 127.272C140.096 127.368 141.224 128.754 141.235 128.732C141.359 129.125 141.494 129.541 141.651 129.995C141.948 130.832 142.291 131.781 142.729 132.803C143.193 133.9 143.716 134.972 144.295 136.014C144.939 137.196 145.679 138.323 146.507 139.383L146.541 139.422C146.193 139.17 145.199 138.49 145.121 138.445C143.998 137.828 141.477 137.272 140.562 138.221C139.905 138.9 140.14 140.04 140.926 140.685C141.347 140.968 141.822 141.159 142.322 141.245C142.821 141.331 143.333 141.311 143.824 141.185C144.823 140.983 146.507 139.647 146.631 139.54C147.505 140.606 148.442 141.619 149.438 142.572C150 143.133 150.606 143.695 151.207 144.217L150.584 143.796C149.461 143.178 146.94 142.622 146.024 143.571C145.368 144.251 145.603 145.39 146.389 146.036C146.809 146.32 147.285 146.512 147.784 146.598C148.284 146.684 148.796 146.663 149.287 146.536C150.185 146.351 151.65 145.25 152.032 144.947C152.262 145.155 152.492 145.362 152.728 145.565C153.851 146.547 154.974 147.524 156.035 148.507C156.417 148.855 156.776 149.214 157.158 149.568L156.597 149.203C155.474 148.585 152.958 148.029 152.043 148.978C151.381 149.658 151.622 150.797 152.408 151.443C152.827 151.727 153.302 151.918 153.8 152.005C154.299 152.091 154.81 152.07 155.3 151.943C156.159 151.769 157.546 150.764 157.978 150.41C158.343 150.78 158.702 151.157 159.039 151.533C159.264 151.791 159.494 152.027 159.707 152.302L160.342 153.094C160.729 153.61 161.133 154.144 161.504 154.655C161.762 155.008 161.998 155.351 162.239 155.693C161.869 155.345 161.116 154.671 161.06 154.626C160.005 153.846 157.579 152.942 156.513 153.706C155.743 154.267 155.816 155.39 156.513 156.154C156.896 156.496 157.345 156.755 157.833 156.915C158.321 157.076 158.837 157.134 159.348 157.086C160.359 157.041 162.189 156.053 162.413 155.929C162.812 156.491 163.194 157.052 163.536 157.613C164.766 159.449 165.726 161.021 166.383 162.105L166.45 162.217L167.304 161.903L167.169 161.684C166.478 160.561 165.485 159.006 164.199 157.192C163.795 156.631 163.351 156.002 162.891 155.373C163.368 154.91 163.811 154.413 164.216 153.885C165.27 154.286 166.372 154.542 167.495 154.649C167.54 155.317 167.573 155.963 167.601 156.569C167.686 158.675 167.68 160.426 167.657 161.622V161.701L168.595 161.353C168.595 160.134 168.545 158.484 168.421 156.53C168.382 155.856 168.326 155.132 168.258 154.391C168.516 154.357 170.639 154.048 171.436 153.498C172.233 152.948 172.93 152.145 172.901 151.162C172.893 150.68 172.701 150.218 172.364 149.873C172.027 149.527 171.57 149.324 171.088 149.304C169.707 149.304 168.55 151.426 168.32 152.628C168.32 152.695 168.247 153.487 168.219 153.992C168.219 153.689 168.168 153.391 168.135 153.082C168.073 152.465 167.994 151.853 167.91 151.19L167.759 150.225C167.714 149.899 167.624 149.562 167.562 149.225C167.394 148.45 167.186 147.67 166.961 146.884C167.523 146.884 169.381 146.884 170.19 146.502C170.998 146.12 171.874 145.413 172.02 144.453C172.079 143.974 171.952 143.491 171.664 143.103C171.377 142.715 170.951 142.453 170.476 142.37C169.084 142.185 167.601 144.054 167.191 145.177C167.163 145.25 166.967 146.104 166.866 146.575C166.725 146.104 166.591 145.632 166.433 145.16C165.984 143.79 165.49 142.415 165.002 141.045C164.85 140.624 164.71 140.203 164.564 139.782C164.749 139.782 167.001 139.821 167.933 139.4C168.735 139.029 169.617 138.316 169.757 137.356C169.816 136.877 169.689 136.394 169.402 136.006C169.114 135.618 168.689 135.356 168.213 135.273C166.821 135.082 165.339 136.957 164.929 138.08C164.901 138.165 164.614 139.394 164.558 139.709C164.233 138.782 163.924 137.861 163.649 136.941C163.279 135.706 162.985 134.449 162.767 133.179C162.857 133.179 165.21 133.229 166.136 132.803C166.939 132.426 167.82 131.713 167.961 130.753C168.021 130.274 167.894 129.79 167.607 129.402C167.319 129.014 166.893 128.752 166.417 128.67C165.024 128.479 163.542 130.355 163.132 131.478C163.104 131.551 162.891 132.488 162.795 132.937H162.717C162.534 131.677 162.463 130.403 162.503 129.131C162.503 128.44 162.571 127.778 162.638 127.143C163.082 127.194 165.103 127.424 166.007 127.143C166.911 126.862 167.837 126.267 168.067 125.335C168.177 124.867 168.1 124.374 167.853 123.961C167.605 123.548 167.207 123.248 166.742 123.123C165.367 122.781 163.665 124.443 163.132 125.509C163.104 125.565 162.874 126.194 162.717 126.632C162.75 126.346 162.778 126.071 162.818 125.773C162.958 124.746 163.149 123.819 163.329 123C163.435 122.539 163.542 122.118 163.643 121.731C164.075 121.562 165.827 120.844 166.422 120.17C166.767 119.826 167.027 119.406 167.182 118.944C167.337 118.482 167.383 117.991 167.315 117.509C167.219 117.029 166.937 116.607 166.531 116.333C166.126 116.06 165.628 115.958 165.148 116.049Z" fill="white"/>
<path opacity="0.3" d="M139.966 134.7C141.055 134.779 143.234 133.903 143.234 133.903C143.234 133.903 142.06 132.561 141.959 132.505C140.988 131.618 138.652 130.433 137.468 131.073C136.631 131.534 136.569 132.662 137.181 133.476C137.538 133.859 137.969 134.165 138.447 134.376C138.926 134.586 139.443 134.697 139.966 134.7Z" fill="white"/>
</g>
<path d="M163.008 157.406C163.008 157.406 169.611 142.246 173.311 143.33C177.011 144.414 166.972 168.034 166.972 168.034C166.972 168.034 178.594 147.412 186.522 148.299C194.45 149.186 183.614 172.206 173.575 179.179C173.575 179.179 189.425 163.879 198.672 168.607C207.919 173.334 180.178 187.533 180.178 187.533C180.178 187.533 196.291 184.26 194.444 187.977C192.597 191.694 171.295 191.278 171.295 191.278L166.849 190.908L166.815 193.839L166.849 190.908C166.849 190.908 147.759 187.943 145.839 176.31C145.07 171.661 158.517 181.195 158.517 181.195C158.517 181.195 143.458 162.824 146.367 156.928C149.275 151.033 162.217 170.01 162.217 170.01C162.217 170.01 151.65 146.429 153.761 142.757C155.872 139.085 163.008 157.406 163.008 157.406Z" fill="#92E3A9"/>
<g opacity="0.3">
<path opacity="0.3" d="M163.008 157.406C163.008 157.406 169.611 142.246 173.311 143.33C177.011 144.414 166.972 168.034 166.972 168.034C166.972 168.034 178.594 147.412 186.522 148.299C194.45 149.186 183.614 172.206 173.575 179.179C173.575 179.179 189.425 163.879 198.672 168.607C207.919 173.334 180.178 187.533 180.178 187.533C180.178 187.533 196.291 184.26 194.444 187.977C192.597 191.694 171.295 191.278 171.295 191.278L166.849 190.908L166.815 193.839L166.849 190.908C166.849 190.908 147.759 187.943 145.839 176.31C145.07 171.661 158.517 181.195 158.517 181.195C158.517 181.195 143.458 162.824 146.367 156.928C149.275 151.033 162.217 170.01 162.217 170.01C162.217 170.01 151.65 146.429 153.761 142.757C155.872 139.085 163.008 157.406 163.008 157.406Z" fill="white"/>
</g>
<path d="M160.897 158.012C166.708 175.833 166.708 187.983 166.708 187.983C166.708 187.983 159.836 187.477 152.706 181.397" stroke="#263238" stroke-linecap="round" stroke-linejoin="round"/>
<path d="M163.8 167.585C164.986 162.62 166.577 157.76 168.556 153.054" stroke="#263238" stroke-linecap="round" stroke-linejoin="round"/>
<path d="M180.975 159.455L166.181 179.724C166.181 179.724 156.142 170.145 152.706 165.008" stroke="#263238" stroke-linecap="round" stroke-linejoin="round"/>
<path d="M166.444 185.046C166.444 185.046 182.03 179.398 188.369 175.878" stroke="#263238" stroke-linecap="round" stroke-linejoin="round"/>
<path d="M166.709 187.983C166.709 187.983 166.607 192.884 166.647 194.883" stroke="#263238" stroke-linecap="round" stroke-linejoin="round"/>
<path d="M196.724 120.395L83.6803 116.223C82.7547 116.188 81.8787 115.796 81.236 115.129C80.5932 114.463 80.2337 113.573 80.2329 112.647V30.6008C80.2323 29.6742 80.5913 28.7835 81.2344 28.1164C81.8774 27.4493 82.7543 27.0578 83.6803 27.0243L196.724 22.8414C197.205 22.8241 197.684 22.9037 198.133 23.0756C198.583 23.2475 198.993 23.5081 199.339 23.8419C199.685 24.1757 199.961 24.5758 200.149 25.0184C200.338 25.4609 200.435 25.9369 200.435 26.4179V116.813C200.436 117.294 200.34 117.771 200.152 118.215C199.965 118.658 199.689 119.06 199.343 119.394C198.996 119.729 198.585 119.99 198.136 120.162C197.686 120.334 197.205 120.413 196.724 120.395Z" fill="#263238" stroke="#263238" stroke-width="1.50978" stroke-linecap="round" stroke-linejoin="round"/>
<path d="M195.522 116.346L83.27 112.304V31.4317L195.522 27.3892V116.346Z" fill="white"/>
<path d="M130.332 36.1816C130.332 36.1816 126.963 34.3119 125.627 37.7312C124.291 41.1505 125.065 43.9072 121.579 48.6235C118.092 53.3397 119.041 59.2912 122.803 63.1764C126.564 67.0617 131.084 67.4548 134.47 67.1516C137.855 66.8484 137.951 67.713 140.96 68.1397C143.97 68.5664 143.97 68.8584 146.137 67.7411C148.304 66.6238 150.628 65.8097 151.684 59.8414C152.74 53.8731 147.827 44.1206 142.751 39.4436C137.676 34.7667 135.413 34.952 133.908 35.5134C132.896 35.9558 131.995 36.6174 131.269 37.4505L130.332 36.1816Z" fill="#263238" stroke="#263238" stroke-linecap="round" stroke-linejoin="round"/>
<path d="M130.298 65.0571C129.869 65.0875 129.438 65.0724 129.012 65.0122" stroke="white" stroke-width="0.75" stroke-linecap="round" stroke-linejoin="round"/>
<path d="M129.046 42.3125C129.046 42.3125 126.048 42.8122 125.049 48.0618C124.049 53.3115 124.796 56.5567 124.296 59.5605C123.971 61.5256 125.15 63.384 126.986 64.3609" stroke="white" stroke-width="0.75" stroke-linecap="round" stroke-linejoin="round"/>
<path d="M121.55 59.0215C121.744 59.4124 122 59.769 122.308 60.077" stroke="white" stroke-width="0.75" stroke-linecap="round" stroke-linejoin="round"/>
<path d="M129.293 40.3137C128.079 40.3685 126.915 40.8108 125.971 41.5757C125.027 42.3407 124.354 43.388 124.049 44.564C122.797 48.8086 124.296 49.0556 122.297 53.0588C121.551 54.3953 121.164 55.9021 121.174 57.4326" stroke="white" stroke-width="0.75" stroke-linecap="round" stroke-linejoin="round"/>
<path d="M128.181 52.2558C128.181 52.2558 125.643 49.8696 125.374 51.8347C125.283 52.7731 125.424 53.7195 125.784 54.5907C126.145 55.462 126.713 56.2315 127.44 56.8317C128.664 57.7413 129.416 57.3932 129.416 57.3932L128.181 52.2558Z" fill="white" stroke="#263238" stroke-linecap="round" stroke-linejoin="round"/>
<path d="M82.1699 101.339H91.2599V51.5766H99.4797V88.79H105.97V65.8545H111.164V41.1953H115.925V82.2996H119.383V65.8545H122.848V91.485H129.77V69.751H157.461V90.9516H164.816V40.325H167.843V60.6666H172.604V30.376H176.5V81.0026H186.882V90.087H191.211V49.8473H198.566V119.945H82.1699V101.339Z" fill="#92E3A9"/>
<path opacity="0.7" d="M82.1699 101.339H91.2599V51.5766H99.4797V88.79H105.97V65.8545H111.164V41.1953H115.925V82.2996H119.383V65.8545H122.848V91.485H129.77V69.751H157.461V90.9516H164.816V40.325H167.843V60.6666H172.604V30.376H176.5V81.0026H186.882V90.087H191.211V49.8473H198.566V119.945H82.1699V101.339Z" fill="white"/>
<path d="M141.999 60.3857C141.999 60.3857 140.876 65.1244 142.28 68.3023C143.683 71.4801 147.265 73.0691 150.09 74.1527C152.914 75.2363 158.18 73.6193 158.556 78.2513C158.933 82.8833 158.461 91.7937 159.028 96.6222C159.595 101.451 159.494 104.735 158.556 107.885C157.619 111.035 154.132 113.589 154.132 113.589L149.146 108.727C149.146 108.727 151.875 102.939 152.066 99.9348C152.257 96.931 150.09 100.025 149.337 101.49C148.585 102.955 150.09 110.563 150.09 110.563C150.09 110.563 146.322 118.558 143.313 120.473C140.303 122.388 133.717 120.473 131.27 117.89C128.822 115.308 125.251 108.553 125.346 106.661C125.442 104.769 127.906 100.176 127.227 99.5081C126.109 98.2822 125.218 96.8679 124.594 95.3309C124.594 95.3309 123.841 97.835 124.307 99.8225C124.857 101.742 125.517 103.628 126.284 105.471C125.2 105.595 124.201 106.115 123.476 106.931L120.461 109.974C120.461 109.974 117.452 106.908 116.604 103.758C115.756 100.609 116.98 97.0994 116.98 90.2272C116.98 83.355 115.947 77.9481 117.733 75.4946C119.518 73.041 124.229 74.6018 128.086 73.4789C131.943 72.356 133.448 70.739 134.296 68.0553C134.797 66.6142 134.988 65.0836 134.857 63.5636C134.857 63.5636 140.865 61.548 141.999 60.3857Z" fill="#92E3A9" stroke="#263238" stroke-linecap="round" stroke-linejoin="round"/>
<path d="M128.344 73.423C131.994 72.3001 133.453 70.7056 134.284 68.0836C134.785 66.6425 134.977 65.112 134.846 63.5919C134.846 63.5919 140.865 61.5426 141.999 60.3804C141.999 60.3804 140.876 65.1191 142.28 68.2969C143.324 70.6438 145.547 72.1205 147.776 73.176C146.575 75.2197 143.285 79.7001 137.479 79.6271C132.465 79.5654 129.709 76.2303 128.344 73.423Z" fill="white" stroke="#263238" stroke-linecap="round" stroke-linejoin="round"/>
<path d="M132.589 43.2333C132.589 43.2333 135.317 39.5164 138.422 40.8021C141.527 42.0879 145.665 47.5396 145.665 53.9627C145.665 60.3858 139.753 65.4782 135.879 65.6017C133.784 65.6691 129.675 60.47 128.355 56.2647C127.036 52.0594 127.637 46.8154 128.479 45.1647C128.846 44.4271 129.452 43.8352 130.198 43.4847C130.944 43.1342 131.786 43.0456 132.589 43.2333Z" fill="white" stroke="#263238" stroke-linecap="round" stroke-linejoin="round"/>
<path d="M132.589 43.2333C132.589 43.2333 134.942 41.5489 136.255 43.4186C137.569 45.2882 140.399 51.5316 142.841 58.1456C145.284 64.7596 144.065 67.6904 143.88 68.2518C143.695 68.8133 148.49 68.8638 151.971 63.9623C155.452 59.0608 155.339 55.007 153.004 49.5216C150.668 44.0362 145.665 33.1944 139.714 32.2343C133.763 31.2742 130.686 34.8788 130.31 36.1645L132.589 43.2333Z" fill="#263238" stroke="#263238" stroke-linecap="round" stroke-linejoin="round"/>
<path d="M149.073 65.4163C149.635 65.4338 150.193 65.3136 150.698 65.066C151.203 64.8184 151.64 64.451 151.97 63.9958" stroke="white" stroke-width="0.75" stroke-linecap="round" stroke-linejoin="round"/>
<path d="M132.796 39.567C132.796 39.567 132.796 37.0629 136.294 38.562C139.792 40.0611 144.042 62.3229 147.041 64.5687" stroke="white" stroke-width="0.75" stroke-linecap="round" stroke-linejoin="round"/>
<path d="M137.513 34.9629C139.444 34.4407 141.802 34.452 143.543 36.5631C147.041 40.8133 147.041 55.0575 149.039 59.055C151.038 63.0526 153.29 59.5604 153.29 59.5604" stroke="white" stroke-width="0.75" stroke-linecap="round" stroke-linejoin="round"/>
<path d="M134.043 36.5634C134.637 36.167 135.264 35.8232 135.918 35.5359" stroke="white" stroke-width="0.75" stroke-linecap="round" stroke-linejoin="round"/>
<path d="M134.751 50.6108C134.751 50.6108 135.037 53.3508 134.751 54.4681C134.464 55.5854 133.437 55.3383 134.375 56.0458C135.312 56.7532 136.727 55.4843 136.727 55.4843" stroke="#263238" stroke-linecap="round" stroke-linejoin="round"/>
<path d="M131.556 51.5768C131.556 52.2 131.763 52.6997 132.022 52.6997C132.28 52.6997 132.493 52.2169 132.493 51.5768C132.493 50.9368 132.286 50.4539 132.022 50.4258C131.758 50.3978 131.556 50.9536 131.556 51.5768Z" fill="#263238"/>
<path d="M138.03 51.717C138.03 52.3402 138.238 52.8399 138.501 52.8399C138.765 52.8399 138.967 52.357 138.967 51.717C138.967 51.0769 138.76 50.594 138.501 50.566C138.243 50.5379 138.03 51.0937 138.03 51.717Z" fill="#263238"/>
<path d="M124.594 95.3478C124.594 95.3478 123.931 95.0334 124.498 91.485C125.065 87.9366 125.531 85.7974 125.346 85.0395C125.021 84.061 124.646 83.0997 124.223 82.1592" stroke="#263238" stroke-linecap="round" stroke-linejoin="round"/>
<path d="M151.684 98.5986C152.243 97.9729 152.673 97.2422 152.948 96.4489C153.222 95.6556 153.337 94.8157 153.284 93.9779C153.098 91.1706 151.874 87.9815 151.97 87.3246C152.065 86.6677 153.57 84.113 153.57 84.113" stroke="#263238" stroke-linecap="round" stroke-linejoin="round"/>
<path d="M150.275 106.246C150.275 106.246 153.38 106.212 155.165 107.621C155.688 108.029 156.124 108.537 156.448 109.115C156.772 109.694 156.977 110.331 157.052 110.99C154.787 113.152 152.71 115.501 150.842 118.014C148.596 121.287 142.841 124.572 142.841 124.572C142.841 124.572 144.065 123.409 141.336 124.965C138.608 126.52 137.765 127.042 137.765 127.042L132.117 126.666C132.117 126.666 132.398 123.196 135.318 122.124C138.237 121.051 141.903 120.759 142.184 120.681C142.465 120.602 148.489 110.013 149.337 108.329L150.179 106.678L150.275 106.246Z" fill="white" stroke="#263238" stroke-linecap="round" stroke-linejoin="round"/>
<path d="M126.284 105.499C126.284 105.499 132.415 113.977 134.661 116.274C136.907 118.57 136.907 118.834 137.468 118.862C138.029 118.89 143.116 119.423 143.869 120.692C144.621 121.961 146.221 126.363 146.221 126.363L138.692 126.262C138.495 125.416 138.072 124.64 137.468 124.016C136.53 123.118 135.222 122.77 134.178 121.4C133.134 120.03 132.763 119.446 132.763 119.446C132.763 119.446 122.696 112.708 120.439 109.98C120.45 110.002 123.089 104.679 126.284 105.499Z" fill="white" stroke="#263238" stroke-linecap="round" stroke-linejoin="round"/>
<path d="M133.998 77.0051L132.774 80.0482" stroke="#263238" stroke-width="3.14175" stroke-linecap="round" stroke-linejoin="round"/>
<path d="M130.208 49.2241C130.208 49.2241 130.966 46.4505 133.493 47.6352" stroke="#263238" stroke-linecap="round" stroke-linejoin="round"/>
<path d="M136.502 47.815C136.502 47.815 138.232 45.9285 140.326 48.6235" stroke="#263238" stroke-linecap="round" stroke-linejoin="round"/>
<path d="M132.802 58.3926C132.802 58.3926 135.144 60.2342 137.614 58.5105" stroke="#263238" stroke-linecap="round" stroke-linejoin="round"/>
<path d="M195.522 116.346L83.27 112.304V31.4317L195.522 27.3892V116.346Z" stroke="#263238" stroke-linecap="round" stroke-linejoin="round"/>
<path d="M189.537 107.739H181.026C179.667 107.739 178.566 108.84 178.566 110.198V111.49C178.566 112.848 179.667 113.949 181.026 113.949H189.537C190.895 113.949 191.996 112.848 191.996 111.49V110.198C191.996 108.84 190.895 107.739 189.537 107.739Z" fill="#263238" stroke="#263238" stroke-width="1.64254" stroke-linecap="round" stroke-linejoin="round"/>
<path d="M180.571 109.042H181.228V112.09H182.71V112.652H180.571V109.042Z" fill="white"/>
<path d="M183.861 109.042V112.641H183.204V109.042H183.861Z" fill="white"/>
<path d="M185.439 112.641L184.271 109.042H184.99L185.478 110.676C185.619 111.13 185.736 111.551 185.832 111.989C185.933 111.549 186.057 111.115 186.202 110.687L186.725 109.042H187.438L186.197 112.641H185.439Z" fill="white"/>
<path d="M189.835 111.046H188.482V112.102H189.998V112.663H187.825V109.064H189.919V109.626H188.482V110.558H189.835V111.046Z" fill="white"/>
<path d="M53.9849 210.098C67.5604 210.098 78.5655 207.532 78.5655 204.366C78.5655 201.2 67.5604 198.633 53.9849 198.633C40.4094 198.633 29.4043 201.2 29.4043 204.366C29.4043 207.532 40.4094 210.098 53.9849 210.098Z" fill="#92E3A9"/>
<path opacity="0.5" d="M53.9849 210.098C67.5604 210.098 78.5655 207.532 78.5655 204.366C78.5655 201.2 67.5604 198.633 53.9849 198.633C40.4094 198.633 29.4043 201.2 29.4043 204.366C29.4043 207.532 40.4094 210.098 53.9849 210.098Z" fill="white"/>
<path d="M53.1311 196.107C53.1311 196.107 62.2829 199.111 63.4732 199.324C64.6634 199.537 64.3097 200.789 62.9117 201.699C61.5137 202.609 59.4194 202.884 54.4561 202.188C49.4929 201.491 48.5889 200.582 48.2408 200.716C47.8927 200.851 47.0505 201.559 45.8658 200.997C44.6812 200.436 44.1141 198.19 45.3044 197.157C46.4947 196.124 53.1311 196.107 53.1311 196.107Z" fill="#92E3A9" stroke="#263238" stroke-linecap="round" stroke-linejoin="round"/>
<path d="M64.1862 200.026C61.4912 202.176 54.4112 201.446 50.8797 200.469C48.9482 199.933 46.9311 199.774 44.9395 200.003C45.1267 200.43 45.4533 200.781 45.8659 200.997C47.0505 201.559 47.8927 200.857 48.2408 200.717C48.5889 200.576 49.4985 201.486 54.4562 202.188C59.4138 202.889 61.5137 202.603 62.9117 201.699C63.7314 201.166 64.1862 200.514 64.1862 200.026Z" fill="#263238" stroke="#263238" stroke-linecap="round" stroke-linejoin="round"/>
<path d="M46.7704 198.274C48.5682 199.915 50.5093 201.392 52.5703 202.687C55.1586 204.153 56.0682 205.13 54.8161 206.617C53.5641 208.105 52.5703 207.74 47.4049 206.617C44.48 206.035 41.6866 204.922 39.1627 203.333C39.1627 203.333 38.955 204.029 37.2762 203.541C35.5974 203.052 35.7378 201.727 36.1533 200.61C36.5688 199.493 41.9531 195.95 46.7704 198.274Z" fill="#92E3A9" stroke="#263238" stroke-linecap="round" stroke-linejoin="round"/>
<path d="M54.8105 206.617C54.9775 206.421 55.119 206.204 55.2316 205.972C54.4736 206.389 53.6263 206.618 52.7612 206.64C50.7119 206.668 44.2327 204.636 41.5994 203.131C39.4378 201.896 36.7653 201.929 35.8838 201.98C35.8975 202.361 36.0435 202.725 36.2966 203.01C36.5497 203.294 36.8941 203.482 37.2706 203.541C38.955 204.029 39.1571 203.333 39.1571 203.333C41.681 204.922 44.4744 206.035 47.3993 206.617C52.5703 207.707 53.5529 208.055 54.8105 206.617Z" fill="#263238" stroke="#263238" stroke-linecap="round" stroke-linejoin="round"/>
<path d="M62.356 124.56C62.356 124.56 61.7946 132.943 59.8407 145.66C57.8868 158.377 52.8505 167.877 52.5417 172.7C52.2329 177.523 52.4014 187.023 52.4014 188.982C52.4014 190.941 53.0302 190.307 53.1032 192.053C53.1762 193.799 53.1032 196.107 53.1032 196.107C51.9535 196.666 50.7614 197.134 49.5379 197.505C48.8492 197.688 48.1498 197.829 47.4437 197.926C47.4437 197.926 47.7244 198.487 46.2534 194.922C44.7824 191.357 44.1592 185.136 44.1592 179.061C44.1592 172.986 46.8149 162.15 47.7918 156.002C48.7687 149.854 51.5648 134.105 51.8455 130.849C52.07 128.643 52.5139 126.465 53.1706 124.347C54.9323 124.596 56.7203 124.596 58.482 124.347C61.3061 123.932 62.356 124.56 62.356 124.56Z" fill="#263238" stroke="#263238" stroke-linecap="round" stroke-linejoin="round"/>
<path d="M33.7779 123.583C33.7779 123.583 35.3836 153.694 34.3393 158.585C33.295 163.475 32.6549 164.317 32.7336 168.438C32.8122 172.559 33.5027 188.701 34.3393 193.451C35.1759 198.201 36.0237 198.414 35.8777 199.672C35.7317 200.93 36.1584 201.839 36.4392 202.047C36.7199 202.255 36.6469 203.097 40.4873 201.699C42.9375 200.797 45.3399 199.77 47.6852 198.622C47.8715 197.163 47.9429 195.691 47.8985 194.22C47.8985 190.936 46.2141 188.493 46.2141 185.978C46.2141 183.463 45.6527 172.144 47.7525 164.244C49.8524 156.344 52.5698 139.371 53.2717 134.408C53.9735 129.445 54.2486 126.654 54.2486 126.654C50.5373 126.599 46.8492 126.059 43.2777 125.049C37.3375 123.364 33.6375 122.46 33.4971 122.954C33.4737 123.014 33.4624 123.078 33.4639 123.142C33.4653 123.206 33.4796 123.269 33.5057 123.328C33.5318 123.386 33.5693 123.439 33.6161 123.483C33.6628 123.527 33.7178 123.561 33.7779 123.583Z" fill="#263238" stroke="#263238" stroke-linecap="round" stroke-linejoin="round"/>
<path d="M48.7859 195.613C48.7353 196.433 48.7354 197.005 48.7354 197.005" stroke="white" stroke-width="0.75" stroke-linecap="round" stroke-linejoin="round"/>
<path d="M54.2993 131.764C54.2993 131.764 51.3292 147.271 49.6392 158.281C47.9492 169.292 44.996 180.29 48.3759 190.919C48.8572 191.838 49.0527 192.88 48.9374 193.911" stroke="white" stroke-width="0.75" stroke-linecap="round" stroke-linejoin="round"/>
<path d="M85.6904 85.1516C86.1489 83.3667 86.7324 81.6162 87.4366 79.9132C88.2058 78.3748 90.2439 77.7459 91.4903 76.769C92.7367 75.7921 93.3094 74.1807 93.7979 74.9499C94.2863 75.7191 93.9382 77.1171 93.4442 77.7572C92.9501 78.3972 92.3212 78.8071 91.9788 79.2956L91.6307 79.784C91.6307 79.784 96.5209 80.9069 97.5709 81.1821C98.6208 81.4572 101.619 81.0417 100.502 82.305C98.7228 84.0534 96.4596 85.227 94.0056 85.6737C92.21 85.9787 90.4359 86.3988 88.6942 86.9314L87.1558 88.3294L85.6904 85.1516Z" fill="white" stroke="#263238" stroke-linecap="round" stroke-linejoin="round"/>
<path d="M83.8037 86.061C83.8037 86.061 85.4881 84.59 85.4881 84.8034C85.4881 85.0167 88.4189 89.6937 88.4189 89.6937L86.1169 91.2994L83.8037 86.061Z" fill="white" stroke="#263238" stroke-linecap="round" stroke-linejoin="round"/>
<path d="M63.26 70.2673C63.4734 70.6211 65.0062 72.7153 65.9887 79.2114C66.9713 85.7074 69.9694 94.236 69.9694 94.236L83.7364 85.7804L86.7402 92.0687C86.7402 92.0687 74.652 104.157 71.0194 106.74C67.3867 109.322 65.2869 109.188 63.5408 107.722C61.7946 106.257 62.2831 82.7036 62.2831 79.6998C62.2831 76.696 63.26 70.2673 63.26 70.2673Z" fill="#92E3A9" stroke="#263238" stroke-linecap="round" stroke-linejoin="round"/>
<path d="M101.271 80.6824C101.271 80.6824 101.344 75.6293 100.709 76.6287C100.075 77.6281 100.081 79.4921 100.081 80.6094C100.081 81.7267 101.271 80.6824 101.271 80.6824Z" fill="white" stroke="#263238" stroke-linecap="round" stroke-linejoin="round"/>
<path d="M100.922 79.2114C100.922 79.2114 102.32 77.1846 102.388 78.3748C102.455 79.5651 101.692 81.7436 100.855 82.3556C100.462 82.6989 99.975 82.9178 99.457 82.9844L100.922 79.2114Z" fill="white" stroke="#263238" stroke-linecap="round" stroke-linejoin="round"/>
<path d="M98.1999 81.446C98.1999 81.446 100.361 77.746 100.642 78.5826C100.923 79.4192 100.227 82.0749 99.4575 82.9844C98.8973 83.5829 98.2025 84.039 97.4307 84.3151L98.1999 81.446Z" fill="white" stroke="#263238" stroke-linecap="round" stroke-linejoin="round"/>
<path d="M95.0556 84.1746C95.2634 83.9612 98.5479 76.769 98.6883 78.4421C98.8286 80.1153 97.8461 83.7535 97.4306 84.315C97.0151 84.8764 94.8423 85.2189 94.8423 85.2189" fill="white"/>
<path d="M95.0556 84.1746C95.2634 83.9612 98.5479 76.769 98.6883 78.4421C98.8286 80.1153 97.8461 83.7535 97.4306 84.315C97.0151 84.8764 94.8423 85.2189 94.8423 85.2189" stroke="#263238" stroke-linecap="round" stroke-linejoin="round"/>
<path d="M88.0596 85.011C88.0596 85.011 88.1326 83.7533 89.8787 83.1975C91.6248 82.6416 92.686 83.0571 92.8095 83.2648" stroke="#263238" stroke-linecap="round" stroke-linejoin="round"/>
<path d="M40.9701 61.8848C40.9701 61.8848 32.9357 66.9379 30.6337 68.1057C28.3317 69.2736 28.1184 69.5711 28.0454 71.1095C27.9724 72.6479 32.1665 105.415 32.1665 105.415L29.1627 124.42C29.1627 124.42 45.0239 130.079 48.3084 130.22C51.5929 130.36 54.0409 130.36 54.0409 130.36L55.7252 126.233L56.6348 130.164C56.6348 130.164 59.4982 129.119 62.0866 127.918C64.6749 126.716 67.8134 123.589 68.0268 123.656C68.2401 123.724 64.3773 104.993 64.3773 104.993C64.3773 104.993 64.731 73.5519 63.8158 70.8962C62.9007 68.2405 52.2161 63.7713 52.2161 63.7713C50.0356 63.0918 47.8203 62.5296 45.5797 62.0869C43.2777 61.7613 41.6046 61.5367 40.9701 61.8848Z" fill="#92E3A9" stroke="#263238" stroke-linecap="round" stroke-linejoin="round"/>
<path d="M45.5856 62.0923C43.278 61.7442 41.5993 61.5309 40.976 61.8846L40.6055 62.1148L48.5894 89.2051L51.4528 93.534L53.7604 87.0267C53.7604 87.0267 54.5296 76.825 54.5296 72.3558C54.509 69.7533 54.3496 67.1538 54.0524 64.5684C52.9295 64.0687 52.222 63.7599 52.222 63.7599C50.0412 63.0861 47.8259 62.5294 45.5856 62.0923Z" fill="white" stroke="#263238" stroke-linecap="round" stroke-linejoin="round"/>
<path d="M46.2817 69.8517L49.9874 74.4612L48.5893 89.2051L51.4528 93.534C51.4528 93.534 53.4796 86.9705 53.4796 87.1783C53.4796 87.386 51.1047 73.7033 51.1047 73.7033L53.4796 69.4418L50.8969 64.6189L46.2817 69.8517Z" fill="#263238" stroke="#263238" stroke-linecap="round" stroke-linejoin="round"/>
<path d="M51.1719 66.9827L54.5294 72.3671L54.389 63.3501L51.9411 60.9751L51.1719 66.9827Z" fill="white" stroke="#263238" stroke-linecap="round" stroke-linejoin="round"/>
<path d="M43.3506 50.4253C43.3506 50.4253 43.418 61.4635 43.418 61.952C43.418 62.4405 50.6832 70.4075 50.6832 70.4075L53.5523 58.1116C53.5523 58.1116 48.1005 56.3655 46.5621 54.1309C45.0237 51.8963 43.7043 49.9368 43.3506 50.4253Z" fill="white" stroke="#263238" stroke-linecap="round" stroke-linejoin="round"/>
<path d="M42.9299 58.533L49.4989 66.006L45.7259 73.3442L40.4146 61.4638L42.9299 58.533Z" fill="white" stroke="#263238" stroke-linecap="round" stroke-linejoin="round"/>
<path d="M49.4986 66.0056L50.6833 70.4074L48.1006 68.8017L49.4986 66.0056Z" fill="white" stroke="#263238" stroke-linecap="round" stroke-linejoin="round"/>
<path d="M54.5293 92.2764C54.5293 92.2764 53.8275 93.8148 52.2217 97.8909C50.6159 101.967 43.9065 115.055 44.2659 114.987C44.6252 114.92 47.8311 113.73 54.7483 111.984C61.6654 110.237 64.4615 107.93 66.6287 105.274C68.7959 102.618 73.821 96.1897 73.821 96.1897C73.821 96.1897 65.9999 96.2627 61.8058 95.1454C59.2783 94.4713 56.8367 93.5087 54.5293 92.2764Z" fill="white" stroke="#263238" stroke-width="0.5" stroke-linecap="round" stroke-linejoin="round"/>
<path d="M40.5549 111.074L40.7289 110.833L42.4863 108.435L39.9878 107.756L40.5549 111.074Z" fill="white" stroke="#263238" stroke-linecap="round" stroke-linejoin="round"/>
<path d="M38.6684 111.355L39.7633 110.597L38.3989 110.03L38.6684 111.355Z" fill="#92E3A9" stroke="#263238" stroke-linecap="round" stroke-linejoin="round"/>
<path d="M42.8569 104.297L45.2374 104.645C45.2374 104.645 50.3355 99.5923 50.6836 99.6821C51.0317 99.7719 58.9314 103.32 59.0718 103.528C59.1573 103.69 59.202 103.87 59.202 104.053C59.202 104.236 59.1573 104.416 59.0718 104.578L58.8584 104.926C58.8584 104.926 59.3469 106.049 58.9988 106.392C58.7872 106.603 58.5538 106.791 58.3026 106.953C58.3026 106.953 58.4429 107.228 57.8815 107.857C57.6377 108.176 57.3273 108.439 56.9719 108.626C56.3647 108.85 55.7302 108.992 55.0854 109.047C54.1085 109.12 51.1047 109.188 50.0323 109.328C48.9599 109.468 48.0054 110.305 46.2593 110.305C44.5132 110.305 43.1881 109.328 42.6267 109.328C41.9403 109.245 41.2622 109.105 40.5998 108.907C40.5998 108.907 39.7127 105.207 42.8569 104.297Z" fill="white" stroke="#263238" stroke-linecap="round" stroke-linejoin="round"/>
<path d="M51.4526 102.551L58.8583 104.926" stroke="#263238" stroke-linecap="round" stroke-linejoin="round"/>
<path d="M51.2451 105.347L58.3026 106.953" stroke="#263238" stroke-linecap="round" stroke-linejoin="round"/>
<path d="M51.1045 107.79L57.3928 107.997" stroke="#263238" stroke-linecap="round" stroke-linejoin="round"/>
<path d="M40.6222 103.04L42.868 104.297C42.868 104.297 41.7451 104.859 41.1219 107.021C40.7403 108.338 40.5512 109.703 40.5604 111.074L37.7531 109.817C37.7531 109.817 36.6414 104.786 40.6222 103.04Z" fill="white" stroke="#263238" stroke-linecap="round" stroke-linejoin="round"/>
<path d="M36.08 83.0572L29.7243 98.0088L41.0433 103.18C41.0433 103.18 39.0838 105.763 38.6683 107.582C38.4265 108.828 38.4265 110.109 38.6683 111.355C34.7695 110.982 30.9381 110.089 27.2763 108.699C23.5095 107.244 19.9421 105.318 16.6592 102.966C16.6592 102.966 26.7205 72.5074 27.4223 70.6883C28.1241 68.8691 29.0281 69.2902 30.078 69.7113C31.1279 70.1324 34.9009 74.1132 35.3894 77.6728" fill="#92E3A9"/>
<path d="M36.08 83.0572L29.7243 98.0088L41.0433 103.18C41.0433 103.18 39.0838 105.763 38.6683 107.582C38.4265 108.828 38.4265 110.109 38.6683 111.355C34.7695 110.982 30.9381 110.089 27.2763 108.699C23.5095 107.244 19.9421 105.318 16.6592 102.966C16.6592 102.966 26.7205 72.5074 27.4223 70.6883C28.1241 68.8691 29.0281 69.2902 30.078 69.7113C31.1279 70.1324 34.9009 74.1132 35.3894 77.6728" stroke="#263238" stroke-linecap="round" stroke-linejoin="round"/>
<path d="M59.768 35.9622C59.768 35.9622 60.0487 39.7352 60.0487 47.3486C60.0487 54.962 59.1391 59.2964 56.3431 59.3694C53.547 59.4424 46.9106 57.904 45.2374 56.2252C44.1535 55.0196 43.4061 53.5499 43.0702 51.9638C43.0702 51.9638 40.8244 52.5252 39.926 49.8639C39.0277 47.2026 40.0664 45.4621 41.1107 44.9736C42.155 44.4852 44.5356 45.3273 44.6086 42.8794C44.6816 40.4314 42.1606 38.6853 43.4857 36.8718C44.8107 35.0583 48.7971 33.795 52.6431 33.868C55.0555 33.9468 57.4194 34.5666 59.5602 35.6815L59.768 35.9622Z" fill="white" stroke="#263238" stroke-linecap="round" stroke-linejoin="round"/>
<path d="M57.3254 44.1372C57.3254 44.1372 58.7908 48.1909 58.6504 48.8198C58.51 49.4486 54.5967 49.3812 54.5967 49.3812" stroke="#263238" stroke-linecap="round" stroke-linejoin="round"/>
<path d="M57.7411 51.7505C56.3708 52.0725 54.9354 51.9767 53.62 51.4754C51.3742 50.6332 50.897 49.6562 50.897 49.6562" stroke="#263238" stroke-linecap="round" stroke-linejoin="round"/>
<path d="M51.3854 48.9602L50.2681 50.0775" stroke="#263238" stroke-linecap="round" stroke-linejoin="round"/>
<path d="M51.2334 50.1729C51.2334 50.1729 51.8735 52.7331 52.783 53.5416C53.6926 54.3501 54.8773 51.9358 54.8773 51.9358C54.8773 51.9358 51.9296 50.8691 51.2334 50.1729Z" fill="#263238" stroke="#263238" stroke-linecap="round" stroke-linejoin="round"/>
<path d="M54.7711 44.3561C54.7711 44.9737 54.5353 45.479 54.249 45.479C53.9626 45.479 53.7212 44.9793 53.7212 44.3561C53.7212 43.7329 53.957 43.2332 54.249 43.2332C54.5409 43.2332 54.7711 43.7272 54.7711 44.3561Z" fill="#263238"/>
<path d="M59.3859 44.2775C59.3859 44.8951 59.1501 45.4004 58.8581 45.4004C58.5661 45.4004 58.3359 44.9007 58.3359 44.2775C58.3359 43.6542 58.5718 43.1545 58.8581 43.1545C59.1444 43.1545 59.3859 43.6599 59.3859 44.2775Z" fill="#263238"/>
<path d="M50.335 41.5488C50.335 41.5488 51.3849 39.522 54.108 40.2912" stroke="#263238" stroke-linecap="round" stroke-linejoin="round"/>
<path d="M57.1792 40.6447C57.1792 40.6447 58.5772 39.314 59.6215 40.8524" stroke="#263238" stroke-linecap="round" stroke-linejoin="round"/>
<path d="M60.5483 33.127C59.0738 31.5821 57.1291 30.5693 55.018 30.2467C48.0447 29.0227 37.9553 29.354 38.9041 40.5326C39.0986 42.4475 39.5208 44.3323 40.1618 46.1472C40.4176 45.9004 40.7449 45.741 41.0969 45.6916C41.4489 45.6421 41.8074 45.7053 42.1213 45.8721C43.1656 46.5009 42.8175 47.8259 44.1425 47.4048C45.4676 46.9837 45.2655 45.3836 45.2655 44.5414C45.2655 43.6992 48.1963 44.3337 48.1963 42.7953C48.1963 41.0098 45.097 39.696 46.4501 37.8039C47.4944 36.3441 49.7908 37.1695 51.1383 37.5849C53.3505 38.2643 55.5177 38.9605 57.8758 38.9605C59.9307 38.9605 62.9289 38.9044 62.1822 36.1532C61.8922 35.0264 61.3313 33.9876 60.5483 33.127Z" fill="#263238" stroke="#263238" stroke-linecap="round" stroke-linejoin="round"/>
<path d="M51.907 34.9458C51.907 34.9458 49.3356 33.1772 51.907 34.1429C54.4785 35.1087 53.5353 36.2484 50.9526 36.72C48.3699 37.1917 45.1527 34.783 43.0585 35.2659C40.9642 35.7487 39.8413 38.0002 39.8413 38.0002" stroke="white" stroke-width="0.75" stroke-linecap="round" stroke-linejoin="round"/>
<path d="M40.1616 42.1831C40.1616 42.1831 42.5422 40.5661 46.4387 41.0602" stroke="white" stroke-width="0.75" stroke-linecap="round" stroke-linejoin="round"/>
</svg>
