<svg width="202" height="186" viewBox="0 0 202 186" fill="none" xmlns="http://www.w3.org/2000/svg">
<path d="M32.0413 8.34686C34.0831 6.93247 36.2331 5.68115 38.4714 4.60449C54.6657 -3.1427 74.544 -0.591086 90.1112 8.35658C105.679 17.3042 117.328 31.9286 125.8 47.7535C129.688 54.9855 133.134 62.7522 139.36 68.0984C147.379 74.9902 158.213 76.5503 167.773 80.3024C202.533 93.9548 202.931 144 172.463 162.688C160.453 170.056 145.62 172.277 131.822 173.308C112.702 174.732 93.2364 174.003 74.7724 168.841C56.3084 163.679 38.8456 153.857 26.491 139.194C10.3162 119.996 4.0805 93.8916 4.89701 68.7983C5.31013 56.0985 7.44863 43.2918 12.7949 31.778C17.135 22.5193 23.6818 14.1305 32.0413 8.34686Z" fill="#92E3A9"/>
<path opacity="0.7" d="M32.0413 8.34686C34.0831 6.93247 36.2331 5.68115 38.4714 4.60449C54.6657 -3.1427 74.544 -0.591086 90.1112 8.35658C105.679 17.3042 117.328 31.9286 125.8 47.7535C129.688 54.9855 133.134 62.7522 139.36 68.0984C147.379 74.9902 158.213 76.5503 167.773 80.3024C202.533 93.9548 202.931 144 172.463 162.688C160.453 170.056 145.62 172.277 131.822 173.308C112.702 174.732 93.2364 174.003 74.7724 168.841C56.3084 163.679 38.8456 153.857 26.491 139.194C10.3162 119.996 4.0805 93.8916 4.89701 68.7983C5.31013 56.0985 7.44863 43.2918 12.7949 31.778C17.135 22.5193 23.6818 14.1305 32.0413 8.34686Z" fill="white"/>
<path d="M16.4883 44.6091V54.6941" stroke="#263238" stroke-linecap="round" stroke-linejoin="round"/>
<path d="M16.4883 38.5583V42.5923" stroke="#263238" stroke-linecap="round" stroke-linejoin="round"/>
<path d="M16.4883 34.7915V36.9494" stroke="#263238" stroke-linecap="round" stroke-linejoin="round"/>
<path d="M14.583 53.5132L16.4834 55.8704L18.3886 53.5132" stroke="#263238" stroke-linecap="round" stroke-linejoin="round"/>
<path d="M22.9863 48.9299V59.0149" stroke="#263238" stroke-linecap="round" stroke-linejoin="round"/>
<path d="M22.9863 42.8789V46.9129" stroke="#263238" stroke-linecap="round" stroke-linejoin="round"/>
<path d="M22.9863 39.1121V41.27" stroke="#263238" stroke-linecap="round" stroke-linejoin="round"/>
<path d="M21.0815 57.8337L22.9867 60.1909L24.892 57.8337" stroke="#263238" stroke-linecap="round" stroke-linejoin="round"/>
<path d="M29.0571 40.4536V50.5386" stroke="#263238" stroke-linecap="round" stroke-linejoin="round"/>
<path d="M29.0571 34.4028V38.4368" stroke="#263238" stroke-linecap="round" stroke-linejoin="round"/>
<path d="M29.0571 30.636V32.7939" stroke="#263238" stroke-linecap="round" stroke-linejoin="round"/>
<path d="M27.1519 49.3577L29.0571 51.7149L30.9623 49.3577" stroke="#263238" stroke-linecap="round" stroke-linejoin="round"/>
<path d="M125.61 97.6001C125.223 95.9201 125.278 94.1685 125.769 92.5159C126.26 90.8633 127.171 89.3661 128.412 88.17C129.654 86.9739 131.184 86.1197 132.854 85.6907C134.524 85.2616 136.276 85.2723 137.94 85.7217C138.953 83.9225 140.521 82.4991 142.409 81.6641C144.298 80.8291 146.406 80.6273 148.418 81.0887C150.431 81.5502 152.24 82.6502 153.576 84.2245C154.912 85.7988 155.703 87.7629 155.831 89.8238C156.311 89.7318 156.8 89.6846 157.289 89.6828C159.212 89.6814 161.067 90.3883 162.502 91.6686C163.936 92.9488 164.849 94.7127 165.065 96.6232C166.149 96.7366 167.151 97.2502 167.875 98.0633C168.6 98.8765 168.995 99.9308 168.984 101.02C168.972 102.109 168.555 103.155 167.813 103.952C167.071 104.75 166.058 105.242 164.973 105.333H128.366C127.471 105.323 126.601 105.04 125.872 104.52C125.144 104 124.592 103.27 124.292 102.427C123.992 101.584 123.957 100.67 124.193 99.8066C124.428 98.9434 124.923 98.1733 125.61 97.6001V97.6001Z" stroke="#263238" stroke-linecap="round" stroke-linejoin="round"/>
<path d="M150.674 109.041V98.9561" stroke="#263238" stroke-linecap="round" stroke-linejoin="round"/>
<path d="M150.674 115.092V111.058" stroke="#263238" stroke-linecap="round" stroke-linejoin="round"/>
<path d="M150.674 118.859V116.706" stroke="#263238" stroke-linecap="round" stroke-linejoin="round"/>
<path d="M152.579 100.137L150.674 97.78L148.769 100.137" stroke="#263238" stroke-linecap="round" stroke-linejoin="round"/>
<path d="M144.176 104.72V94.6401" stroke="#263238" stroke-linecap="round" stroke-linejoin="round"/>
<path d="M144.176 110.771V106.737" stroke="#263238" stroke-linecap="round" stroke-linejoin="round"/>
<path d="M144.176 114.543V112.385" stroke="#263238" stroke-linecap="round" stroke-linejoin="round"/>
<path d="M146.081 95.8164L144.176 93.4592L142.271 95.8164" stroke="#263238" stroke-linecap="round" stroke-linejoin="round"/>
<path d="M138.101 113.197V103.112" stroke="#263238" stroke-linecap="round" stroke-linejoin="round"/>
<path d="M138.101 119.248V115.214" stroke="#263238" stroke-linecap="round" stroke-linejoin="round"/>
<path d="M138.101 123.014V120.856" stroke="#263238" stroke-linecap="round" stroke-linejoin="round"/>
<path d="M140.006 104.293L138.101 101.936L136.2 104.293" stroke="#263238" stroke-linecap="round" stroke-linejoin="round"/>
<path d="M153.639 150.532C153.639 150.532 162.018 151.193 162.387 157.371C162.368 157.371 153.882 161.278 153.639 150.532Z" fill="#92E3A9" stroke="#263238" stroke-linecap="round" stroke-linejoin="round"/>
<path d="M170.212 152.064C170.212 152.064 174.892 145.745 182.455 148.982C182.455 148.982 177.838 156.632 170.212 152.064Z" fill="#92E3A9" stroke="#263238" stroke-linecap="round" stroke-linejoin="round"/>
<path d="M181.813 132.088C181.813 132.088 183.16 144.239 172.093 140.909C172.078 140.909 175.612 131.957 181.813 132.088Z" fill="#92E3A9" stroke="#263238" stroke-linecap="round" stroke-linejoin="round"/>
<path d="M168.21 125.308C168.21 125.308 176.958 130.037 170.528 137.206C170.528 137.206 164.38 132.064 168.21 125.308Z" fill="#92E3A9" stroke="#263238" stroke-linecap="round" stroke-linejoin="round"/>
<path d="M157.425 136.19C157.425 136.19 166.956 135.218 166.956 144.049C166.956 144.049 157.425 144.424 157.425 136.19Z" fill="#92E3A9" stroke="#263238" stroke-linecap="round" stroke-linejoin="round"/>
<path d="M166.411 169.973C166.411 169.973 162.066 160.856 166.236 151.573C170.406 142.29 171.816 134.465 169.638 128.953" stroke="#263238" stroke-linecap="round" stroke-linejoin="round"/>
<path d="M160.545 138.557C160.545 138.557 166.256 140.827 168.2 146.712" stroke="#263238" stroke-linecap="round" stroke-linejoin="round"/>
<path d="M178.8 136.958C178.8 136.958 175.5 141.454 169.911 140.968" stroke="#263238" stroke-linecap="round" stroke-linejoin="round"/>
<path d="M178.8 150.275C178.8 150.275 169.658 152.909 166.028 152.049" stroke="#263238" stroke-linecap="round" stroke-linejoin="round"/>
<path d="M156.37 153.313C156.37 153.313 160.458 157.799 164.564 157.731" stroke="#263238" stroke-linecap="round" stroke-linejoin="round"/>
<path d="M155.908 162.741H175.091L173.084 180.272H157.92L155.908 162.741Z" fill="#263238"/>
<path d="M175.437 162.353H155.568C155.302 162.353 155.087 162.568 155.087 162.834V164.345C155.087 164.611 155.302 164.827 155.568 164.827H175.437C175.702 164.827 175.918 164.611 175.918 164.345V162.834C175.918 162.568 175.702 162.353 175.437 162.353Z" fill="#263238"/>
<path d="M157.425 164.826H168.978" stroke="white" stroke-linecap="round" stroke-linejoin="round"/>
<path d="M171.16 164.826H172.895" stroke="white" stroke-linecap="round" stroke-linejoin="round"/>
<path d="M201.094 15.8025V86.7617C201.094 87.6253 200.751 88.4536 200.14 89.0643C199.53 89.675 198.701 90.018 197.838 90.018H60.4248C59.5607 90.018 58.7319 89.6751 58.1205 89.0646C57.509 88.454 57.1649 87.6258 57.1636 86.7617V15.8025C57.1649 14.9384 57.509 14.1102 58.1205 13.4996C58.7319 12.8891 59.5607 12.5461 60.4248 12.5461H197.838C198.701 12.5461 199.53 12.8892 200.14 13.4999C200.751 14.1106 201.094 14.9389 201.094 15.8025Z" fill="white"/>
<path opacity="0.2" d="M201.094 19.5742V86.7764C201.094 87.64 200.751 88.4683 200.14 89.079C199.53 89.6897 198.701 90.0327 197.838 90.0327H111.379V19.5596L201.094 19.5742Z" fill="#92E3A9"/>
<path d="M201.094 15.8025V86.7617C201.094 87.6253 200.751 88.4536 200.14 89.0643C199.53 89.675 198.701 90.018 197.838 90.018H60.4248C59.5607 90.018 58.7319 89.6751 58.1205 89.0646C57.509 88.454 57.1649 87.6258 57.1636 86.7617V15.8025C57.1649 14.9384 57.509 14.1102 58.1205 13.4996C58.7319 12.8891 59.5607 12.5461 60.4248 12.5461H197.838C198.701 12.5461 199.53 12.8892 200.14 13.4999C200.751 14.1106 201.094 14.9389 201.094 15.8025V15.8025Z" stroke="#263238" stroke-linecap="round" stroke-linejoin="round"/>
<path d="M189.055 48.2883H171.175C170.217 48.2883 169.298 48.6688 168.621 49.346C167.944 50.0232 167.563 50.9417 167.563 51.8995C167.565 52.8564 167.946 53.7736 168.623 54.4498C169.3 55.126 170.218 55.5058 171.175 55.5058H189.055C189.529 55.5064 189.999 55.4136 190.437 55.2326C190.875 55.0517 191.273 54.7862 191.609 54.4512C191.944 54.1163 192.21 53.7185 192.392 53.2807C192.573 52.8428 192.667 52.3735 192.667 51.8995C192.667 51.4251 192.574 50.9552 192.393 50.5168C192.212 50.0784 191.946 49.68 191.61 49.3446C191.275 49.0091 190.876 48.7432 190.438 48.5619C190 48.3807 189.53 48.2877 189.055 48.2883Z" fill="#92E3A9" stroke="#263238" stroke-linecap="round" stroke-linejoin="round"/>
<path d="M201.094 15.8025V22.4513H57.1538V15.8025C57.1551 14.9384 57.4993 14.1102 58.1107 13.4996C58.7222 12.8891 59.5509 12.5461 60.415 12.5461H197.838C198.701 12.5461 199.53 12.8892 200.14 13.4999C200.751 14.1106 201.094 14.9389 201.094 15.8025Z" fill="#999999" stroke="#263238" stroke-linecap="round" stroke-linejoin="round"/>
<path d="M63.244 19.5741C64.4841 19.5741 65.4894 18.5688 65.4894 17.3287C65.4894 16.0886 64.4841 15.0833 63.244 15.0833C62.0038 15.0833 60.9985 16.0886 60.9985 17.3287C60.9985 18.5688 62.0038 19.5741 63.244 19.5741Z" fill="#92E3A9" stroke="#263238" stroke-linecap="round" stroke-linejoin="round"/>
<path d="M69.3192 19.5741C70.5593 19.5741 71.5646 18.5688 71.5646 17.3287C71.5646 16.0886 70.5593 15.0833 69.3192 15.0833C68.079 15.0833 67.0737 16.0886 67.0737 17.3287C67.0737 18.5688 68.079 19.5741 69.3192 19.5741Z" fill="#757575" stroke="#263238" stroke-linecap="round" stroke-linejoin="round"/>
<path d="M75.3944 19.5741C76.6345 19.5741 77.6398 18.5688 77.6398 17.3287C77.6398 16.0886 76.6345 15.0833 75.3944 15.0833C74.1542 15.0833 73.1489 16.0886 73.1489 17.3287C73.1489 18.5688 74.1542 19.5741 75.3944 19.5741Z" fill="white" stroke="#263238" stroke-linecap="round" stroke-linejoin="round"/>
<path d="M111.379 22.4514V90.0959" stroke="#263238" stroke-linecap="round" stroke-linejoin="round"/>
<path d="M196.195 19.5739H164.725C164.131 19.5726 163.561 19.3354 163.141 18.9145C162.721 18.4935 162.485 17.9231 162.485 17.3285C162.486 16.7346 162.723 16.1655 163.143 15.7456C163.562 15.3256 164.132 15.0892 164.725 15.0879H196.195C196.79 15.0879 197.36 15.3238 197.781 15.7438C198.202 16.1639 198.439 16.7338 198.441 17.3285C198.441 17.6233 198.383 17.9153 198.27 18.1877C198.157 18.4602 197.992 18.7077 197.783 18.9162C197.575 19.1247 197.327 19.2901 197.055 19.403C196.782 19.5158 196.49 19.5739 196.195 19.5739Z" fill="white" stroke="#263238" stroke-linecap="round" stroke-linejoin="round"/>
<path d="M190.455 43.2868H122.354C121.767 43.2868 121.205 43.0538 120.79 42.6391C120.376 42.2244 120.143 41.6619 120.143 41.0754C120.143 40.785 120.2 40.4974 120.311 40.2291C120.422 39.9608 120.585 39.7171 120.79 39.5117C120.996 39.3064 121.239 39.1435 121.508 39.0323C121.776 38.9212 122.064 38.864 122.354 38.864H190.455C190.746 38.864 191.033 38.9212 191.302 39.0323C191.57 39.1435 191.814 39.3064 192.019 39.5117C192.224 39.7171 192.387 39.9608 192.498 40.2291C192.61 40.4974 192.667 40.785 192.667 41.0754C192.667 41.6619 192.434 42.2244 192.019 42.6391C191.604 43.0538 191.042 43.2868 190.455 43.2868Z" fill="#BFBFBF" stroke="#263238" stroke-miterlimit="10"/>
<path d="M158.864 43.2868H122.354C121.767 43.2868 121.205 43.0538 120.79 42.6391C120.376 42.2244 120.143 41.6619 120.143 41.0754C120.143 40.785 120.2 40.4974 120.311 40.2291C120.422 39.9608 120.585 39.7171 120.79 39.5117C120.996 39.3064 121.239 39.1435 121.508 39.0323C121.776 38.9212 122.064 38.864 122.354 38.864H158.864C159.154 38.864 159.442 38.9212 159.71 39.0323C159.979 39.1435 160.222 39.3064 160.428 39.5117C160.633 39.7171 160.796 39.9608 160.907 40.2291C161.018 40.4974 161.075 40.785 161.075 41.0754C161.075 41.6619 160.842 42.2244 160.428 42.6391C160.013 43.0538 159.45 43.2868 158.864 43.2868Z" fill="#92E3A9" stroke="#263238" stroke-linecap="round" stroke-linejoin="round"/>
<path d="M125.153 74.6938H122.154V77.6926H125.153V74.6938Z" stroke="#263238" stroke-linecap="round" stroke-linejoin="round"/>
<path d="M123.068 75.9867L123.511 76.5894L124.245 75.5444" stroke="#263238" stroke-linecap="round" stroke-linejoin="round"/>
<path opacity="0.3" d="M151.16 75.3208H130.738C130.254 75.3208 129.863 75.7114 129.863 76.1932C129.863 76.675 130.254 77.0656 130.738 77.0656H151.16C151.643 77.0656 152.035 76.675 152.035 76.1932C152.035 75.7114 151.643 75.3208 151.16 75.3208Z" fill="black"/>
<path d="M77.834 77.984L78.32 74.6548H78.9081L78.2762 78.7325H77.3042L76.6724 74.6548H77.3188L77.834 77.984Z" fill="#263238"/>
<path d="M79.8657 76.3753H80.7454V76.9585H79.8657V78.1541H80.9738V78.7325H79.2241V74.6548H80.9738V75.238H79.8657V76.3753Z" fill="#263238"/>
<path d="M82.7037 78.7328C82.6524 78.5762 82.6326 78.4111 82.6454 78.2468V77.6052C82.6454 77.231 82.5142 77.0901 82.2226 77.0901H82.0038V78.7474H81.3623V74.6697H82.3343C83.0002 74.6697 83.3064 74.9807 83.3064 75.6077V75.9285C83.3292 76.0923 83.3008 76.2591 83.2251 76.4062C83.1494 76.5532 83.0301 76.6733 82.8836 76.7499C83.2043 76.8811 83.3112 77.1824 83.3112 77.6101V78.2419C83.3004 78.4069 83.3235 78.5723 83.3793 78.728L82.7037 78.7328ZM82.0038 75.2383V76.4923H82.2517C82.4947 76.4923 82.6405 76.3853 82.6405 76.0597V75.6563C82.6405 75.3647 82.5385 75.2383 82.31 75.2383H82.0038Z" fill="#263238"/>
<path d="M84.3272 78.1155V78.7327H83.7051V78.1155H84.3272Z" fill="#263238"/>
<path d="M86.6358 75.1992C86.4316 75.1992 86.3004 75.311 86.3004 75.6026V76.04H85.6978V75.6415C85.6978 74.9902 86.0234 74.616 86.6698 74.616C87.3162 74.616 87.6418 74.9902 87.6418 75.6415C87.6284 75.9513 87.5511 76.255 87.4148 76.5335C87.2785 76.812 87.0861 77.0593 86.8496 77.2599C86.4705 77.6682 86.3636 77.8577 86.3636 78.0764C86.3612 78.1056 86.3612 78.1348 86.3636 78.1639H87.5787V78.7423H85.6978V78.2563C85.7062 78.0073 85.7674 77.7629 85.8771 77.5392C85.9868 77.3156 86.1427 77.1177 86.3344 76.9586C86.525 76.8031 86.68 76.6085 86.789 76.388C86.898 76.1675 86.9584 75.9262 86.9663 75.6804C86.9663 75.2915 86.8399 75.1992 86.6358 75.1992Z" fill="#263238"/>
<path d="M88.6138 78.1155V78.7327H87.9966V78.1155H88.6138Z" fill="#263238"/>
<path d="M89.0371 75.632C89.0371 75.3742 89.1395 75.1269 89.3218 74.9446C89.5041 74.7623 89.7514 74.6599 90.0092 74.6599C90.267 74.6599 90.5142 74.7623 90.6965 74.9446C90.8788 75.1269 90.9812 75.3742 90.9812 75.632V77.7559C90.9812 78.0137 90.8788 78.2609 90.6965 78.4432C90.5142 78.6255 90.267 78.7279 90.0092 78.7279C89.7514 78.7279 89.5041 78.6255 89.3218 78.4432C89.1395 78.2609 89.0371 78.0137 89.0371 77.7559V75.632ZM89.6787 77.7948C89.6787 78.0864 89.8099 78.1982 90.0092 78.1982C90.2084 78.1982 90.3445 78.0864 90.3445 77.7948V75.5931C90.3445 75.3015 90.2133 75.1897 90.0092 75.1897C89.805 75.1897 89.6787 75.3015 89.6787 75.5931V77.7948Z" fill="#263238"/>
<path d="M91.977 77.4154V77.7945C91.977 78.0861 92.1033 78.193 92.3075 78.193C92.5116 78.193 92.6428 78.0861 92.6428 77.7945V76.9002C92.6428 76.6086 92.5116 76.4968 92.3075 76.4968C92.1033 76.4968 91.977 76.6086 91.977 76.9002V77.0217H91.3694L91.4861 74.6548H93.1775V75.238H92.0596L92.0061 76.2101C92.0627 76.1148 92.1442 76.0369 92.2419 75.9846C92.3395 75.9324 92.4496 75.9078 92.5602 75.9136C93.0462 75.9136 93.2747 76.2441 93.2747 76.8467V77.7556C93.2953 77.8904 93.2849 78.0281 93.2442 78.1582C93.2035 78.2883 93.1336 78.4074 93.0398 78.5064C92.946 78.6053 92.8308 78.6815 92.703 78.7292C92.5753 78.7768 92.4383 78.7945 92.3026 78.7811C91.6708 78.7811 91.3306 78.4069 91.3306 77.7556V77.4154H91.977Z" fill="#263238"/>
<path d="M74.5191 62.4654C72.9952 61.0166 71.7858 59.2695 70.9663 57.333" stroke="#263238" stroke-linecap="round" stroke-linejoin="round"/>
<path d="M88.522 36.4924C90.9453 37.0597 93.194 38.209 95.0732 39.8409C96.9524 41.4728 98.4055 43.5381 99.3068 45.8581" stroke="#263238" stroke-linecap="round" stroke-linejoin="round"/>
<path d="M89.8141 47.4959V43.1217L86.548 42.8398C86.3574 42.162 86.0866 41.5093 85.7412 40.8957L87.8506 38.3927L84.7692 35.3454L82.2662 37.4498C81.6512 37.1073 80.9989 36.8366 80.3221 36.643L80.0402 33.3818H75.666L75.3841 36.643C74.7067 36.8349 74.0542 37.1057 73.44 37.4498L70.9321 35.3454L67.8556 38.4267L69.9601 40.9298C69.6168 41.5444 69.346 42.1968 69.1533 42.8738L65.8921 43.1557V47.5299L69.1533 47.8118C69.346 48.4889 69.6168 49.1413 69.9601 49.7559L67.8556 52.2589L70.9321 55.3403L73.44 53.2358C74.0542 53.58 74.7067 53.8508 75.3841 54.0426L75.666 57.3038H80.0402L80.3221 54.0426C80.9989 53.849 81.6512 53.5783 82.2662 53.2358L84.7692 55.3403L87.8506 52.2589L85.7412 49.7559C86.0866 49.1423 86.3574 48.4897 86.548 47.8118L89.8141 47.4959ZM77.8531 50.412C76.8524 50.412 75.8742 50.1153 75.0422 49.5594C74.2102 49.0034 73.5617 48.2132 73.1787 47.2887C72.7958 46.3642 72.6956 45.3469 72.8908 44.3655C73.086 43.3841 73.5679 42.4825 74.2755 41.775C74.9831 41.0674 75.8846 40.5855 76.866 40.3903C77.8475 40.1951 78.8648 40.2953 79.7893 40.6782C80.7138 41.0611 81.504 41.7096 82.0599 42.5417C82.6158 43.3737 82.9126 44.3519 82.9126 45.3526C82.9113 46.694 82.3778 47.9802 81.4293 48.9287C80.4807 49.8773 79.1946 50.4108 77.8531 50.412Z" fill="#92E3A9" stroke="#263238" stroke-linecap="round" stroke-linejoin="round"/>
<path d="M104.225 57.2164V54.1205L101.902 53.9212C101.764 53.4359 101.572 52.968 101.328 52.5263L102.825 50.7475L100.633 48.5555L98.8546 50.0525C98.413 49.8089 97.945 49.6165 97.4597 49.479L97.2604 47.1606H94.1645L93.9603 49.4887C93.4769 49.6271 93.0107 49.8195 92.5703 50.0622L90.7915 48.5652L88.6141 50.7572L90.111 52.536C89.8674 52.9777 89.675 53.4457 89.5375 53.9309L87.2144 54.1302V57.2164L89.5375 57.4206C89.6759 57.904 89.8683 58.3702 90.111 58.8106L88.6141 60.6186L90.8061 62.8105L92.5849 61.3136C93.0243 61.5584 93.4908 61.7508 93.9749 61.8871L94.1791 64.2103H97.275L97.4743 61.8871C97.9603 61.7518 98.4285 61.5592 98.8692 61.3136L100.648 62.8105L102.84 60.6186L101.343 58.8398C101.586 58.3994 101.778 57.9331 101.917 57.4497L104.225 57.2164ZM95.71 59.2723C94.9977 59.2723 94.3014 59.0611 93.7092 58.6654C93.1169 58.2696 92.6553 57.7072 92.3827 57.0491C92.1102 56.391 92.0388 55.6669 92.1778 54.9683C92.3168 54.2697 92.6598 53.628 93.1634 53.1243C93.6671 52.6206 94.3088 52.2776 95.0074 52.1387C95.706 51.9997 96.4302 52.071 97.0882 52.3436C97.7463 52.6162 98.3088 53.0778 98.7045 53.6701C99.1002 54.2623 99.3114 54.9586 99.3114 55.6709C99.3127 56.1447 99.2205 56.614 99.0401 57.0521C98.8597 57.4901 98.5946 57.8883 98.2601 58.2238C97.9255 58.5592 97.5281 58.8254 97.0905 59.007C96.6529 59.1886 96.1838 59.282 95.71 59.282V59.2723Z" fill="#92E3A9"/>
<path opacity="0.3" d="M104.225 57.2164V54.1205L101.902 53.9212C101.764 53.4359 101.572 52.968 101.328 52.5263L102.825 50.7475L100.633 48.5555L98.8546 50.0525C98.413 49.8089 97.945 49.6165 97.4597 49.479L97.2604 47.1606H94.1645L93.9603 49.4887C93.4769 49.6271 93.0107 49.8195 92.5703 50.0622L90.7915 48.5652L88.6141 50.7572L90.111 52.536C89.8674 52.9777 89.675 53.4457 89.5375 53.9309L87.2144 54.1302V57.2164L89.5375 57.4206C89.6759 57.904 89.8683 58.3702 90.111 58.8106L88.6141 60.6186L90.8061 62.8105L92.5849 61.3136C93.0243 61.5584 93.4908 61.7508 93.9749 61.8871L94.1791 64.2103H97.275L97.4743 61.8871C97.9603 61.7518 98.4285 61.5592 98.8692 61.3136L100.648 62.8105L102.84 60.6186L101.343 58.8398C101.586 58.3994 101.778 57.9331 101.917 57.4497L104.225 57.2164ZM95.71 59.2723C94.9977 59.2723 94.3014 59.0611 93.7092 58.6654C93.1169 58.2696 92.6553 57.7072 92.3827 57.0491C92.1102 56.391 92.0388 55.6669 92.1778 54.9683C92.3168 54.2697 92.6598 53.628 93.1634 53.1243C93.6671 52.6206 94.3088 52.2776 95.0074 52.1387C95.706 51.9997 96.4302 52.071 97.0882 52.3436C97.7463 52.6162 98.3088 53.0778 98.7045 53.6701C99.1002 54.2623 99.3114 54.9586 99.3114 55.6709C99.3127 56.1447 99.2205 56.614 99.0401 57.0521C98.8597 57.4901 98.5946 57.8883 98.2601 58.2238C97.9255 58.5592 97.5281 58.8254 97.0905 59.007C96.6529 59.1886 96.1838 59.282 95.71 59.282V59.2723Z" fill="white"/>
<path d="M104.225 57.2164V54.1205L101.902 53.9212C101.764 53.4359 101.572 52.968 101.328 52.5263L102.825 50.7475L100.633 48.5555L98.8546 50.0525C98.413 49.8089 97.945 49.6165 97.4597 49.479L97.2604 47.1606H94.1645L93.9603 49.4887C93.4769 49.6271 93.0107 49.8195 92.5703 50.0622L90.7915 48.5652L88.6141 50.7572L90.111 52.536C89.8674 52.9777 89.675 53.4457 89.5375 53.9309L87.2144 54.1302V57.2164L89.5375 57.4206C89.6759 57.904 89.8683 58.3702 90.111 58.8106L88.6141 60.6186L90.8061 62.8105L92.5849 61.3136C93.0243 61.5584 93.4908 61.7508 93.9749 61.8871L94.1791 64.2103H97.275L97.4743 61.8871C97.9603 61.7518 98.4285 61.5592 98.8692 61.3136L100.648 62.8105L102.84 60.6186L101.343 58.8398C101.586 58.3994 101.778 57.9331 101.917 57.4497L104.225 57.2164ZM95.71 59.2723C94.9977 59.2723 94.3014 59.0611 93.7092 58.6654C93.1169 58.2696 92.6553 57.7072 92.3827 57.0491C92.1102 56.391 92.0388 55.6669 92.1778 54.9683C92.3168 54.2697 92.6598 53.628 93.1634 53.1243C93.6671 52.6206 94.3088 52.2776 95.0074 52.1387C95.706 51.9997 96.4302 52.071 97.0882 52.3436C97.7463 52.6162 98.3088 53.0778 98.7045 53.6701C99.1002 54.2623 99.3114 54.9586 99.3114 55.6709C99.3127 56.1447 99.2205 56.614 99.0401 57.0521C98.8597 57.4901 98.5946 57.8883 98.2601 58.2238C97.9255 58.5592 97.5281 58.8254 97.0905 59.007C96.6529 59.1886 96.1838 59.282 95.71 59.282V59.2723Z" stroke="#263238" stroke-linecap="round" stroke-linejoin="round"/>
<path d="M89.0616 64.4485V62.242L87.4091 62.101C87.3121 61.7619 87.175 61.4356 87.0008 61.129L88.0701 59.8605L86.5099 58.3003L85.2414 59.3696C84.9348 59.1953 84.6085 59.0583 84.2694 58.9613L84.1284 57.3088H81.9219L81.7809 58.9613C81.4419 59.0583 81.1155 59.1953 80.8089 59.3696L79.5452 58.3003L77.9851 59.8605L79.0495 61.129C78.8753 61.4356 78.7382 61.7619 78.6412 62.101L76.9888 62.242V64.4485L78.6412 64.5894C78.7382 64.9285 78.8753 65.2548 79.0495 65.5615L77.9851 66.8251L79.5452 68.3853L80.8089 67.3209C81.1155 67.4951 81.4419 67.6322 81.7809 67.7291L81.9219 69.3816H84.1284L84.2694 67.7291C84.6085 67.6322 84.9348 67.4951 85.2414 67.3209L86.5099 68.3853L88.0701 66.8251L87.0008 65.5615C87.175 65.2548 87.3121 64.9285 87.4091 64.5894L89.0616 64.4485ZM83.0057 65.9066C82.4991 65.9066 82.0039 65.7563 81.5827 65.4749C81.1615 65.1935 80.8332 64.7934 80.6394 64.3254C80.4455 63.8574 80.3948 63.3424 80.4936 62.8455C80.5924 62.3487 80.8364 61.8923 81.1946 61.5341C81.5528 61.1759 82.0092 60.9319 82.506 60.8331C83.0029 60.7343 83.5179 60.785 83.9859 60.9789C84.4539 61.1727 84.8539 61.501 85.1354 61.9222C85.4168 62.3434 85.5671 62.8386 85.5671 63.3452C85.5671 63.6816 85.5008 64.0147 85.3721 64.3254C85.2434 64.6362 85.0547 64.9185 84.8169 65.1564C84.579 65.3942 84.2967 65.5829 83.9859 65.7116C83.6751 65.8403 83.3421 65.9066 83.0057 65.9066Z" fill="#92E3A9"/>
<path opacity="0.5" d="M89.0616 64.4485V62.242L87.4091 62.101C87.3121 61.7619 87.175 61.4356 87.0008 61.129L88.0701 59.8605L86.5099 58.3003L85.2414 59.3696C84.9348 59.1953 84.6085 59.0583 84.2694 58.9613L84.1284 57.3088H81.9219L81.7809 58.9613C81.4419 59.0583 81.1155 59.1953 80.8089 59.3696L79.5452 58.3003L77.9851 59.8605L79.0495 61.129C78.8753 61.4356 78.7382 61.7619 78.6412 62.101L76.9888 62.242V64.4485L78.6412 64.5894C78.7382 64.9285 78.8753 65.2548 79.0495 65.5615L77.9851 66.8251L79.5452 68.3853L80.8089 67.3209C81.1155 67.4951 81.4419 67.6322 81.7809 67.7291L81.9219 69.3816H84.1284L84.2694 67.7291C84.6085 67.6322 84.9348 67.4951 85.2414 67.3209L86.5099 68.3853L88.0701 66.8251L87.0008 65.5615C87.175 65.2548 87.3121 64.9285 87.4091 64.5894L89.0616 64.4485ZM83.0057 65.9066C82.4991 65.9066 82.0039 65.7563 81.5827 65.4749C81.1615 65.1935 80.8332 64.7934 80.6394 64.3254C80.4455 63.8574 80.3948 63.3424 80.4936 62.8455C80.5924 62.3487 80.8364 61.8923 81.1946 61.5341C81.5528 61.1759 82.0092 60.9319 82.506 60.8331C83.0029 60.7343 83.5179 60.785 83.9859 60.9789C84.4539 61.1727 84.8539 61.501 85.1354 61.9222C85.4168 62.3434 85.5671 62.8386 85.5671 63.3452C85.5671 63.6816 85.5008 64.0147 85.3721 64.3254C85.2434 64.6362 85.0547 64.9185 84.8169 65.1564C84.579 65.3942 84.2967 65.5829 83.9859 65.7116C83.6751 65.8403 83.3421 65.9066 83.0057 65.9066Z" fill="white"/>
<path d="M89.0616 64.4485V62.242L87.4091 62.101C87.3121 61.7619 87.175 61.4356 87.0008 61.129L88.0701 59.8605L86.5099 58.3003L85.2414 59.3696C84.9348 59.1953 84.6085 59.0583 84.2694 58.9613L84.1284 57.3088H81.9219L81.7809 58.9613C81.4419 59.0583 81.1155 59.1953 80.8089 59.3696L79.5452 58.3003L77.9851 59.8605L79.0495 61.129C78.8753 61.4356 78.7382 61.7619 78.6412 62.101L76.9888 62.242V64.4485L78.6412 64.5894C78.7382 64.9285 78.8753 65.2548 79.0495 65.5615L77.9851 66.8251L79.5452 68.3853L80.8089 67.3209C81.1155 67.4951 81.4419 67.6322 81.7809 67.7291L81.9219 69.3816H84.1284L84.2694 67.7291C84.6085 67.6322 84.9348 67.4951 85.2414 67.3209L86.5099 68.3853L88.0701 66.8251L87.0008 65.5615C87.175 65.2548 87.3121 64.9285 87.4091 64.5894L89.0616 64.4485ZM83.0057 65.9066C82.4991 65.9066 82.0039 65.7563 81.5827 65.4749C81.1615 65.1935 80.8332 64.7934 80.6394 64.3254C80.4455 63.8574 80.3948 63.3424 80.4936 62.8455C80.5924 62.3487 80.8364 61.8923 81.1946 61.5341C81.5528 61.1759 82.0092 60.9319 82.506 60.8331C83.0029 60.7343 83.5179 60.785 83.9859 60.9789C84.4539 61.1727 84.8539 61.501 85.1354 61.9222C85.4168 62.3434 85.5671 62.8386 85.5671 63.3452C85.5671 63.6816 85.5008 64.0147 85.3721 64.3254C85.2434 64.6362 85.0547 64.9185 84.8169 65.1564C84.579 65.3942 84.2967 65.5829 83.9859 65.7116C83.6751 65.8403 83.3421 65.9066 83.0057 65.9066V65.9066Z" stroke="#263238" stroke-linecap="round" stroke-linejoin="round"/>
<path d="M98.145 45.3284L99.3163 45.8581L99.7781 44.8035" stroke="#263238" stroke-linecap="round" stroke-linejoin="round"/>
<path d="M72.1184 57.8191L70.9422 57.2893L70.4805 58.3488" stroke="#263238" stroke-linecap="round" stroke-linejoin="round"/>
<path d="M120.784 33.4014V35.7877C120.784 36.0113 120.881 36.0891 121.037 36.0891C121.192 36.0891 121.289 36.0113 121.289 35.7877V33.4014H121.751V35.7586C121.766 35.86 121.758 35.9634 121.727 36.0612C121.697 36.159 121.644 36.2487 121.574 36.3235C121.504 36.3982 121.418 36.4562 121.323 36.493C121.227 36.5299 121.124 36.5446 121.022 36.5362C120.536 36.5362 120.298 36.2543 120.298 35.7586V33.4014H120.784Z" fill="#263238"/>
<path d="M123.52 34.1596V34.563C123.52 35.049 123.282 35.3309 122.796 35.3309H122.568V36.4925H122.082V33.4014H122.796C123.282 33.4014 123.52 33.6687 123.52 34.1596ZM122.548 33.8388V34.8886H122.777C122.932 34.8886 123.015 34.8157 123.015 34.597V34.111C123.015 33.8923 122.932 33.8193 122.777 33.8193L122.548 33.8388Z" fill="#263238"/>
<path d="M125.26 36.4924H124.774L124.692 35.9287H124.094L124.011 36.4924H123.564L124.05 33.3965H124.76L125.26 36.4924ZM124.152 35.5204H124.638L124.41 33.9554L124.152 35.5204Z" fill="#263238"/>
<path d="M125.483 33.4014H126.256C126.742 33.4014 126.98 33.6735 126.98 34.1644V35.7294C126.98 36.2154 126.742 36.4973 126.256 36.4973H125.483V33.4014ZM125.969 33.8436V36.0551H126.246C126.402 36.0551 126.494 35.9724 126.494 35.7537V34.145C126.494 33.9214 126.402 33.8436 126.246 33.8436H125.969Z" fill="#263238"/>
<path d="M128.856 36.4924H128.37L128.288 35.9287H127.69L127.607 36.4924H127.16L127.646 33.3965H128.356L128.856 36.4924ZM127.748 35.5204H128.234L128.006 33.9554L127.748 35.5204Z" fill="#263238"/>
<path d="M128.774 33.4014H130.276V33.8436H129.765V36.4973H129.279V33.8388H128.793L128.774 33.4014Z" fill="#263238"/>
<path d="M130.484 33.4014H130.97V36.4973H130.484V33.4014Z" fill="#263238"/>
<path d="M131.768 34.2519V36.4925H131.331V33.4014H131.943L132.429 35.2531V33.4014H132.842V36.4973H132.356L131.768 34.2519Z" fill="#263238"/>
<path d="M133.94 34.7671H134.621V35.7392C134.621 36.2252 134.373 36.5168 133.897 36.5168C133.42 36.5168 133.172 36.2349 133.172 35.7392V34.1304C133.172 33.6444 133.42 33.3528 133.897 33.3528C134.373 33.3528 134.621 33.6347 134.621 34.1304V34.4318H134.135V34.1013C134.135 33.8777 134.037 33.7951 133.887 33.7951C133.736 33.7951 133.634 33.8777 133.634 34.1013V35.7683C133.634 35.9919 133.731 36.0697 133.887 36.0697C134.042 36.0697 134.135 35.9919 134.135 35.7683V35.1997H133.916L133.94 34.7671Z" fill="#263238"/>
<path d="M197.041 57.4935L188.963 51.7341L191.262 61.3817L192.919 58.9224L194.445 61.1921L195.665 60.3707L194.139 58.101L197.041 57.4935Z" fill="#263238"/>
<path d="M100.764 100.783C101.761 99.3788 108.322 103.286 107.515 106.062C106.708 108.837 104.084 108.535 102.548 107.063C101.012 105.59 99.6999 102.285 100.764 100.783Z" fill="#92E3A9"/>
<path opacity="0.3" d="M100.764 100.783C101.761 99.3788 108.322 103.286 107.515 106.062C106.708 108.837 104.084 108.535 102.548 107.063C101.012 105.59 99.6999 102.285 100.764 100.783Z" fill="black" fill-opacity="0.7"/>
<path d="M100.764 100.783C101.761 99.3788 108.322 103.286 107.515 106.062C106.708 108.837 104.084 108.535 102.548 107.063C101.012 105.59 99.6999 102.285 100.764 100.783Z" stroke="#263238" stroke-linecap="round" stroke-linejoin="round"/>
<path d="M103.88 90.0083C103.88 90.0083 104.852 90.0083 106.465 93.7555C107.138 95.3927 107.307 97.1931 106.951 98.9268L104.585 110.334L98.8203 106.868L102.169 98.4991C102.169 98.4991 100.414 93.0897 103.88 90.0083Z" fill="white" stroke="#263238" stroke-linecap="round" stroke-linejoin="round"/>
<path d="M101.547 97.3473L97.8532 98.5721C97.4596 98.6741 96.6868 98.0229 96.7208 97.6L97.8192 84.6815C97.8411 84.4274 97.9412 84.1863 98.1057 83.9914C98.2701 83.7964 98.491 83.6572 98.7378 83.5929L102.835 82.7034C103.224 82.6014 104.21 83.068 104.176 83.4714L102.47 96.2392C102.451 96.4971 102.352 96.7427 102.187 96.9414C102.021 97.1401 101.797 97.2821 101.547 97.3473Z" fill="#92E3A9"/>
<path opacity="0.3" d="M101.547 97.3473L97.8532 98.5721C97.4596 98.6741 96.6868 98.0229 96.7208 97.6L97.8192 84.6815C97.8411 84.4274 97.9412 84.1863 98.1057 83.9914C98.2701 83.7964 98.491 83.6572 98.7378 83.5929L102.835 82.7034C103.224 82.6014 104.21 83.068 104.176 83.4714L102.47 96.2392C102.451 96.4971 102.352 96.7427 102.187 96.9414C102.021 97.1401 101.797 97.2821 101.547 97.3473Z" fill="black" fill-opacity="0.7"/>
<path d="M101.547 97.3473L97.8532 98.5721C97.4596 98.6741 96.6868 98.0229 96.7208 97.6L97.8192 84.6815C97.8411 84.4274 97.9412 84.1863 98.1057 83.9914C98.2701 83.7964 98.491 83.6572 98.7378 83.5929L102.835 82.7034C103.224 82.6014 104.21 83.068 104.176 83.4714L102.47 96.2392C102.451 96.4971 102.352 96.7427 102.187 96.9414C102.021 97.1401 101.797 97.2821 101.547 97.3473V97.3473Z" stroke="#263238" stroke-linecap="round" stroke-linejoin="round"/>
<path d="M102.154 97.6681L98.062 98.5575C97.9714 98.5802 97.8768 98.581 97.7859 98.5598C97.6949 98.5387 97.6104 98.4962 97.5391 98.4359C97.4679 98.3756 97.412 98.2991 97.3762 98.213C97.3403 98.1268 97.3255 98.0333 97.3329 97.9403L98.4265 85.0169C98.4487 84.7622 98.5494 84.5206 98.7149 84.3256C98.8803 84.1306 99.1022 83.9917 99.3499 83.9283L103.442 83.0388C103.533 83.0162 103.627 83.0154 103.718 83.0365C103.809 83.0577 103.894 83.1002 103.965 83.1605C104.036 83.2208 104.092 83.2972 104.128 83.3834C104.164 83.4696 104.179 83.563 104.171 83.6561L103.078 96.5843C103.055 96.8382 102.953 97.0787 102.788 97.2727C102.623 97.4668 102.401 97.6049 102.154 97.6681Z" fill="#92E3A9" stroke="#263238" stroke-linecap="round" stroke-linejoin="round"/>
<path opacity="0.3" d="M99.8853 87.4079L99.2243 87.5537C99.2096 87.5568 99.1944 87.5564 99.1799 87.5525C99.1654 87.5487 99.1519 87.5416 99.1406 87.5317C99.1293 87.5218 99.1205 87.5094 99.1147 87.4956C99.109 87.4817 99.1066 87.4666 99.1077 87.4517L99.2875 85.3715C99.29 85.3301 99.3055 85.2905 99.3316 85.2582C99.3577 85.226 99.3933 85.2027 99.4333 85.1917L100.094 85.0507C100.109 85.0467 100.124 85.0463 100.138 85.0494C100.153 85.0526 100.167 85.0592 100.178 85.0688C100.19 85.0783 100.199 85.0905 100.204 85.1043C100.21 85.1181 100.212 85.1331 100.211 85.1479L100.036 87.233C100.031 87.2739 100.015 87.3126 99.9877 87.3438C99.9609 87.375 99.9251 87.3974 99.8853 87.4079Z" fill="black" fill-opacity="0.7"/>
<path d="M105.625 93.8869C105.785 92.074 104.138 89.3572 103.039 89.3572C101.941 89.3572 98.6019 91.9282 98.6019 91.9282C97.3139 92.8663 97.9506 93.7557 97.9506 93.7557C97.1924 94.2417 96.9786 94.9367 97.3285 95.2526C97.6785 95.5685 98.7866 95.2526 98.7866 95.2526C98.7866 95.2526 97.6785 96.0643 97.9555 96.458C98.6068 97.4008 100.755 96.1615 100.755 96.1615C100.755 96.1615 99.5108 96.9829 99.5788 97.1335C100.065 98.159 102.087 96.9634 102.087 96.9634L103.516 97.6973C103.515 97.8651 103.548 98.0313 103.614 98.1856C103.68 98.3398 103.778 98.4787 103.9 98.5937C104.022 98.7087 104.167 98.7972 104.325 98.8537C104.483 98.9102 104.651 98.9335 104.818 98.9221" fill="white"/>
<path d="M105.625 93.8869C105.785 92.074 104.138 89.3572 103.039 89.3572C101.941 89.3572 98.6019 91.9282 98.6019 91.9282C97.3139 92.8663 97.9506 93.7557 97.9506 93.7557C97.1924 94.2417 96.9786 94.9367 97.3285 95.2526C97.6785 95.5685 98.7866 95.2526 98.7866 95.2526C98.7866 95.2526 97.6785 96.0643 97.9555 96.458C98.6068 97.4008 100.755 96.1615 100.755 96.1615C100.755 96.1615 99.5108 96.9829 99.5788 97.1335C100.065 98.159 102.087 96.9634 102.087 96.9634L103.516 97.6973C103.515 97.8651 103.548 98.0313 103.614 98.1856C103.68 98.3398 103.778 98.4787 103.9 98.5937C104.022 98.7087 104.167 98.7972 104.325 98.8537C104.483 98.9102 104.651 98.9335 104.818 98.9221" stroke="#263238" stroke-linecap="round" stroke-linejoin="round"/>
<path d="M97.9697 93.7555C97.9697 93.7555 101.095 91.7336 101.493 91.6802C101.892 91.6267 103.335 91.3108 103.335 91.3108" fill="white"/>
<path d="M97.9697 93.7555C97.9697 93.7555 101.095 91.7336 101.493 91.6802C101.892 91.6267 103.335 91.3108 103.335 91.3108" stroke="#263238" stroke-linecap="round" stroke-linejoin="round"/>
<path d="M98.8203 95.2525C98.8203 95.2525 101.362 93.9403 101.829 93.9403C102.525 93.8638 103.217 93.7453 103.899 93.5854" fill="white"/>
<path d="M98.8203 95.2525C98.8203 95.2525 101.362 93.9403 101.829 93.9403C102.525 93.8638 103.217 93.7453 103.899 93.5854" stroke="#263238" stroke-linecap="round" stroke-linejoin="round"/>
<path d="M100.764 96.1615C101.06 95.9494 101.374 95.764 101.702 95.6074C102.309 95.5631 102.918 95.5631 103.525 95.6074" fill="white"/>
<path d="M100.764 96.1615C101.06 95.9494 101.374 95.764 101.702 95.6074C102.309 95.5631 102.918 95.5631 103.525 95.6074" stroke="#263238" stroke-linecap="round" stroke-linejoin="round"/>
<path d="M75.759 96.0984C80.6192 96.1713 91.7977 113.595 91.7977 113.595L98.8207 104.847L100.765 100.793C100.765 100.793 101.737 108.084 107.516 106.072C107.516 106.072 102.427 125.211 96.7163 127.52C91.0055 129.828 75.1709 113.595 75.1709 113.595L75.759 96.0984Z" fill="#92E3A9"/>
<path opacity="0.2" d="M76.1572 114.567C78.1645 116.535 82.9178 121.036 87.5496 124.229C86.1887 119.675 82.4609 114.825 82.4609 114.825C81.3042 114.441 79.6712 110.975 79.6712 110.975C78.9033 111.267 77.8146 108.861 77.8146 108.861C76.9203 109.619 76.4197 111.86 76.1572 114.567Z" fill="black" fill-opacity="0.7"/>
<path opacity="0.2" d="M91.4622 118.042C91.2755 116.508 91.4129 114.951 91.8656 113.474L91.783 113.58C91.783 113.58 91.0248 112.399 89.8389 110.664C89.5036 112.919 89.3432 116.701 91.4622 118.042Z" fill="black" fill-opacity="0.7"/>
<path d="M75.759 96.0984C80.6192 96.1713 91.7977 113.595 91.7977 113.595L98.8207 104.847L100.765 100.793C100.765 100.793 101.737 108.084 107.516 106.072C107.516 106.072 102.427 125.211 96.7163 127.52C91.0055 129.828 75.1709 113.595 75.1709 113.595L75.759 96.0984Z" stroke="#263238" stroke-linecap="round" stroke-linejoin="round"/>
<path d="M25.3874 171.067C25.3874 171.067 22.3109 177.264 22.3109 178.722C22.3109 180.18 21.7957 180.836 19.1031 180.836C16.4106 180.836 9.74719 180.894 8.72169 180.418H2.49088C1.03282 180.418 0.439869 179.018 1.33415 179.208C2.22843 179.398 8.84319 177.57 10.6415 176.831C12.4398 176.093 15.3948 175.218 16.9889 173.677C18.5831 172.136 20.5126 166.387 20.5126 166.387L25.3874 171.067Z" fill="white" stroke="#263238" stroke-linecap="round" stroke-linejoin="round"/>
<path d="M8.72168 180.413C8.72168 178.605 10.6658 179.47 13.5819 178.717C15.4628 178.231 15.6621 177.575 15.6621 177.575" stroke="#263238" stroke-linecap="round" stroke-linejoin="round"/>
<path d="M77.7368 107.277C77.9312 110.815 78.0138 114.489 78.1548 117.23C78.5047 123.855 82.9372 143.218 82.9372 143.218C82.9372 143.218 87.7975 146.134 88.0405 151.48C88.2835 156.827 58.5827 171.893 50.6168 167.597C42.6509 163.3 43.7201 150.819 43.7201 150.819C43.7201 150.819 31.9292 103.189 36.7554 99.3594C41.5816 95.5295 43.2098 96.0058 55.5645 94.295C67.9192 92.5842 75.7587 96.0982 75.7587 96.0982C76.46 96.7761 76.951 97.6417 77.173 98.5915" fill="#92E3A9"/>
<path opacity="0.2" d="M43.7156 150.79C43.7156 150.79 42.6414 163.271 50.6122 167.568C58.583 171.864 88.2983 156.793 88.0359 151.451C87.7734 146.11 82.9375 143.189 82.9375 143.189C82.9375 143.189 82.5001 141.269 81.8829 138.436C77.669 141.167 68.0653 146.834 61.815 146.212C61.815 146.212 72.2207 149.901 78.8744 146.732C85.528 143.563 76.1089 150.902 74.1891 150.786C72.2693 150.669 57.9414 148.078 55.3461 149.425C52.7507 150.771 46.9816 160.671 46.9816 160.671C46.9816 160.671 43.4823 152.807 44.2599 147.981C44.2599 147.981 44.362 132.953 42.69 124.166C42.69 124.166 46.69 117.265 42.2672 111.904C40.6342 109.926 38.8651 113.999 37.2515 119.923C39.633 134.29 43.7156 150.79 43.7156 150.79Z" fill="black" fill-opacity="0.7"/>
<path d="M77.7368 107.277C77.9312 110.815 78.0138 114.489 78.1548 117.23C78.5047 123.855 82.9372 143.218 82.9372 143.218C82.9372 143.218 87.7975 146.134 88.0405 151.48C88.2835 156.827 58.5827 171.893 50.6168 167.597C42.6509 163.3 43.7201 150.819 43.7201 150.819C43.7201 150.819 31.9292 103.189 36.7554 99.3594C41.5816 95.5295 43.2098 96.0058 55.5645 94.295C67.9192 92.5842 75.7587 96.0982 75.7587 96.0982C76.46 96.7761 76.951 97.6417 77.173 98.5915" stroke="#263238" stroke-linecap="round" stroke-linejoin="round"/>
<path d="M83.7097 147.762C84.4582 147.665 86.4849 148.948 86.4849 148.948C86.4849 148.948 119.262 140.53 124.19 143.204C134.081 148.55 128.808 159.13 126.757 162.158C124.706 165.186 94.4459 179.519 83.943 179.791C73.4401 180.063 54.1742 177.162 50.4075 170.975C46.6408 164.788 50.495 157.925 55.7537 152.89C61.1 147.762 71.5883 152.248 75.1946 151.223C79.8021 149.901 81.4205 148.049 83.7097 147.762Z" fill="#263238"/>
<path d="M56.2936 176.559L55.8076 178.673C55.8076 178.673 57.0956 182.333 62.7675 182.926C68.4393 183.519 71.7929 184.783 74.5146 184.943C75.9506 185.055 77.3939 185.032 78.8256 184.875L79.3797 184.068L56.2936 176.559Z" fill="white" stroke="#263238" stroke-linecap="round" stroke-linejoin="round"/>
<path d="M89.2021 176.335L79.3796 184.068C74.6416 183.666 69.9339 182.963 65.285 181.964C60.6337 180.885 56.5706 179.339 56.347 177.225C56.0068 174.002 59.443 173.123 63.5353 173.249C64.2983 173.249 65.0808 173.322 65.873 173.405C72.4198 174.109 80.7356 170.489 80.7356 170.489L89.2021 176.335Z" fill="#92E3A9"/>
<path opacity="0.2" d="M56.3566 177.123C58.2635 177.833 60.0938 178.733 61.8195 179.811C61.8195 179.811 70.9421 184.506 84.959 179.67L89.2068 176.336L80.7501 170.46C80.7501 170.46 72.4342 174.076 65.8875 173.376C65.0953 173.293 64.3128 173.235 63.5497 173.22C59.4915 173.094 56.0747 173.959 56.3566 177.123Z" fill="black" fill-opacity="0.7"/>
<path d="M89.2021 176.335L79.3796 184.068C74.6416 183.666 69.9339 182.963 65.285 181.964V181.964C60.6337 180.885 56.5706 179.339 56.347 177.225C56.0068 174.002 59.443 173.123 63.5353 173.249C64.2983 173.249 65.0808 173.322 65.873 173.405C72.4198 174.109 80.7356 170.489 80.7356 170.489L89.2021 176.335Z" stroke="#263238" stroke-linecap="round" stroke-linejoin="round"/>
<path d="M80.0503 179.373C81.8195 179.66 79.8754 183.286 77.4744 182.182C75.0735 181.079 78.2764 179.086 80.0503 179.373Z" fill="white"/>
<path opacity="0.2" d="M76.7263 181.599C78.0086 181.443 79.282 181.22 80.5415 180.933C80.8817 180.224 80.804 179.475 80.0555 179.373C78.5634 179.13 76.0653 180.501 76.7263 181.599Z" fill="black" fill-opacity="0.7"/>
<path d="M80.0503 179.373C81.8195 179.66 79.8754 183.286 77.4744 182.182C75.0735 181.079 78.2764 179.086 80.0503 179.373Z" stroke="#263238" stroke-linecap="round" stroke-linejoin="round"/>
<path d="M65.285 181.934C60.6337 180.855 56.5706 179.31 56.347 177.196C56.0068 173.973 59.443 173.094 63.5353 173.22C63.7297 173.376 67.7151 177.225 65.285 181.934Z" fill="white"/>
<path opacity="0.2" d="M56.3566 177.123C58.2635 177.833 60.0938 178.733 61.8195 179.811C63.0482 180.378 64.3359 180.809 65.6591 181.094C67.2289 176.778 63.715 173.381 63.5497 173.22C59.4915 173.094 56.0747 173.959 56.3566 177.123Z" fill="black" fill-opacity="0.7"/>
<path d="M65.285 181.934C60.6337 180.855 56.5706 179.31 56.347 177.196C56.0068 173.973 59.443 173.094 63.5353 173.22C63.7297 173.376 67.7151 177.225 65.285 181.934Z" stroke="#263238" stroke-linecap="round" stroke-linejoin="round"/>
<path d="M68.619 177.934H68.5899C68.4651 177.935 68.345 177.887 68.2545 177.801C68.164 177.715 68.1101 177.597 68.1038 177.473C68.0066 175.441 66.4416 173.794 66.4271 173.774C66.349 173.68 66.3096 173.559 66.3167 173.436C66.3239 173.314 66.3771 173.199 66.4657 173.114C66.5542 173.029 66.6716 172.981 66.7942 172.979C66.9169 172.977 67.0357 173.021 67.1269 173.103C67.2047 173.181 68.9592 175.023 69.071 177.424C69.0777 177.551 69.0341 177.676 68.9495 177.772C68.8649 177.867 68.7463 177.926 68.619 177.934Z" fill="white" stroke="#263238" stroke-linecap="round" stroke-linejoin="round"/>
<path d="M70.5632 178.051H70.5243C70.3954 178.051 70.2718 178 70.1806 177.909C70.0895 177.818 70.0383 177.694 70.0383 177.565C69.9945 175.514 68.5802 173.74 68.551 173.721C68.4785 173.621 68.4468 173.497 68.4624 173.374C68.4781 173.252 68.5399 173.139 68.6353 173.061C68.7307 172.982 68.8525 172.943 68.9759 172.951C69.0993 172.959 69.215 173.013 69.2995 173.104C70.3025 174.379 70.8986 175.927 71.0103 177.546C71.0157 177.672 70.9722 177.795 70.8888 177.889C70.8054 177.983 70.6886 178.042 70.5632 178.051Z" fill="white" stroke="#263238" stroke-linecap="round" stroke-linejoin="round"/>
<path d="M72.8914 177.808C72.7632 177.819 72.6359 177.779 72.5375 177.696C72.4391 177.613 72.3776 177.494 72.3665 177.366C72.2158 175.665 70.7675 173.478 70.7529 173.478C70.7132 173.425 70.6846 173.365 70.669 173.3C70.6534 173.236 70.6511 173.169 70.6621 173.104C70.6732 173.039 70.6975 172.977 70.7334 172.921C70.7693 172.866 70.8162 172.818 70.8711 172.782C70.9261 172.745 70.9879 172.72 71.0529 172.708C71.1179 172.696 71.1847 172.697 71.2491 172.712C71.3136 172.726 71.3744 172.754 71.4278 172.793C71.4812 172.832 71.526 172.881 71.5597 172.938C71.6277 173.036 73.1635 175.339 73.3337 177.313C73.3366 177.436 73.2926 177.556 73.2104 177.648C73.1283 177.74 73.0142 177.797 72.8914 177.808Z" fill="white" stroke="#263238" stroke-linecap="round" stroke-linejoin="round"/>
<path d="M75.088 177.575C75.0446 177.582 75.0002 177.582 74.9568 177.575C74.8299 177.553 74.7167 177.483 74.642 177.378C74.5673 177.273 74.5372 177.143 74.5582 177.016C74.9033 174.95 72.9884 173.181 72.969 173.167C72.8729 173.08 72.8151 172.959 72.8083 172.83C72.8015 172.701 72.8461 172.575 72.9325 172.479C73.0189 172.383 73.1398 172.325 73.2688 172.318C73.3978 172.311 73.5242 172.356 73.6202 172.443C73.7126 172.53 75.9531 174.581 75.5206 177.176C75.5019 177.281 75.4495 177.377 75.3714 177.449C75.2933 177.52 75.1938 177.565 75.088 177.575Z" fill="white" stroke="#263238" stroke-linecap="round" stroke-linejoin="round"/>
<path d="M77.4796 177.001C77.4264 177.009 77.3724 177.009 77.3192 177.001C77.2569 176.987 77.1981 176.961 77.1461 176.923C77.0941 176.886 77.0499 176.839 77.016 176.785C76.9822 176.731 76.9593 176.671 76.9488 176.608C76.9383 176.545 76.9403 176.48 76.9547 176.418C77.3775 174.576 75.5646 172.496 75.5452 172.476C75.4988 172.43 75.4623 172.374 75.4381 172.312C75.414 172.251 75.4025 172.185 75.4045 172.119C75.4065 172.053 75.4219 171.989 75.4498 171.929C75.4777 171.869 75.5175 171.816 75.5667 171.772C75.6159 171.728 75.6735 171.694 75.7361 171.673C75.7987 171.652 75.8648 171.644 75.9306 171.65C75.9963 171.655 76.0603 171.674 76.1185 171.705C76.1768 171.736 76.2281 171.779 76.2694 171.83C76.3617 171.932 78.437 174.304 77.9024 176.637C77.8779 176.734 77.8242 176.821 77.7486 176.886C77.6729 176.951 77.579 176.991 77.4796 177.001Z" fill="white" stroke="#263238" stroke-linecap="round" stroke-linejoin="round"/>
<path d="M127.981 173.376L128.686 175.427C128.686 175.427 127.787 179.203 122.212 180.394C116.638 181.585 113.43 183.184 110.737 183.631C109.322 183.894 107.885 184.022 106.446 184.015L105.804 183.247L127.981 173.376Z" fill="white" stroke="#263238" stroke-linecap="round" stroke-linejoin="round"/>
<path d="M95.2432 176.632L105.819 183.266C110.484 182.368 115.088 181.175 119.603 179.694C124.118 178.134 127.996 176.17 127.996 174.042C127.996 170.805 124.482 170.29 120.429 170.844C119.671 170.941 118.898 171.082 118.12 171.247C111.685 172.632 103.054 169.91 103.054 169.91L95.2432 176.632Z" fill="#92E3A9"/>
<path opacity="0.2" d="M95.2432 176.632L101.464 180.52C106.508 178.958 110.931 175.844 114.101 171.621C110.353 171.541 106.632 170.959 103.039 169.891L95.2432 176.632Z" fill="black" fill-opacity="0.7"/>
<path d="M95.2432 176.632L105.819 183.266C110.484 182.368 115.088 181.175 119.603 179.694V179.694C124.118 178.134 127.996 176.17 127.996 174.042C127.996 170.805 124.482 170.29 120.429 170.844C119.671 170.941 118.898 171.082 118.12 171.247C111.685 172.632 103.054 169.91 103.054 169.91L95.2432 176.632Z" stroke="#263238" stroke-linecap="round" stroke-linejoin="round"/>
<path d="M119.603 179.694C124.118 178.134 127.996 176.17 127.996 174.041C127.996 170.805 124.482 170.289 120.429 170.843C120.269 171.028 116.73 175.257 119.603 179.694Z" fill="white" stroke="#263238" stroke-linecap="round" stroke-linejoin="round"/>
<path d="M115.88 176.064H115.909C115.973 176.06 116.035 176.044 116.093 176.016C116.15 175.988 116.202 175.949 116.244 175.901C116.287 175.853 116.319 175.797 116.34 175.737C116.361 175.676 116.37 175.612 116.366 175.548C116.249 173.522 117.629 171.714 117.644 171.699C117.683 171.649 117.712 171.591 117.729 171.529C117.746 171.468 117.751 171.403 117.743 171.34C117.735 171.277 117.715 171.215 117.683 171.16C117.651 171.104 117.609 171.055 117.559 171.016C117.508 170.977 117.451 170.948 117.389 170.931C117.328 170.914 117.263 170.909 117.2 170.917C117.136 170.925 117.075 170.946 117.02 170.977C116.964 171.009 116.915 171.051 116.876 171.101C116.808 171.184 115.257 173.206 115.418 175.602C115.424 175.722 115.474 175.836 115.56 175.922C115.645 176.007 115.759 176.058 115.88 176.064Z" fill="white" stroke="#263238" stroke-linecap="round" stroke-linejoin="round"/>
<path d="M113.96 176.384H113.999C114.127 176.373 114.245 176.312 114.328 176.213C114.411 176.115 114.452 175.988 114.441 175.859C114.403 174.457 114.778 173.075 115.52 171.884C115.555 171.83 115.58 171.77 115.592 171.707C115.604 171.644 115.603 171.579 115.59 171.517C115.577 171.454 115.552 171.394 115.515 171.341C115.479 171.288 115.433 171.243 115.379 171.208C115.271 171.138 115.14 171.114 115.015 171.14C114.889 171.167 114.779 171.242 114.708 171.349C113.844 172.721 113.414 174.322 113.474 175.942C113.485 176.063 113.541 176.176 113.631 176.258C113.721 176.34 113.838 176.385 113.96 176.384Z" fill="white" stroke="#263238" stroke-linecap="round" stroke-linejoin="round"/>
<path d="M111.617 176.384C111.746 176.384 111.87 176.333 111.961 176.242C112.052 176.151 112.103 176.027 112.103 175.898C112.074 174.187 113.284 171.869 113.299 171.845C113.33 171.788 113.35 171.726 113.357 171.661C113.364 171.597 113.358 171.532 113.34 171.47C113.321 171.408 113.29 171.35 113.249 171.3C113.208 171.25 113.157 171.208 113.1 171.178C113.043 171.148 112.98 171.13 112.915 171.124C112.851 171.119 112.786 171.126 112.724 171.146C112.662 171.166 112.605 171.198 112.556 171.241C112.507 171.283 112.467 171.335 112.438 171.393C112.385 171.495 111.097 173.954 111.131 175.913C111.135 176.039 111.188 176.159 111.278 176.247C111.369 176.335 111.491 176.384 111.617 176.384Z" fill="white" stroke="#263238" stroke-linecap="round" stroke-linejoin="round"/>
<path d="M109.406 176.384C109.45 176.389 109.494 176.389 109.537 176.384C109.599 176.367 109.657 176.338 109.707 176.299C109.757 176.26 109.8 176.211 109.831 176.156C109.863 176.1 109.883 176.039 109.891 175.976C109.899 175.912 109.894 175.848 109.877 175.786C109.319 173.769 111.039 171.811 111.054 171.791C111.14 171.696 111.185 171.57 111.178 171.441C111.172 171.313 111.115 171.192 111.02 171.106C110.972 171.062 110.917 171.029 110.856 171.007C110.796 170.985 110.732 170.976 110.667 170.979C110.603 170.982 110.54 170.998 110.482 171.026C110.424 171.053 110.372 171.092 110.329 171.14C110.247 171.237 108.235 173.512 108.939 176.044C108.971 176.143 109.033 176.23 109.117 176.291C109.201 176.352 109.302 176.385 109.406 176.384Z" fill="white" stroke="#263238" stroke-linecap="round" stroke-linejoin="round"/>
<path d="M106.971 176.063C107.026 176.063 107.08 176.053 107.132 176.034C107.253 175.992 107.353 175.904 107.41 175.788C107.466 175.672 107.475 175.539 107.433 175.417C106.82 173.633 108.405 171.373 108.405 171.349C108.467 171.244 108.487 171.12 108.462 171.001C108.437 170.882 108.369 170.777 108.27 170.706C108.171 170.635 108.049 170.604 107.928 170.619C107.808 170.633 107.697 170.693 107.618 170.785C107.54 170.897 105.722 173.473 106.5 175.733C106.533 175.831 106.596 175.916 106.681 175.975C106.766 176.035 106.868 176.066 106.971 176.063Z" fill="white" stroke="#263238" stroke-linecap="round" stroke-linejoin="round"/>
<path d="M104.653 178.693C102.922 179.179 105.236 182.581 107.505 181.215C109.775 179.85 106.397 178.236 104.653 178.693Z" fill="white" stroke="#263238" stroke-linecap="round" stroke-linejoin="round"/>
<path d="M58.4809 150.324C64.8867 149.201 81.9023 158.153 92.3275 164.117C93.3509 163.549 94.3262 162.899 95.2436 162.173C97.6446 160.034 106.806 148.258 113.124 145.565L124.663 160.661C122.062 164.302 114.369 168.321 106.68 171.636C105.31 173.9 103.696 176.007 101.868 177.92C97.1488 182.78 95.2242 180.054 95.2242 180.054C95.2242 180.054 92.24 179.718 87.8366 179.116C87.6572 179.542 87.3412 179.896 86.9382 180.123C86.5352 180.35 86.0682 180.437 85.6107 180.369C85.0372 180.277 83.9339 179.461 82.6945 178.377C71.5744 176.705 56.4882 173.915 52.4105 170.63C45.7666 165.274 52.7993 151.315 58.4809 150.324Z" fill="#263238"/>
<path d="M41.285 107.277C42.4903 111.165 42.5875 116.735 41.6009 121.08C41.6009 121.08 37.285 140.171 36.7407 144.326C36.1964 148.482 28.9109 164.627 28.5269 169.905L25.1685 174.737C25.1685 174.737 20.2597 174.367 16.9888 170.644L19.2974 165.526C19.2974 165.526 21.4116 157.658 22.1795 156.564C22.9474 155.471 25.4747 140.627 26.3252 138.202C27.1758 135.777 32.2887 103.452 36.7504 99.3205C36.7504 99.3205 37.9412 99.2233 38.4272 100.161" fill="#92E3A9"/>
<path d="M41.285 107.277C42.4903 111.165 42.5875 116.735 41.6009 121.08C41.6009 121.08 37.285 140.171 36.7407 144.326C36.1964 148.482 28.9109 164.627 28.5269 169.905L25.1685 174.737C25.1685 174.737 20.2597 174.367 16.9888 170.644L19.2974 165.526C19.2974 165.526 21.4116 157.658 22.1795 156.564C22.9474 155.471 25.4747 140.628 26.3252 138.202C27.1758 135.777 32.2887 103.452 36.7504 99.3205C36.7504 99.3205 37.9412 99.2233 38.4272 100.161" stroke="#263238" stroke-linecap="round" stroke-linejoin="round"/>
<path d="M106.169 168.734C103.894 167.791 100.628 168.734 100.628 168.734C100.628 168.734 89.9017 164.064 82.5531 159.617C75.2044 155.169 64.6723 151.84 64.6723 151.84C60.6335 151.553 58.7137 151.646 56.7891 153.784" stroke="white" stroke-linecap="round" stroke-linejoin="round"/>
<path d="M51.8853 166.382C51.8853 166.382 51.8318 169.638 56.449 171.898" stroke="white" stroke-linecap="round" stroke-linejoin="round"/>
<path d="M102.839 152.793C102.839 152.793 95.5492 158.066 94.0911 161.541C92.6574 162.143 91.2729 162.857 89.9502 163.675" stroke="white" stroke-linecap="round" stroke-linejoin="round"/>
<path d="M93.5616 157.177C93.0231 158.691 92.9337 160.328 93.304 161.891" stroke="white" stroke-linecap="round" stroke-linejoin="round"/>
<path d="M95.2437 153.755C94.8468 154.333 94.4973 154.943 94.1987 155.578" stroke="white" stroke-linecap="round" stroke-linejoin="round"/>
<path d="M84.8623 153.274C84.8623 153.274 82.4322 156.53 81.8149 159.179" stroke="white" stroke-linecap="round" stroke-linejoin="round"/>
<path d="M71.2775 172.982C70.3689 172.93 69.4646 172.82 68.5703 172.652" stroke="white" stroke-linecap="round" stroke-linejoin="round"/>
<path d="M94.1545 170.644C87.2445 172.021 80.234 172.833 73.1924 173.074" stroke="white" stroke-linecap="round" stroke-linejoin="round"/>
<path d="M91.7827 113.595C91.367 114.395 91.1499 115.284 91.1499 116.185C91.1499 117.087 91.367 117.976 91.7827 118.776" stroke="#263238" stroke-linecap="round" stroke-linejoin="round"/>
<path d="M53.2612 99.0144C56.6148 101.095 61.3195 102.854 64.8383 100.152" stroke="#263238" stroke-linecap="round" stroke-linejoin="round"/>
<path d="M50.6118 97.1284C51.0687 97.5172 51.545 97.8769 52.031 98.222" stroke="#263238" stroke-linecap="round" stroke-linejoin="round"/>
<path d="M79.4575 110.095C79.2582 111.947 79.0881 114.154 78.0918 115.777" stroke="#263238" stroke-linecap="round" stroke-linejoin="round"/>
<path d="M79.6709 107.418C79.6709 107.904 79.6077 108.424 79.5688 108.929" stroke="#263238" stroke-linecap="round" stroke-linejoin="round"/>
<path d="M81.479 115.777C81.479 115.777 80.3174 117.007 78.1206 116.443" stroke="#263238" stroke-linecap="round" stroke-linejoin="round"/>
<path d="M44.0992 110.97C44.0992 110.97 43.9534 118.951 41.2852 122.46" stroke="#263238" stroke-linecap="round" stroke-linejoin="round"/>
<path d="M59.2876 145.672L57.3921 145.22" stroke="#263238" stroke-linecap="round" stroke-linejoin="round"/>
<path d="M82.9371 143.204C80.2105 143.242 77.7804 145.187 75.3503 147.131C70.49 150.047 65.6298 146.159 60.5752 145.94" stroke="#263238" stroke-linecap="round" stroke-linejoin="round"/>
<path d="M45.2512 141.668C44.8283 144.725 44.3617 147.777 43.7153 150.79" stroke="#263238" stroke-linecap="round" stroke-linejoin="round"/>
<path d="M45.7321 137.896C45.6495 138.635 45.5572 139.354 45.46 140.108" stroke="#263238" stroke-linecap="round" stroke-linejoin="round"/>
<path d="M72.3905 127.257C69.3237 132.467 64.9204 138.411 58.7139 139.894" stroke="#263238" stroke-linecap="round" stroke-linejoin="round"/>
<path d="M75.7296 120.584C74.9723 122.425 74.1039 124.219 73.1294 125.955" stroke="#263238" stroke-linecap="round" stroke-linejoin="round"/>
<path d="M35.968 117.619C33.6399 123.316 31.2633 130.12 27.0835 134.776" stroke="#263238" stroke-linecap="round" stroke-linejoin="round"/>
<path d="M37.5814 113.595C37.2606 114.446 36.9253 115.296 36.6094 116.147" stroke="#263238" stroke-linecap="round" stroke-linejoin="round"/>
<path d="M30.063 151.714C30.063 151.714 24.4883 156.297 22.1797 156.574" stroke="#263238" stroke-linecap="round" stroke-linejoin="round"/>
<path d="M20.6826 171.174C19.628 170.596 18.3837 169.867 17.8491 168.744" stroke="#263238" stroke-linecap="round" stroke-linejoin="round"/>
<path d="M24.5222 172.86C23.6863 172.569 22.8649 172.233 22.0581 171.864" stroke="#263238" stroke-linecap="round" stroke-linejoin="round"/>
<path d="M101.294 108.472C101.898 109.097 102.678 109.522 103.53 109.692" stroke="#263238" stroke-linecap="round" stroke-linejoin="round"/>
<path d="M98.8203 104.847C99.2007 105.672 99.6614 106.459 100.196 107.194" stroke="#263238" stroke-linecap="round" stroke-linejoin="round"/>
<path d="M51.3311 95.0338C51.3311 95.0338 54.7332 99.9378 60.5655 99.2671C63.7829 98.8928 63.4524 96.4141 63.4524 96.4141C62.9958 96.1226 62.6528 95.6835 62.4804 95.1699C62.1353 94.2902 61.9944 92.8564 62.806 90.6159C62.806 90.5527 62.8498 90.4846 62.8741 90.4215C63.7878 87.9914 52.7794 84.5552 52.7794 84.5552C52.7794 84.5552 54.1062 90.9026 51.3311 95.0338Z" fill="white" stroke="#263238" stroke-linecap="round" stroke-linejoin="round"/>
<path d="M56.6631 88.9246C56.6631 88.9246 58.7044 94.0132 62.4953 95.1699C62.1503 94.2902 62.0093 92.8565 62.821 90.6159L56.6631 88.9246Z" fill="#263238"/>
<path d="M55.6566 87.729C55.399 89.9113 60.9591 93.2114 64.2155 93.2016C65.7027 93.2016 67.7634 90.3292 68.6383 86.096C69.0757 83.9575 67.7683 81.8627 68.8278 78.8834C69.7318 76.3367 67.9627 68.7401 60.4634 68.118C49.7466 67.2286 48.4975 78.7182 53.2459 86.4702" fill="white"/>
<path d="M55.6566 87.729C55.399 89.9113 60.9591 93.2114 64.2155 93.2016C65.7027 93.2016 67.7634 90.3292 68.6383 86.096C69.0757 83.9575 67.7683 81.8627 68.8278 78.8834C69.7318 76.3367 67.9627 68.7401 60.4634 68.118C49.7466 67.2286 48.4975 78.7182 53.2459 86.4702" stroke="#263238" stroke-linecap="round" stroke-linejoin="round"/>
<path d="M69.0469 78.3098C68.7551 77.9072 68.3505 77.6 67.8843 77.427C67.4181 77.254 66.9111 77.223 66.4272 77.3378" stroke="#263238" stroke-linecap="round" stroke-linejoin="round"/>
<path d="M62.855 77.2794C62.855 77.2794 60.6436 77.0558 59.2974 78.3097" stroke="#263238" stroke-linecap="round" stroke-linejoin="round"/>
<path d="M65.8488 78.7861C65.6544 80.9975 68.1574 84.701 67.5304 85.2308C66.9035 85.7605 65.4163 85.0364 64.8379 84.7448" stroke="#263238" stroke-linecap="round" stroke-linejoin="round"/>
<path d="M61.956 81.3377C62.1949 81.3377 62.3886 81.0678 62.3886 80.735C62.3886 80.4022 62.1949 80.1323 61.956 80.1323C61.7171 80.1323 61.5234 80.4022 61.5234 80.735C61.5234 81.0678 61.7171 81.3377 61.956 81.3377Z" fill="#263238"/>
<path d="M67.1996 81.3377C67.4385 81.3377 67.6322 81.0678 67.6322 80.735C67.6322 80.4022 67.4385 80.1323 67.1996 80.1323C66.9608 80.1323 66.7671 80.4022 66.7671 80.735C66.7671 81.0678 66.9608 81.3377 67.1996 81.3377Z" fill="#263238"/>
<path d="M65.8 87.5832C65.8 87.5832 63.2532 87.9234 61.9556 86.5771" stroke="#263238" stroke-linecap="round" stroke-linejoin="round"/>
<path d="M62.3687 86.9368C62.435 87.3145 62.6116 87.6642 62.8763 87.9418C63.1409 88.2194 63.4817 88.4125 63.8559 88.4969C65.2022 88.8322 65.1536 87.6221 65.1536 87.6221" stroke="#263238" stroke-linecap="round" stroke-linejoin="round"/>
<path d="M58.5875 73.0219C58.5875 73.0219 70.5096 76.288 71.7587 71.2431C71.7587 71.2431 69.591 71.5007 67.1998 68.8859C64.2837 65.6781 59.5498 64.847 55.5596 66.2905C51.5693 67.734 51.8123 69.8239 51.8123 69.8239C51.8123 69.8239 49.4551 70.1349 48.4102 72.9733C47.3652 75.8117 49.0226 85.8383 53.0225 87.9671L54.1307 86.5771C54.1307 86.5771 53.6884 83.7144 55.5887 81.5759L56.6483 81.8481C56.6483 81.8481 55.4964 79.3694 56.6969 78.0182C57.9539 76.6626 58.6322 74.87 58.5875 73.0219Z" fill="#263238"/>
<path d="M55.5644 81.3378C55.5644 81.3378 54.3639 77.8773 52.8281 78.7862C51.2923 79.695 52.969 86.3341 55.5644 84.8469" fill="white"/>
<path d="M55.5644 81.3378C55.5644 81.3378 54.3639 77.8773 52.8281 78.7862C51.2923 79.695 52.969 86.3341 55.5644 84.8469" stroke="#263238" stroke-linecap="round" stroke-linejoin="round"/>
<path opacity="0.3" d="M55.5645 70.2127C55.5645 70.2127 62.9763 71.4617 65.178 68.4824" stroke="white" stroke-linecap="round" stroke-linejoin="round"/>
<path opacity="0.3" d="M60.3662 71.9429C60.3662 71.9429 65.518 73.6731 69.0466 71.9429" stroke="white" stroke-linecap="round" stroke-linejoin="round"/>
<path opacity="0.3" d="M53.8974 72.7107C53.8974 72.7107 53.8245 76.9828 49.8828 78.3097" stroke="white" stroke-linecap="round" stroke-linejoin="round"/>
</svg>
