<svg width="577" height="268" viewBox="0 0 577 268" fill="none" xmlns="http://www.w3.org/2000/svg">
<path d="M265.84 70.072H259.68V60.776H276.816V103H265.84V70.072Z" fill="#0B3A08"/>
<path d="M291.297 66.5312L289.117 67.6914C288.773 66.9883 288.348 66.6367 287.84 66.6367C287.598 66.6367 287.391 66.7188 287.219 66.8828C287.047 67.0391 286.961 67.2422 286.961 67.4922C286.961 67.9297 287.469 68.3633 288.484 68.793C289.883 69.3945 290.824 69.9492 291.309 70.457C291.793 70.9648 292.035 71.6484 292.035 72.5078C292.035 73.6094 291.629 74.5312 290.816 75.2734C290.027 75.9766 289.074 76.3281 287.957 76.3281C286.043 76.3281 284.688 75.3945 283.891 73.5273L286.141 72.4844C286.453 73.0312 286.691 73.3789 286.855 73.5273C287.176 73.8242 287.559 73.9727 288.004 73.9727C288.895 73.9727 289.34 73.5664 289.34 72.7539C289.34 72.2852 288.996 71.8477 288.309 71.4414C288.043 71.3086 287.777 71.1797 287.512 71.0547C287.246 70.9297 286.977 70.8008 286.703 70.668C285.938 70.293 285.398 69.918 285.086 69.543C284.688 69.0664 284.488 68.4531 284.488 67.7031C284.488 66.7109 284.828 65.8906 285.508 65.2422C286.203 64.5938 287.047 64.2695 288.039 64.2695C289.5 64.2695 290.586 65.0234 291.297 66.5312ZM297.133 67.0469V76H294.496V67.0469H293.371V64.5859H294.496V60.4023H297.133V64.5859H299.184V67.0469H297.133Z" fill="#0B3A08"/>
<path d="M148.96 237.216H144.304L143.68 241.824H148.336L148.96 237.216ZM160.48 241.824V248.064H154.72L153.424 258H146.272L147.568 248.064H142.912L141.616 258H134.512L135.856 248.064H130.864V241.824H136.624L137.2 237.216H132.304V231.024H138.016L139.216 221.808H146.272L145.072 231.024H149.728L150.976 221.808H158.08L156.88 231.024H161.776V237.216H156.112L155.488 241.824H160.48ZM175.345 229.776H170.065V221.808H184.753V258H175.345V229.776ZM199.32 248.832H207.48L198.648 264.72H193.08L199.32 248.832ZM236.849 229.776H224.321L223.697 233.76C224.273 233.696 224.801 233.648 225.281 233.616C225.761 233.552 226.257 233.52 226.769 233.52C228.593 233.52 230.289 233.84 231.857 234.48C233.425 235.12 234.769 236 235.889 237.12C237.009 238.24 237.889 239.584 238.529 241.152C239.169 242.72 239.489 244.432 239.489 246.288C239.489 248.24 239.121 250 238.385 251.568C237.681 253.136 236.673 254.48 235.361 255.6C234.049 256.688 232.449 257.52 230.561 258.096C228.673 258.704 226.577 259.008 224.273 259.008C222.097 259.008 220.017 258.736 218.033 258.192C216.081 257.68 214.241 256.88 212.513 255.792L213.905 246.96C215.505 248.336 217.137 249.392 218.801 250.128C220.465 250.832 222.049 251.184 223.553 251.184C225.473 251.184 226.993 250.672 228.113 249.648C229.233 248.592 229.793 247.296 229.793 245.76C229.793 243.968 229.041 242.528 227.537 241.44C226.033 240.32 224.065 239.76 221.633 239.76C220.545 239.76 219.425 239.888 218.273 240.144C217.121 240.368 215.985 240.736 214.865 241.248L217.889 221.808H236.849V229.776ZM252.866 239.856C252.866 241.456 253.01 242.912 253.298 244.224C253.586 245.536 253.986 246.672 254.498 247.632C255.042 248.592 255.682 249.344 256.418 249.888C257.154 250.4 257.986 250.656 258.914 250.656C259.81 250.656 260.626 250.4 261.362 249.888C262.13 249.344 262.77 248.592 263.282 247.632C263.794 246.672 264.194 245.536 264.482 244.224C264.77 242.912 264.914 241.456 264.914 239.856C264.914 238.288 264.77 236.848 264.482 235.536C264.194 234.192 263.794 233.056 263.282 232.128C262.77 231.168 262.13 230.432 261.362 229.92C260.626 229.376 259.81 229.104 258.914 229.104C257.986 229.104 257.154 229.376 256.418 229.92C255.682 230.432 255.042 231.168 254.498 232.128C253.986 233.056 253.586 234.192 253.298 235.536C253.01 236.848 252.866 238.288 252.866 239.856ZM243.554 239.856C243.554 236.976 243.922 234.368 244.658 232.032C245.426 229.664 246.482 227.648 247.826 225.984C249.202 224.32 250.818 223.04 252.674 222.144C254.562 221.216 256.642 220.752 258.914 220.752C261.154 220.752 263.218 221.216 265.106 222.144C266.994 223.04 268.61 224.32 269.954 225.984C271.298 227.648 272.338 229.664 273.074 232.032C273.842 234.368 274.226 236.976 274.226 239.856C274.226 242.736 273.842 245.36 273.074 247.728C272.338 250.064 271.298 252.08 269.954 253.776C268.61 255.44 266.994 256.736 265.106 257.664C263.218 258.56 261.154 259.008 258.914 259.008C256.642 259.008 254.562 258.56 252.674 257.664C250.818 256.736 249.202 255.44 247.826 253.776C246.482 252.08 245.426 250.064 244.658 247.728C243.922 245.36 243.554 242.736 243.554 239.856ZM285.491 239.856C285.491 241.456 285.635 242.912 285.923 244.224C286.211 245.536 286.611 246.672 287.123 247.632C287.667 248.592 288.307 249.344 289.043 249.888C289.779 250.4 290.611 250.656 291.539 250.656C292.435 250.656 293.251 250.4 293.987 249.888C294.755 249.344 295.395 248.592 295.907 247.632C296.419 246.672 296.819 245.536 297.107 244.224C297.395 242.912 297.539 241.456 297.539 239.856C297.539 238.288 297.395 236.848 297.107 235.536C296.819 234.192 296.419 233.056 295.907 232.128C295.395 231.168 294.755 230.432 293.987 229.92C293.251 229.376 292.435 229.104 291.539 229.104C290.611 229.104 289.779 229.376 289.043 229.92C288.307 230.432 287.667 231.168 287.123 232.128C286.611 233.056 286.211 234.192 285.923 235.536C285.635 236.848 285.491 238.288 285.491 239.856ZM276.179 239.856C276.179 236.976 276.547 234.368 277.283 232.032C278.051 229.664 279.107 227.648 280.451 225.984C281.827 224.32 283.443 223.04 285.299 222.144C287.187 221.216 289.267 220.752 291.539 220.752C293.779 220.752 295.843 221.216 297.731 222.144C299.619 223.04 301.235 224.32 302.579 225.984C303.923 227.648 304.963 229.664 305.699 232.032C306.467 234.368 306.851 236.976 306.851 239.856C306.851 242.736 306.467 245.36 305.699 247.728C304.963 250.064 303.923 252.08 302.579 253.776C301.235 255.44 299.619 256.736 297.731 257.664C295.843 258.56 293.779 259.008 291.539 259.008C289.267 259.008 287.187 258.56 285.299 257.664C283.443 256.736 281.827 255.44 280.451 253.776C279.107 252.08 278.051 250.064 277.283 247.728C276.547 245.36 276.179 242.736 276.179 239.856ZM313.508 248.832H321.668L312.836 264.72H307.268L313.508 248.832ZM334.428 239.856C334.428 241.456 334.572 242.912 334.86 244.224C335.148 245.536 335.548 246.672 336.06 247.632C336.604 248.592 337.244 249.344 337.98 249.888C338.716 250.4 339.548 250.656 340.476 250.656C341.372 250.656 342.188 250.4 342.924 249.888C343.692 249.344 344.332 248.592 344.844 247.632C345.356 246.672 345.756 245.536 346.044 244.224C346.332 242.912 346.476 241.456 346.476 239.856C346.476 238.288 346.332 236.848 346.044 235.536C345.756 234.192 345.356 233.056 344.844 232.128C344.332 231.168 343.692 230.432 342.924 229.92C342.188 229.376 341.372 229.104 340.476 229.104C339.548 229.104 338.716 229.376 337.98 229.92C337.244 230.432 336.604 231.168 336.06 232.128C335.548 233.056 335.148 234.192 334.86 235.536C334.572 236.848 334.428 238.288 334.428 239.856ZM325.116 239.856C325.116 236.976 325.484 234.368 326.22 232.032C326.988 229.664 328.044 227.648 329.388 225.984C330.764 224.32 332.38 223.04 334.236 222.144C336.124 221.216 338.204 220.752 340.476 220.752C342.716 220.752 344.78 221.216 346.668 222.144C348.556 223.04 350.172 224.32 351.516 225.984C352.86 227.648 353.9 229.664 354.636 232.032C355.404 234.368 355.788 236.976 355.788 239.856C355.788 242.736 355.404 245.36 354.636 247.728C353.9 250.064 352.86 252.08 351.516 253.776C350.172 255.44 348.556 256.736 346.668 257.664C344.78 258.56 342.716 259.008 340.476 259.008C338.204 259.008 336.124 258.56 334.236 257.664C332.38 256.736 330.764 255.44 329.388 253.776C328.044 252.08 326.988 250.064 326.22 247.728C325.484 245.36 325.116 242.736 325.116 239.856ZM367.053 239.856C367.053 241.456 367.197 242.912 367.485 244.224C367.773 245.536 368.173 246.672 368.685 247.632C369.229 248.592 369.869 249.344 370.605 249.888C371.341 250.4 372.173 250.656 373.101 250.656C373.997 250.656 374.813 250.4 375.549 249.888C376.317 249.344 376.957 248.592 377.469 247.632C377.981 246.672 378.381 245.536 378.669 244.224C378.957 242.912 379.101 241.456 379.101 239.856C379.101 238.288 378.957 236.848 378.669 235.536C378.381 234.192 377.981 233.056 377.469 232.128C376.957 231.168 376.317 230.432 375.549 229.92C374.813 229.376 373.997 229.104 373.101 229.104C372.173 229.104 371.341 229.376 370.605 229.92C369.869 230.432 369.229 231.168 368.685 232.128C368.173 233.056 367.773 234.192 367.485 235.536C367.197 236.848 367.053 238.288 367.053 239.856ZM357.741 239.856C357.741 236.976 358.109 234.368 358.845 232.032C359.613 229.664 360.669 227.648 362.013 225.984C363.389 224.32 365.005 223.04 366.861 222.144C368.749 221.216 370.829 220.752 373.101 220.752C375.341 220.752 377.405 221.216 379.293 222.144C381.181 223.04 382.797 224.32 384.141 225.984C385.485 227.648 386.525 229.664 387.261 232.032C388.029 234.368 388.413 236.976 388.413 239.856C388.413 242.736 388.029 245.36 387.261 247.728C386.525 250.064 385.485 252.08 384.141 253.776C382.797 255.44 381.181 256.736 379.293 257.664C377.405 258.56 375.341 259.008 373.101 259.008C370.829 259.008 368.749 258.56 366.861 257.664C365.005 256.736 363.389 255.44 362.013 253.776C360.669 252.08 359.613 250.064 358.845 247.728C358.109 245.36 357.741 242.736 357.741 239.856ZM399.678 239.856C399.678 241.456 399.822 242.912 400.11 244.224C400.398 245.536 400.798 246.672 401.31 247.632C401.854 248.592 402.494 249.344 403.23 249.888C403.966 250.4 404.798 250.656 405.726 250.656C406.622 250.656 407.438 250.4 408.174 249.888C408.942 249.344 409.582 248.592 410.094 247.632C410.606 246.672 411.006 245.536 411.294 244.224C411.582 242.912 411.726 241.456 411.726 239.856C411.726 238.288 411.582 236.848 411.294 235.536C411.006 234.192 410.606 233.056 410.094 232.128C409.582 231.168 408.942 230.432 408.174 229.92C407.438 229.376 406.622 229.104 405.726 229.104C404.798 229.104 403.966 229.376 403.23 229.92C402.494 230.432 401.854 231.168 401.31 232.128C400.798 233.056 400.398 234.192 400.11 235.536C399.822 236.848 399.678 238.288 399.678 239.856ZM390.366 239.856C390.366 236.976 390.734 234.368 391.47 232.032C392.238 229.664 393.294 227.648 394.638 225.984C396.014 224.32 397.63 223.04 399.486 222.144C401.374 221.216 403.454 220.752 405.726 220.752C407.966 220.752 410.03 221.216 411.918 222.144C413.806 223.04 415.422 224.32 416.766 225.984C418.11 227.648 419.15 229.664 419.886 232.032C420.654 234.368 421.038 236.976 421.038 239.856C421.038 242.736 420.654 245.36 419.886 247.728C419.15 250.064 418.11 252.08 416.766 253.776C415.422 255.44 413.806 256.736 411.918 257.664C410.03 258.56 407.966 259.008 405.726 259.008C403.454 259.008 401.374 258.56 399.486 257.664C397.63 256.736 396.014 255.44 394.638 253.776C393.294 252.08 392.238 250.064 391.47 247.728C390.734 245.36 390.366 242.736 390.366 239.856Z" fill="#2A863A"/>
<path d="M238.898 125.652V133H236.168V114.906H239.262C240.777 114.906 241.922 115.012 242.695 115.223C243.477 115.434 244.164 115.832 244.758 116.418C245.797 117.434 246.316 118.715 246.316 120.262C246.316 121.918 245.762 123.23 244.652 124.199C243.543 125.168 242.047 125.652 240.164 125.652H238.898ZM238.898 123.121H239.918C242.426 123.121 243.68 122.156 243.68 120.227C243.68 118.359 242.387 117.426 239.801 117.426H238.898V123.121ZM247.383 127.211C247.383 125.562 247.973 124.16 249.152 123.004C250.332 121.848 251.77 121.27 253.465 121.27C255.168 121.27 256.613 121.852 257.801 123.016C258.973 124.18 259.559 125.609 259.559 127.305C259.559 129.016 258.969 130.449 257.789 131.605C256.602 132.754 255.145 133.328 253.418 133.328C251.707 133.328 250.273 132.742 249.117 131.57C247.961 130.414 247.383 128.961 247.383 127.211ZM250.078 127.258C250.078 128.398 250.383 129.301 250.992 129.965C251.617 130.637 252.441 130.973 253.465 130.973C254.496 130.973 255.32 130.641 255.938 129.977C256.555 129.312 256.863 128.426 256.863 127.316C256.863 126.207 256.555 125.32 255.938 124.656C255.312 123.984 254.488 123.648 253.465 123.648C252.457 123.648 251.641 123.984 251.016 124.656C250.391 125.328 250.078 126.195 250.078 127.258ZM268.992 123.531L266.812 124.691C266.469 123.988 266.043 123.637 265.535 123.637C265.293 123.637 265.086 123.719 264.914 123.883C264.742 124.039 264.656 124.242 264.656 124.492C264.656 124.93 265.164 125.363 266.18 125.793C267.578 126.395 268.52 126.949 269.004 127.457C269.488 127.965 269.73 128.648 269.73 129.508C269.73 130.609 269.324 131.531 268.512 132.273C267.723 132.977 266.77 133.328 265.652 133.328C263.738 133.328 262.383 132.395 261.586 130.527L263.836 129.484C264.148 130.031 264.387 130.379 264.551 130.527C264.871 130.824 265.254 130.973 265.699 130.973C266.59 130.973 267.035 130.566 267.035 129.754C267.035 129.285 266.691 128.848 266.004 128.441C265.738 128.309 265.473 128.18 265.207 128.055C264.941 127.93 264.672 127.801 264.398 127.668C263.633 127.293 263.094 126.918 262.781 126.543C262.383 126.066 262.184 125.453 262.184 124.703C262.184 123.711 262.523 122.891 263.203 122.242C263.898 121.594 264.742 121.27 265.734 121.27C267.195 121.27 268.281 122.023 268.992 123.531ZM274.746 121.586V133H272.109V121.586H274.746ZM271.711 116.84C271.711 116.379 271.879 115.98 272.215 115.645C272.551 115.309 272.953 115.141 273.422 115.141C273.898 115.141 274.305 115.309 274.641 115.645C274.977 115.973 275.145 116.375 275.145 116.852C275.145 117.328 274.977 117.734 274.641 118.07C274.312 118.406 273.91 118.574 273.434 118.574C272.957 118.574 272.551 118.406 272.215 118.07C271.879 117.734 271.711 117.324 271.711 116.84ZM280.805 124.047V133H278.168V124.047H277.043V121.586H278.168V117.402H280.805V121.586H282.855V124.047H280.805ZM287.285 121.586V133H284.648V121.586H287.285ZM284.25 116.84C284.25 116.379 284.418 115.98 284.754 115.645C285.09 115.309 285.492 115.141 285.961 115.141C286.438 115.141 286.844 115.309 287.18 115.645C287.516 115.973 287.684 116.375 287.684 116.852C287.684 117.328 287.516 117.734 287.18 118.07C286.852 118.406 286.449 118.574 285.973 118.574C285.496 118.574 285.09 118.406 284.754 118.07C284.418 117.734 284.25 117.324 284.25 116.84ZM290.086 127.211C290.086 125.562 290.676 124.16 291.855 123.004C293.035 121.848 294.473 121.27 296.168 121.27C297.871 121.27 299.316 121.852 300.504 123.016C301.676 124.18 302.262 125.609 302.262 127.305C302.262 129.016 301.672 130.449 300.492 131.605C299.305 132.754 297.848 133.328 296.121 133.328C294.41 133.328 292.977 132.742 291.82 131.57C290.664 130.414 290.086 128.961 290.086 127.211ZM292.781 127.258C292.781 128.398 293.086 129.301 293.695 129.965C294.32 130.637 295.145 130.973 296.168 130.973C297.199 130.973 298.023 130.641 298.641 129.977C299.258 129.312 299.566 128.426 299.566 127.316C299.566 126.207 299.258 125.32 298.641 124.656C298.016 123.984 297.191 123.648 296.168 123.648C295.16 123.648 294.344 123.984 293.719 124.656C293.094 125.328 292.781 126.195 292.781 127.258ZM305.062 121.586H307.711V122.641C308.633 121.727 309.672 121.27 310.828 121.27C312.156 121.27 313.191 121.688 313.934 122.523C314.574 123.234 314.895 124.395 314.895 126.004V133H312.246V126.625C312.246 125.5 312.09 124.723 311.777 124.293C311.473 123.855 310.918 123.637 310.113 123.637C309.238 123.637 308.617 123.926 308.25 124.504C307.891 125.074 307.711 126.07 307.711 127.492V133H305.062V121.586Z" fill="#B9B9B9"/>
<path d="M194.235 132.524C194.235 132.524 196.091 124.866 189.697 118.262C183.297 111.64 175.289 111.64 175.289 111.64C175.289 111.64 173.338 120.646 179.579 127.09C185.826 133.528 194.235 132.524 194.235 132.524Z" fill="#ACDBA0"/>
<path d="M227.652 101.674C227.131 98.8142 226.825 95.8843 226.825 92.8717C226.825 65.6825 248.822 43.5587 275.954 43.3235V43.3489C303.143 43.5269 325.204 65.6825 325.204 92.9035C325.204 95.9161 324.892 98.846 324.378 101.706H336.815C337.222 98.8206 337.508 95.9034 337.508 92.9035C337.508 58.9329 309.982 31.2796 276.069 31.0381V31C242.098 31.178 214.515 58.8629 214.515 92.8717C214.515 95.8716 214.801 98.7888 215.214 101.674H227.652Z" fill="#ACDBA0"/>
<path d="M208.281 131.075C208.281 131.075 215.71 126.988 217.032 118.128C218.354 109.256 211.522 103.065 211.522 103.065C211.522 103.065 205.02 107.73 203.66 116.832C202.306 125.92 208.281 131.075 208.281 131.075Z" fill="#ACDBA0"/>
<path d="M213.155 139.833C213.002 149.023 219.593 153.351 219.593 153.351C219.593 153.351 226.425 148.33 226.584 139.369C226.731 130.408 219.155 125.158 219.155 125.158C219.155 125.158 213.307 130.624 213.155 139.833Z" fill="#ACDBA0"/>
<path d="M233.327 138.124C233.327 138.124 228.027 144.123 228.732 153.307C229.444 162.478 236.41 166.152 236.41 166.152C236.41 166.152 242.746 160.521 242.06 151.578C241.361 142.642 233.327 138.124 233.327 138.124Z" fill="#ACDBA0"/>
<path d="M257.529 177.204C257.529 177.204 261.978 169.978 258.743 161.614C255.502 153.262 246.503 151.248 246.503 151.248C246.503 151.248 243.153 158.525 246.477 167.105C249.801 175.685 257.529 177.204 257.529 177.204Z" fill="#ACDBA0"/>
<path d="M197.247 112.904C197.247 112.904 203.049 107.566 201.39 98.5154C199.744 89.4714 193.084 85.0225 193.084 85.0225C193.084 85.0225 186.468 91.4353 188.082 100.263C189.69 109.078 197.247 112.904 197.247 112.904Z" fill="#ACDBA0"/>
<path d="M202.014 149.856C202.014 149.856 201.531 141.988 193.472 137.551C185.407 133.122 177.754 135.479 177.754 135.479C177.754 135.479 178.549 144.657 186.411 148.985C194.26 153.307 202.014 149.856 202.014 149.856Z" fill="#ACDBA0"/>
<path d="M215.647 165.084C215.647 165.084 213.429 157.528 204.588 154.992C195.735 152.475 188.801 156.46 188.801 156.46C188.801 156.46 191.616 165.237 200.235 167.703C208.859 170.163 215.647 165.084 215.647 165.084Z" fill="#ACDBA0"/>
<path d="M230.849 175.909C230.849 175.909 226.445 169.382 217.248 169.642C208.045 169.903 202.649 175.82 202.649 175.82C202.649 175.82 207.988 183.338 216.95 183.078C225.911 182.811 230.849 175.909 230.849 175.909Z" fill="#ACDBA0"/>
<path d="M237.35 180.332C228.249 181.698 223.59 188.2 223.59 188.2C223.59 188.2 229.793 195.026 238.659 193.698C247.532 192.357 251.599 184.921 251.599 184.921C251.599 184.921 246.432 178.959 237.35 180.332Z" fill="#ACDBA0"/>
<path d="M200.266 117.378L195.887 117.232C195.868 117.702 195.01 165.274 266.867 186.349L268.1 182.142C199.675 162.071 200.203 119.202 200.266 117.378Z" fill="#ACDBA0"/>
<path d="M357.777 132.562C357.777 132.562 366.198 133.566 372.433 127.128C378.668 120.683 376.723 111.677 376.723 111.677C376.723 111.677 368.715 111.677 362.315 118.293C355.921 124.891 357.777 132.562 357.777 132.562Z" fill="#ACDBA0"/>
<path d="M334.98 118.162C336.302 127.034 343.731 131.108 343.731 131.108C343.731 131.108 349.699 125.96 348.352 116.865C347.005 107.77 340.496 103.099 340.496 103.099C340.496 103.099 333.658 109.289 334.98 118.162Z" fill="#ACDBA0"/>
<path d="M325.433 139.4C325.579 148.355 332.424 153.376 332.424 153.376C332.424 153.376 339.015 149.055 338.862 139.858C338.716 130.661 332.875 125.183 332.875 125.183C332.875 125.183 325.287 130.439 325.433 139.4Z" fill="#ACDBA0"/>
<path d="M309.945 151.616C309.265 160.558 315.601 166.189 315.601 166.189C315.601 166.189 322.573 162.516 323.279 153.344C323.978 144.173 318.677 138.161 318.677 138.161C318.677 138.161 310.65 142.68 309.945 151.616Z" fill="#ACDBA0"/>
<path d="M293.268 161.645C290.039 170.015 294.488 177.235 294.488 177.235C294.488 177.235 302.223 175.722 305.54 167.136C308.852 158.549 305.515 151.279 305.515 151.279C305.515 151.279 296.515 153.293 293.268 161.645Z" fill="#ACDBA0"/>
<path d="M363.941 100.294C365.556 91.4665 358.94 85.0537 358.94 85.0537C358.94 85.0537 352.279 89.5026 350.626 98.553C348.974 107.597 354.77 112.942 354.77 112.942C354.77 112.942 362.333 109.116 363.941 100.294Z" fill="#ACDBA0"/>
<path d="M358.552 137.589C350.487 142.019 350.01 149.893 350.01 149.893C350.01 149.893 357.758 153.344 365.62 149.022C373.469 144.701 374.27 135.517 374.27 135.517C374.27 135.517 366.611 133.159 358.552 137.589Z" fill="#ACDBA0"/>
<path d="M347.436 155.029C338.589 157.552 336.377 165.122 336.377 165.122C336.377 165.122 343.165 170.2 351.79 167.74C360.408 165.268 363.223 156.491 363.223 156.491C363.223 156.491 356.283 152.5 347.436 155.029Z" fill="#ACDBA0"/>
<path d="M334.769 169.667C325.579 169.406 321.168 175.946 321.168 175.946C321.168 175.946 326.094 182.849 335.068 183.109C344.029 183.37 349.368 175.845 349.368 175.845C349.368 175.845 343.972 169.94 334.769 169.667Z" fill="#ACDBA0"/>
<path d="M314.673 180.364C305.578 178.998 300.424 184.966 300.424 184.966C300.424 184.966 304.498 192.402 313.364 193.743C322.236 195.058 328.433 188.252 328.433 188.252C328.433 188.252 323.774 181.731 314.673 180.364Z" fill="#ACDBA0"/>
<path d="M356.143 117.266L351.764 117.418C351.822 119.23 352.343 162.098 283.931 182.176L285.164 186.389C357.021 165.308 356.156 117.743 356.143 117.266Z" fill="#ACDBA0"/>
<path d="M556.085 151.987C554.546 151.439 553.21 150.318 552.43 148.737C550.838 145.513 552.161 141.61 555.385 140.019L565.805 134.877C569.028 133.289 572.931 134.612 574.522 137.836C576.114 141.056 574.79 144.962 571.567 146.55L561.147 151.692C559.505 152.503 557.686 152.556 556.085 151.987Z" fill="#FFAA00" fill-opacity="0.1"/>
<path d="M468.182 239.965C466.642 239.417 465.307 238.296 464.529 236.716C462.938 233.492 464.261 229.589 467.485 227.998L557.429 183.61C560.653 182.019 564.556 183.342 566.147 186.566C567.738 189.789 566.415 193.692 563.191 195.283L473.244 239.671C471.601 240.481 469.782 240.534 468.182 239.965Z" fill="#1C7216" fill-opacity="0.1"/>
<path d="M437.866 254.986C436.278 254.421 434.911 253.245 434.147 251.597L434.103 251.504C432.588 248.242 434.005 244.372 437.263 242.859C440.526 241.344 444.395 242.761 445.908 246.019L445.952 246.111C447.464 249.373 446.05 253.243 442.789 254.755C441.179 255.504 439.418 255.538 437.866 254.986Z" fill="#FF5364" fill-opacity="0.2"/>
<path d="M457.404 132.112C456.374 131.746 455.422 131.115 454.661 130.227C452.316 127.502 452.625 123.391 455.349 121.05L531.935 55.1627C534.66 52.8207 538.767 53.1284 541.112 55.8539C543.457 58.5794 543.149 62.6898 540.424 65.0318L463.838 130.919C462.003 132.496 459.536 132.871 457.404 132.112Z" fill="#62D38F" fill-opacity="0.2"/>
<path d="M431.606 154.371C430.534 153.989 429.551 153.326 428.772 152.384L428.708 152.307C426.423 149.537 426.813 145.433 429.587 143.146C432.36 140.854 436.461 141.25 438.75 144.022L438.813 144.099C441.102 146.87 440.709 150.972 437.937 153.261C436.103 154.774 433.693 155.114 431.606 154.371Z" fill="#1C7216" fill-opacity="0.1"/>
<path d="M414.761 168.862C413.682 168.478 412.691 167.804 411.915 166.856L411.851 166.779C409.573 163.997 409.981 159.896 412.759 157.617C415.541 155.34 419.641 155.75 421.92 158.529L421.984 158.606C424.261 161.388 423.854 165.489 421.072 167.767C419.242 169.266 416.838 169.601 414.761 168.862Z" fill="#FF4E61" fill-opacity="0.1"/>
<path d="M500.292 181.196C502.963 173.687 499.219 165.495 491.931 162.902C484.643 160.309 476.566 164.295 473.894 171.804C471.223 179.312 474.968 187.501 482.256 190.094C489.544 192.687 497.62 188.704 500.292 181.196Z" fill="#FF5364" fill-opacity="0.2"/>
<path d="M419.582 88.0597L427.669 92.4014C429.766 93.5276 432.218 91.7085 431.817 89.3229L430.273 80.128C430.114 79.1806 430.421 78.2149 431.095 77.5441L437.638 71.031C439.335 69.3423 438.399 66.3996 436.053 66.0511L427.012 64.7096C426.08 64.5713 425.276 63.9749 424.86 63.1123L420.815 54.746C419.766 52.5772 416.737 52.5772 415.688 54.746L411.645 63.1123C411.227 63.9749 410.423 64.5713 409.492 64.7096L400.45 66.0511C398.106 66.3996 397.17 69.3423 398.867 71.031L405.408 77.5441C406.082 78.2149 406.39 79.1806 406.231 80.128L404.687 89.3229C404.285 91.7085 406.737 93.5276 408.834 92.4014L416.921 88.0597C417.755 87.6121 418.75 87.6121 419.582 88.0597Z" fill="#FFD02F" fill-opacity="0.2"/>
<path d="M55.0947 97.434C53.4643 97.434 51.8271 96.8251 50.5648 95.5972C47.9851 93.0932 47.9232 88.9726 50.4272 86.3929L58.5205 78.0554C61.0245 75.4792 65.1451 75.4172 67.7248 77.9213C70.3011 80.4253 70.363 84.5459 67.859 87.1221L59.7656 95.4596C58.4896 96.7736 56.7938 97.434 55.0947 97.434Z" fill="#FFAA00" fill-opacity="0.1"/>
<path d="M10.3974 243.526C8.76707 243.526 7.12983 242.918 5.86751 241.69C3.28783 239.186 3.22592 235.065 5.72993 232.485L13.8198 224.148C16.3238 221.568 20.4444 221.506 23.0241 224.01C25.6038 226.514 25.6657 230.635 23.1617 233.215L15.0684 241.552C13.7957 242.866 12.0966 243.526 10.3974 243.526Z" fill="#2DC471" fill-opacity="0.2"/>
<path d="M76.3721 201.323C74.673 201.323 72.9773 200.663 71.7012 199.349L1.84 127.376C-0.664014 124.796 -0.605541 120.675 1.97414 118.175C4.55382 115.671 8.67443 115.733 11.1784 118.309L81.0431 190.282C83.5471 192.858 83.4852 196.982 80.9055 199.483C79.6397 200.711 78.0059 201.323 76.3721 201.323Z" fill="#FF4E61" fill-opacity="0.1"/>
<path d="M99.8991 225.634C98.2585 225.634 96.6178 225.018 95.352 223.78C92.7792 221.269 92.7311 217.149 95.2419 214.576L95.3142 214.504C97.8251 211.934 101.946 211.883 104.518 214.397C107.091 216.908 107.139 221.028 104.625 223.601L104.556 223.674C103.28 224.977 101.591 225.634 99.8991 225.634Z" fill="#FFAA00" fill-opacity="0.1"/>
<path d="M115.264 241.463C113.63 241.463 111.996 240.851 110.73 239.623C108.154 237.119 108.092 232.998 110.596 230.422L110.665 230.346C113.172 227.767 117.293 227.708 119.869 230.212C122.449 232.716 122.511 236.837 120.007 239.416L119.934 239.489C118.658 240.803 116.963 241.463 115.264 241.463Z" fill="#C4C4C4" fill-opacity="0.2"/>
<path opacity="0.2" d="M122.803 100.763C120.54 100.763 118.342 99.5837 117.142 97.4787L67.0717 9.73515C65.29 6.61201 66.3769 2.63931 69.4966 0.857608C72.6197 -0.924092 76.5959 0.159374 78.3776 3.28251L128.447 91.026C130.229 94.1492 129.142 98.1253 126.023 99.907C125.004 100.488 123.897 100.763 122.803 100.763Z" fill="#ACDBA0"/>
<path d="M77.1979 251.916C77.1979 243.946 70.9276 237.487 63.1886 237.487C55.453 237.487 49.1826 243.946 49.1826 251.916C49.1826 259.885 55.453 266.348 63.1886 266.348C70.9276 266.348 77.1979 259.885 77.1979 251.916Z" fill="#C4C4C4" fill-opacity="0.2"/>
<path d="M122.796 26.8471C121.162 26.8471 119.528 26.2383 118.263 25.007C115.683 22.503 115.621 18.3858 118.125 15.8061L126.218 7.46858C128.722 4.8889 132.843 4.82699 135.419 7.331C137.999 9.83501 138.061 13.9556 135.557 16.5353L127.467 24.8728C126.191 26.1867 124.492 26.8471 122.796 26.8471Z" fill="#FF4E61" fill-opacity="0.1"/>
<path d="M96.8453 144.031L102.12 146.829C103.487 147.554 105.086 146.382 104.825 144.845L103.818 138.919C103.714 138.308 103.914 137.686 104.354 137.254L108.621 133.056C109.728 131.968 109.117 130.072 107.587 129.847L101.691 128.983C101.083 128.894 100.559 128.509 100.287 127.953L97.6498 122.562C96.9655 121.164 94.9899 121.164 94.3056 122.562L91.6688 127.953C91.3967 128.509 90.8721 128.894 90.265 128.983L84.3682 129.847C82.8391 130.072 82.2286 131.968 83.3353 133.056L87.6017 137.254C88.0413 137.686 88.2422 138.308 88.1383 138.919L87.1312 144.845C86.8693 146.382 88.468 147.554 89.8357 146.829L95.1101 144.031C95.6535 143.742 96.3026 143.742 96.8453 144.031Z" fill="#FFD02F" fill-opacity="0.2"/>
</svg>
