<svg width="313" height="227" viewBox="0 0 313 227" fill="none" xmlns="http://www.w3.org/2000/svg">
<path d="M313 204.952H0V205.109H313V204.952Z" fill="#EBEBEB"/>
<path d="M281.637 215.025H260.904V215.181H281.637V215.025Z" fill="#EBEBEB"/>
<path d="M207.343 216.727H201.903V216.884H207.343V216.727Z" fill="#EBEBEB"/>
<path d="M260.279 209.215H248.266V209.372H260.279V209.215Z" fill="#EBEBEB"/>
<path d="M59.8773 210.267H32.8403V210.424H59.8773V210.267Z" fill="#EBEBEB"/>
<path d="M69.4177 210.267H65.4551V210.424H69.4177V210.267Z" fill="#EBEBEB"/>
<path d="M140.944 212.909H82.3008V213.065H140.944V212.909Z" fill="#EBEBEB"/>
<path d="M148.362 177.033H27.4876C26.5407 177.031 25.6331 176.654 24.9642 175.984C24.2952 175.313 23.9194 174.405 23.9194 173.458V3.54316C23.9277 2.60167 24.307 1.70145 24.9751 1.03804C25.6432 0.374635 26.5461 0.00161282 27.4876 0H148.362C149.31 0 150.219 0.376594 150.89 1.04694C151.56 1.71728 151.936 2.62645 151.936 3.57446V173.458C151.936 174.406 151.56 175.316 150.89 175.986C150.219 176.656 149.31 177.033 148.362 177.033ZM27.4876 0.1252C26.5822 0.126859 25.7145 0.487695 25.0748 1.12851C24.4352 1.76932 24.0759 2.63774 24.0759 3.54316V173.458C24.0759 174.364 24.4352 175.232 25.0748 175.873C25.7145 176.514 26.5822 176.875 27.4876 176.876H148.362C149.268 176.875 150.136 176.514 150.777 175.873C151.418 175.233 151.778 174.364 151.78 173.458V3.54316C151.778 2.63717 151.418 1.76876 150.777 1.12812C150.136 0.487491 149.268 0.126855 148.362 0.1252H27.4876Z" fill="#EBEBEB"/>
<path d="M94.8263 115.459H140.725V39.5694H94.8263V115.459Z" fill="#F5F5F5"/>
<path d="M94.8262 39.5758H93.9185V115.466H94.8262V39.5758Z" fill="#E0E0E0"/>
<path d="M99.484 112.123H136.074V42.9124H99.484V112.123Z" fill="#FAFAFA"/>
<path d="M65.229 185.34C66.3683 164.682 63.351 131.504 60.0895 119.992C59.6576 118.471 59.1693 116.705 58.4244 116.474C56.296 115.798 55.3382 119.134 55.6011 120.286C56.8531 125.832 58.0237 139.598 59.1693 163.543C59.739 175.437 59.1693 183.625 60.6968 185.346L65.229 185.34Z" fill="#E6E6E6"/>
<path d="M61.8366 139.297C64.8289 129.626 103.153 119.691 92.1037 130.095C89.3556 132.687 76.5601 139.517 71.308 146.697C67.2265 152.274 63.1011 161.658 62.0119 166.86C61.5361 155.918 59.8459 145.745 61.8366 139.297Z" fill="#E6E6E6"/>
<path d="M66.1996 151.561C72.8728 136.844 94.2131 134.202 88.479 141.971C86.2254 145.019 77.9622 148.5 72.7038 155.68C68.6222 161.258 64.4969 170.635 63.4139 175.843C62.9319 164.895 63.4139 157.708 66.1996 151.561Z" fill="#E6E6E6"/>
<path d="M57.811 150.309C49.9109 131.379 21.3715 129.87 28.9649 138.665C31.8508 142.014 41.9356 148.143 49.554 156.043C55.476 162.178 62.1492 172.319 64.4215 177.953C62.9504 166.341 60.9973 157.946 57.811 150.309Z" fill="#E6E6E6"/>
<path d="M61.1285 129.125C68.2023 116.16 89.6115 114.771 83.4955 121.863C81.0979 124.655 73.298 128.192 68.2023 135.16C64.2397 140.568 59.4821 147.629 58.4242 152.688C57.961 142.058 57.9923 134.878 61.1285 129.125Z" fill="#E6E6E6"/>
<path d="M54.9689 129.382C49.3913 121.319 24.4139 112.455 30.8992 119.754C37.7289 127.41 42.5804 126.095 49.0532 132.781C54.0612 137.977 59.6952 146.59 61.6358 151.31C60.3776 141.476 58.9628 135.141 54.9689 129.382Z" fill="#E6E6E6"/>
<path d="M61.5988 120.098C65.1419 113.725 79.7528 109.037 75.9404 113.926C73.2799 117.319 70.0873 119.647 66.7007 124.267C64.0777 127.86 60.5095 132.374 59.8147 135.723C59.5017 128.68 59.4704 123.898 61.5988 120.098Z" fill="#E6E6E6"/>
<path d="M55.8329 122.026C52.2647 118.07 33.1779 108.68 37.5599 114.708C39.2689 117.081 46.5493 122.846 51.4509 127.942C55.2632 131.886 59.4449 135.103 60.9035 138.69C59.9394 131.235 59.4073 125.976 55.8329 122.026Z" fill="#E6E6E6"/>
<path d="M60.7221 135.911C55.5075 130.139 17.4905 122.702 27.2624 129.075C30.6052 131.253 45.3037 134.997 52.4714 142.428C58.0365 148.193 60.0397 157.758 62.1744 162.998C67.7959 153.789 65.9429 141.689 60.7221 135.911Z" fill="#E6E6E6"/>
<path d="M54.2118 184.501L54.7001 201.772C54.7502 205.053 55.5139 204.952 56.4404 204.952H68.7287C69.649 204.952 70.4127 205.053 70.469 201.772L70.9573 184.501C71.0136 180.945 70.2186 177.947 69.217 177.947H55.9521C54.9505 177.947 54.1555 180.945 54.2118 184.501Z" fill="#F5F5F5"/>
<path d="M53.4795 181.096H71.6898C71.8092 181.103 71.9273 181.067 72.0226 180.995C72.1179 180.922 72.1842 180.818 72.2094 180.701L72.6413 177.396C72.6443 177.328 72.6327 177.26 72.6073 177.197C72.5819 177.134 72.5433 177.077 72.494 177.03C72.4448 176.984 72.3861 176.948 72.3219 176.926C72.2577 176.903 72.1894 176.895 72.1217 176.901H53.0413C52.9738 176.896 52.906 176.905 52.8422 176.928C52.7785 176.95 52.7202 176.986 52.6712 177.033C52.6222 177.079 52.5835 177.136 52.5578 177.198C52.532 177.261 52.5197 177.328 52.5217 177.396L52.9536 180.701C52.9802 180.819 53.0476 180.923 53.144 180.995C53.2403 181.067 53.3593 181.103 53.4795 181.096Z" fill="#F5F5F5"/>
<path d="M182.085 108.023H168.3V200.771H182.085V108.023Z" fill="#F0F0F0"/>
<path d="M275.44 200.771H170.948V204.952H275.44V200.771Z" fill="#F0F0F0"/>
<path d="M182.085 200.771H278.088V108.022L182.085 108.022V200.771Z" fill="#F5F5F5"/>
<path d="M180.657 104.373H166.566V108.023H180.657V104.373Z" fill="#F0F0F0"/>
<path d="M180.658 108.023L279.822 108.023V104.373L180.658 104.373V108.023Z" fill="#FAFAFA"/>
<path d="M273.061 151.811H187.111V115.747H273.061V151.811ZM187.925 151.023H272.272V116.536H187.9L187.925 151.023Z" fill="#E0E0E0"/>
<path d="M273.061 193.046H187.111V157.483H273.061V193.046ZM187.925 192.257H272.272V158.272H187.9L187.925 192.257Z" fill="#E0E0E0"/>
<path d="M246.82 122.84H213.354C212.961 122.838 212.584 122.681 212.306 122.404C212.029 122.126 211.872 121.749 211.87 121.356C211.872 120.963 212.029 120.587 212.306 120.309C212.584 120.031 212.961 119.874 213.354 119.873H246.82C247.213 119.874 247.589 120.031 247.867 120.309C248.145 120.587 248.302 120.963 248.303 121.356C248.302 121.749 248.145 122.126 247.867 122.404C247.589 122.681 247.213 122.838 246.82 122.84Z" fill="#E0E0E0"/>
<path d="M246.826 161.608H213.354C212.534 161.608 211.87 162.272 211.87 163.092C211.87 163.911 212.534 164.575 213.354 164.575H246.826C247.645 164.575 248.31 163.911 248.31 163.092C248.31 162.272 247.645 161.608 246.826 161.608Z" fill="#E0E0E0"/>
<path d="M225.617 104.335H265.431L268.661 68.835H228.847L225.617 104.335Z" fill="#E6E6E6"/>
<path d="M224.265 104.335H264.078L267.308 68.835H227.495L224.265 104.335Z" fill="#F0F0F0"/>
<path d="M260.504 100.404L263.02 72.7662H231.069L228.553 100.404H260.504Z" fill="#F5F5F5"/>
<path d="M216.396 78.4127L214.036 104.335H233.117L235.477 78.4127H216.396Z" fill="#E6E6E6"/>
<path d="M215.407 78.4127L213.047 104.335H232.127L234.487 78.4127H215.407Z" fill="#F0F0F0"/>
<path d="M218.017 81.2798L216.177 101.468H229.523L231.357 81.2798H218.017Z" fill="#F5F5F5"/>
<path d="M185.496 36.7589C184.92 35.2994 184.055 33.9714 182.953 32.8546C181.85 31.7378 180.534 30.8553 179.082 30.2601C177.63 29.6648 176.073 29.3692 174.504 29.3909C172.935 29.4126 171.387 29.7511 169.952 30.3862C164.619 32.74 161.727 39.5822 163.736 45.0472C164.74 47.8065 166.753 50.0819 169.37 51.4136C170.459 51.9351 171.382 52.7476 172.037 53.7611L173.689 56.4028C174.232 57.2674 175.059 57.9157 176.028 58.2357C176.997 58.5557 178.047 58.5273 178.998 58.1556L183.167 56.5092C184.115 56.1313 184.902 55.4342 185.391 54.5382C185.88 53.6421 186.041 52.6034 185.846 51.6014L185.22 48.4338C185.02 47.3124 185.135 46.1572 185.552 45.0972C186.569 42.4072 186.549 39.4349 185.496 36.7589Z" fill="#92E3A9"/>
<path d="M179.549 63.4265C179.282 63.4258 179.018 63.3704 178.773 63.2638C178.537 63.1639 178.323 63.0177 178.145 62.8339C177.966 62.65 177.827 62.4322 177.734 62.1933C177.551 61.7157 177.563 61.1853 177.768 60.7168C177.973 60.2482 178.354 59.8791 178.829 59.6893L184.357 57.5046C184.834 57.32 185.365 57.3315 185.834 57.5367C186.303 57.7419 186.672 58.1241 186.861 58.6001C186.96 58.8359 187.011 59.0892 187.011 59.345C187.011 59.6009 186.96 59.8541 186.861 60.09C186.655 60.5639 186.27 60.9374 185.79 61.1291L180.288 63.2888C180.053 63.384 179.802 63.4309 179.549 63.4265ZM185.07 57.9741C184.905 57.9732 184.741 58.0052 184.588 58.068L179.036 60.2527C178.792 60.3468 178.582 60.5115 178.432 60.7258C178.282 60.9401 178.199 61.1941 178.195 61.4555C178.19 61.717 178.263 61.9738 178.405 62.1933C178.547 62.4129 178.752 62.585 178.992 62.6879C179.152 62.756 179.325 62.7912 179.499 62.7912C179.673 62.7912 179.846 62.756 180.006 62.6879L185.534 60.5094C185.695 60.445 185.841 60.3493 185.965 60.2279C186.088 60.1065 186.186 59.9617 186.254 59.802C186.323 59.6432 186.359 59.4716 186.359 59.2981C186.359 59.1246 186.323 58.953 186.254 58.7941C186.154 58.5444 185.981 58.3306 185.757 58.1809C185.534 58.0312 185.271 57.9525 185.002 57.9553L185.07 57.9741Z" fill="#263238"/>
<path d="M182.366 66.7944C182.198 66.7926 182.032 66.7586 181.878 66.6942C181.592 66.5581 181.368 66.3188 181.252 66.0244L181.158 65.7803C181.099 65.6324 181.07 65.4743 181.072 65.3151C181.075 65.1559 181.109 64.9988 181.172 64.8528C181.236 64.7068 181.327 64.5748 181.442 64.4643C181.556 64.3538 181.692 64.2671 181.84 64.209L185.289 62.8443C185.59 62.7353 185.92 62.7452 186.214 62.8721C186.507 62.9989 186.741 63.2331 186.867 63.5267L186.961 63.7708C187.076 64.0699 187.069 64.4023 186.941 64.6962C186.814 64.9902 186.576 65.2222 186.278 65.3421L182.792 66.7068C182.656 66.7619 182.512 66.7916 182.366 66.7944ZM185.715 63.3827C185.642 63.3848 185.57 63.3996 185.502 63.4265L182.053 64.7912C181.981 64.8189 181.916 64.8605 181.86 64.9136C181.804 64.9667 181.76 65.0304 181.729 65.1008C181.698 65.1712 181.682 65.2471 181.68 65.3239C181.679 65.4008 181.693 65.4772 181.721 65.5487L181.815 65.7928C181.843 65.8648 181.886 65.9304 181.939 65.9861C181.993 66.0417 182.057 66.0862 182.128 66.117C182.199 66.1478 182.275 66.1643 182.353 66.1656C182.43 66.1669 182.507 66.153 182.579 66.1246L186.028 64.7599C186.1 64.7317 186.166 64.6896 186.222 64.6359C186.278 64.5822 186.323 64.5179 186.353 64.4469C186.383 64.3765 186.398 64.301 186.398 64.2247C186.398 64.1484 186.383 64.0728 186.353 64.0024L186.26 63.7583C186.213 63.6511 186.137 63.5591 186.041 63.4927C185.945 63.4263 185.832 63.3882 185.715 63.3827Z" fill="#263238"/>
<path d="M172.093 47.8642C171.666 47.865 171.247 47.7493 170.881 47.5297C170.515 47.3102 170.216 46.9949 170.016 46.6179C169.815 46.2409 169.722 45.8165 169.745 45.3903C169.768 44.964 169.906 44.5521 170.146 44.1988C170.386 43.8456 170.717 43.5644 171.105 43.3854C171.492 43.2065 171.921 43.1366 172.345 43.1833C172.77 43.23 173.173 43.3915 173.513 43.6504C173.852 43.9093 174.114 44.2559 174.271 44.6528L175.135 46.8376L172.951 47.6952C172.678 47.8059 172.387 47.8633 172.093 47.8642ZM172.093 43.7952C171.838 43.7925 171.586 43.8463 171.355 43.9528C171.124 44.0593 170.919 44.2157 170.755 44.4109C170.592 44.6061 170.473 44.8351 170.409 45.0815C170.345 45.3279 170.336 45.5855 170.383 45.8358C170.43 46.086 170.532 46.3227 170.682 46.5287C170.832 46.7347 171.025 46.9049 171.249 47.0271C171.472 47.1492 171.72 47.2203 171.974 47.2352C172.228 47.25 172.483 47.2083 172.719 47.113L174.322 46.487L173.696 44.8907C173.566 44.5713 173.343 44.2983 173.056 44.1073C172.769 43.9164 172.431 43.8163 172.087 43.8202L172.093 43.7952Z" fill="#F5F5F5"/>
<path d="M179.017 58.3684L174.329 46.4807L178.642 44.778L183.33 56.6657L182.748 56.8973L178.285 45.5918L175.136 46.8375L179.6 58.1368L179.017 58.3684Z" fill="#F5F5F5"/>
<path d="M178.284 45.5918L177.427 43.4071C177.256 42.9752 177.217 42.5023 177.315 42.0482C177.413 41.5942 177.643 41.1794 177.977 40.8564C178.311 40.5334 178.733 40.3167 179.19 40.2337C179.647 40.1507 180.119 40.2051 180.545 40.3901C180.971 40.5751 181.332 40.8823 181.584 41.2729C181.835 41.6634 181.965 42.1198 181.957 42.5842C181.949 43.0486 181.803 43.5002 181.538 43.8818C181.274 44.2634 180.901 44.5579 180.469 44.7279L178.284 45.5918ZM179.605 40.8217C179.391 40.8246 179.179 40.867 178.979 40.9469C178.769 41.0297 178.577 41.1533 178.414 41.3107C178.252 41.468 178.122 41.656 178.032 41.8637C177.943 42.0714 177.895 42.2948 177.892 42.521C177.889 42.7472 177.931 42.9717 178.015 43.1817L178.641 44.778L180.238 44.152C180.611 44.0056 180.921 43.7336 181.115 43.3829C181.309 43.0322 181.375 42.6247 181.301 42.2308C181.226 41.8369 181.017 41.4813 180.709 41.2252C180.4 40.9691 180.012 40.8286 179.612 40.8279L179.605 40.8217Z" fill="#F5F5F5"/>
<path d="M188.006 75.427C185.655 75.4301 183.308 75.2396 180.988 74.8573L181.095 74.2313C183.371 74.6071 185.674 74.7955 187.981 74.7947L188.006 75.427Z" fill="#92E3A9"/>
<path d="M200.946 81.9123L201.278 81.2362C202.432 78.6659 202.664 75.776 201.935 73.0544C199.499 73.9274 196.983 74.5565 194.423 74.9324L194.329 74.3064C196.953 73.9138 199.529 73.2509 202.016 72.3282L202.329 72.2155L202.423 72.5285C203.218 75.2448 203.115 78.145 202.129 80.798C209.822 77.7369 217.854 66.8695 217.854 53.9238C217.854 42.4305 204.451 33.078 187.975 33.078C171.499 33.078 158.102 42.4305 158.102 53.9238C158.102 62.2809 165.22 69.8117 176.256 73.1045L176.075 73.7304C164.807 70.3563 157.495 62.5939 157.495 53.9488C157.495 42.1112 171.179 32.4771 187.994 32.4771C204.808 32.4771 218.499 42.1112 218.499 53.9488C218.499 67.5581 209.735 78.9325 201.659 81.6681L200.946 81.9123Z" fill="#92E3A9"/>
<path d="M218.324 37.763L197.471 41.4888C195.973 41.7564 194.976 43.1872 195.244 44.6847L197.463 57.1082C197.731 58.6057 199.162 59.6027 200.659 59.3352L221.513 55.6093C223.01 55.3417 224.007 53.9109 223.74 52.4134L221.52 39.99C221.253 38.4925 219.822 37.4954 218.324 37.763Z" fill="#92E3A9"/>
<path d="M213.316 47.8829L205.929 45.2162L207.313 52.941L213.316 47.8829Z" fill="#F5F5F5"/>
<path d="M134.753 151.285H81.5677C80.4649 151.285 79.5708 152.179 79.5708 153.282V156.118C79.5708 157.221 80.4649 158.115 81.5677 158.115H134.753C135.856 158.115 136.75 157.221 136.75 156.118V153.282C136.75 152.179 135.856 151.285 134.753 151.285Z" fill="#92E3A9"/>
<path d="M134.152 222.38H135.736L133.914 158.115H131.717L134.152 222.38Z" fill="#92E3A9"/>
<path opacity="0.3" d="M134.152 222.38H135.736L133.914 158.115H131.717L134.152 222.38Z" fill="#F5F5F5"/>
<path d="M119.547 222.38H117.963L119.791 158.115H121.982L119.547 222.38Z" fill="#92E3A9"/>
<path opacity="0.3" d="M119.547 222.38H117.963L119.791 158.115H121.982L119.547 222.38Z" fill="#F5F5F5"/>
<path d="M96.7735 222.38H98.3636L96.5356 158.115H94.3384L96.7735 222.38Z" fill="#92E3A9"/>
<path opacity="0.3" d="M96.7735 222.38H98.3636L96.5356 158.115H94.3384L96.7735 222.38Z" fill="#F5F5F5"/>
<path d="M82.175 222.38H80.585L82.4129 158.115H84.6039L82.175 222.38Z" fill="#92E3A9"/>
<path opacity="0.3" d="M82.175 222.38H80.585L82.4129 158.115H84.6039L82.175 222.38Z" fill="#F5F5F5"/>
<path d="M151.06 206.048L156.707 204.138L152.062 190.955L146.421 192.864L151.06 206.048Z" fill="#FFC3BD"/>
<path d="M156.287 201.96L150.102 204.702C150.051 204.72 150.004 204.749 149.965 204.786C149.927 204.824 149.896 204.87 149.877 204.92C149.857 204.971 149.848 205.025 149.852 205.079C149.855 205.133 149.87 205.186 149.896 205.234L152.243 210.004C152.39 210.254 152.622 210.443 152.897 210.536C153.172 210.629 153.471 210.62 153.739 210.511C155.874 209.528 156.832 208.959 159.555 207.763C161.233 207.031 164.607 205.722 166.698 204.376C168.788 203.03 167.148 201.09 166.122 201.478C163.687 202.404 159.636 202.367 157.42 201.891C157.045 201.797 156.649 201.821 156.287 201.96Z" fill="#263238"/>
<path opacity="0.2" d="M146.421 192.87L152.068 190.955L154.716 198.498L148.975 200.138L146.421 192.87Z" fill="black"/>
<path d="M111.065 133.457C111.065 133.457 139.235 138.54 141.507 147.792C145.971 166.084 156.037 194.692 156.037 194.692L145.32 197.822C145.32 197.822 129.995 165.013 128.067 153.971C112.261 153.971 93.0112 155.223 90.5072 148.537C88.3099 142.603 89.0924 133.482 89.0924 133.482L111.065 133.457Z" fill="#263238"/>
<path d="M144.731 199.694L157.251 195.562L156.181 189.909L142.528 194.717L144.731 199.694Z" fill="#92E3A9"/>
<path d="M126.521 208.051L132.755 208.527L129.093 193.14L123.278 194.454L126.521 208.051Z" fill="#FFC3BD"/>
<path d="M132.6 207.024L125.883 206.279C125.829 206.269 125.773 206.271 125.72 206.285C125.667 206.298 125.617 206.323 125.574 206.358C125.531 206.392 125.497 206.435 125.472 206.484C125.448 206.534 125.434 206.588 125.432 206.642L125.082 211.951C125.093 212.238 125.204 212.513 125.394 212.728C125.585 212.944 125.843 213.087 126.127 213.134C128.462 213.353 129.582 213.334 132.537 213.66C134.353 213.86 137.933 214.417 140.419 214.286C142.904 214.154 142.453 211.657 141.364 211.488C138.791 211.068 135.31 209.015 133.626 207.494C133.342 207.233 132.983 207.069 132.6 207.024Z" fill="#263238"/>
<path opacity="0.2" d="M123.278 194.461L129.093 193.146L130.94 200.921L125.062 201.954L123.278 194.461Z" fill="black"/>
<path d="M96.4042 133.457C96.4042 133.457 130.653 138.584 129.081 151.548C126.821 170.241 132.625 197.277 132.625 197.277L121.638 199.243C121.638 199.243 113.563 165.639 113.5 154.428C102.357 154.428 82.8888 155.223 80.3973 148.512C78.2001 142.578 78.9826 133.457 78.9826 133.457H96.4042Z" fill="#263238"/>
<path d="M120.881 201.071L133.77 198.267L133.294 192.539L119.209 195.888L120.881 201.071Z" fill="#92E3A9"/>
<path d="M114.47 97.4307C115.384 101.011 116.28 104.623 117.156 108.223C118.032 111.822 118.89 115.428 119.798 118.984L120.48 121.632L120.831 122.934L121.012 123.56V123.641V123.679C121.012 123.679 121.012 123.623 120.981 123.597C120.934 123.469 120.875 123.346 120.806 123.228L120.712 123.084L120.643 122.99L120.518 122.853C120.386 122.727 120.367 122.746 120.399 122.777C120.466 122.847 120.542 122.908 120.624 122.959C120.9 123.145 121.188 123.31 121.488 123.453C122.164 123.785 122.953 124.079 123.76 124.405C127.016 125.613 130.609 126.64 134.102 127.748L133.551 131.742C131.629 131.764 129.706 131.689 127.792 131.516C125.843 131.356 123.906 131.084 121.989 130.703C120.959 130.503 119.943 130.239 118.946 129.914C118.371 129.73 117.809 129.508 117.262 129.25C116.927 129.094 116.602 128.914 116.292 128.712C115.861 128.437 115.463 128.111 115.109 127.742C114.996 127.616 114.89 127.497 114.765 127.335L114.589 127.097L114.414 126.803C114.285 126.582 114.174 126.352 114.082 126.114L113.982 125.826L113.738 125.137L113.269 123.773C112.962 122.865 112.643 121.957 112.386 121.056C111.253 117.438 110.22 113.838 109.256 110.214C108.292 106.589 107.378 102.971 106.539 99.3024L114.47 97.4307Z" fill="#FFC3BD"/>
<path d="M105.669 93.0985C109.106 89.2674 114.552 91.9467 116.849 100.523C117.964 104.692 117.613 106.871 117.613 106.871L105.757 110.526C103.209 104.892 100.993 98.3194 105.669 93.0985Z" fill="#92E3A9"/>
<g opacity="0.2">
<path opacity="0.2" d="M105.669 93.0985C109.106 89.2674 114.552 91.9467 116.849 100.523C117.964 104.692 117.613 106.871 117.613 106.871L105.757 110.526C103.209 104.892 100.993 98.3194 105.669 93.0985Z" fill="black"/>
</g>
<path d="M140.318 126.139L139.254 125.813C138.61 125.618 137.932 125.557 137.263 125.632L134.978 125.901C134.242 126.076 133.55 126.405 132.95 126.865C132.349 127.326 131.852 127.908 131.492 128.574L130.715 130.089C131.103 132.881 136.762 131.967 136.762 131.967H142.102L141.927 128.173C141.9 127.71 141.731 127.266 141.444 126.902C141.156 126.538 140.763 126.272 140.318 126.139Z" fill="#FFC3BD"/>
<path d="M143.98 120.029C143.829 121.057 143.395 122.024 142.728 122.821C142.159 123.654 141.57 124.48 140.976 125.325C139.78 126.959 138.559 128.568 137.22 130.101C137.161 130.168 137.08 130.21 136.992 130.221C136.904 130.232 136.816 130.211 136.743 130.161C136.669 130.111 136.617 130.036 136.596 129.95C136.574 129.864 136.584 129.773 136.625 129.695C137.551 127.879 138.597 126.151 139.667 124.436C140.206 123.581 140.756 122.731 141.32 121.888C141.806 120.967 142.536 120.196 143.429 119.66C143.496 119.619 143.572 119.598 143.649 119.599C143.727 119.6 143.803 119.622 143.868 119.664C143.933 119.706 143.985 119.765 144.019 119.835C144.052 119.905 144.064 119.983 144.055 120.06L143.98 120.029Z" fill="#263238"/>
<path d="M106.464 89.3864L99.7846 87.5084L91.1896 87.1077C89.8862 87.0466 88.5988 87.4154 87.5254 88.1573C86.4521 88.8993 85.6522 89.9734 85.2489 91.2143C83.6087 96.2223 82.1189 103.434 81.0046 109.675C79.6825 117.536 79.0104 125.492 78.9951 133.463H111.065C111.722 115.653 113.819 106.952 115.059 100.648C115.423 98.7805 115.156 96.8451 114.3 95.1456C113.445 93.4461 112.049 92.0787 110.333 91.2581L106.464 89.3864Z" fill="#92E3A9"/>
<path d="M97.5059 90.6384C98.3197 92.7293 101.468 97.1989 105.131 98.9455C107.165 97.4744 107.603 94.263 107.91 92.7606L97.5059 90.6384Z" fill="#F5F5F5"/>
<path d="M107.91 92.7605C108.148 91.9342 108.049 91.0476 107.635 90.294C107.115 89.4802 107.247 88.5475 107.766 87.5897C108.178 86.827 108.694 86.1254 109.3 85.5051L105.1 80.591L101.675 76.6222C101.381 80.3344 101.093 84.9355 98.1634 87.8151C97.1305 88.8355 96.9114 89.1422 97.5061 90.6383C98.3199 92.7292 101.262 95.6463 104.893 97.3929C105.679 96.861 106.352 96.1772 106.87 95.3816C107.388 94.586 107.742 93.6948 107.91 92.7605Z" fill="#FFC3BD"/>
<path opacity="0.2" d="M108.01 84.6602L105.638 80.8103C105.594 80.9105 105.537 81.0169 105.481 81.1296C105.267 81.6062 105.096 82.1005 104.968 82.6069C104.536 84.3159 105.988 86.7573 107.578 87.9217C107.647 87.8152 107.703 87.7026 107.766 87.5899C108.171 86.867 108.651 86.1892 109.2 85.5679C109.231 85.5439 109.264 85.523 109.3 85.5053L108.01 84.6602Z" fill="black"/>
<path d="M116.299 75.4579C116.849 79.0073 121.933 69.874 119.091 67.8708C115.622 65.4169 115.259 68.7034 116.299 75.4579Z" fill="#263238"/>
<path d="M101.832 70.8255C101.506 76.591 101.012 79.9401 103.66 83.2704C107.641 88.2784 115.285 86.6258 117.394 81.1107C119.272 76.1402 119.504 67.5515 113.964 64.5092C108.424 61.4668 102.157 65.0663 101.832 70.8255Z" fill="#FFC3BD"/>
<path d="M113.194 67.3637C113.194 67.3637 116.881 70.982 119.51 69.4859C122.139 67.9897 122.671 64.1148 119.51 60.7219C117.989 59.088 115.685 57.4917 111.165 57.5919C111.522 57.9392 111.949 58.2061 112.417 58.3744C112.417 58.3744 106.683 57.4166 102.689 59.063C103.009 59.5443 103.438 59.9433 103.941 60.2273C100.054 59.9331 96.2728 61.4793 98.9333 65.1289C95.409 65.4732 94.6202 69.9804 96.4982 72.9539C98.3762 75.9274 98.708 78.156 101.218 79.5081C101.218 75.4579 102.151 74.5001 102.151 74.5001C103.96 73.7302 106.045 69.874 105.625 67.9271C109.494 69.4859 113.619 69.9992 113.194 67.3637Z" fill="#263238"/>
<path d="M99.8593 64.9974C98.6326 64.123 97.6796 62.9181 97.1112 61.5231C96.6605 63.5388 98.745 65.8362 98.745 65.8362L99.8593 64.9974Z" fill="#263238"/>
<path d="M98.9523 73.9743C98.9951 75.2945 99.5131 76.5549 100.411 77.5237C101.607 78.7757 103.234 77.7115 103.541 76.1027C103.791 74.6566 103.178 72.4469 101.663 71.7958C100.148 71.1448 98.9085 72.3592 98.9523 73.9743Z" fill="#FFC3BD"/>
<path d="M111.272 73.799C111.178 74.2748 111.347 74.7193 111.654 74.7944C111.961 74.8695 112.28 74.544 112.386 74.0682C112.493 73.5925 112.311 73.148 112.004 73.0729C111.698 72.9978 111.366 73.3295 111.272 73.799Z" fill="#263238"/>
<path d="M116.592 75.0697C116.492 75.5455 116.667 75.9837 116.974 76.0588C117.281 76.1339 117.6 75.8084 117.706 75.3326C117.813 74.8569 117.625 74.4124 117.318 74.3436C117.012 74.2747 116.686 74.594 116.592 75.0697Z" fill="#263238"/>
<path d="M114.821 75.0323C114.959 76.3959 115.279 77.7349 115.773 79.0137C114.896 79.4582 113.794 78.7883 113.794 78.7883L114.821 75.0323Z" fill="#ED847E"/>
<path d="M112.811 81.4488C112.26 81.3334 111.738 81.1075 111.276 80.7847C110.815 80.4619 110.424 80.049 110.126 79.5708C110.114 79.5542 110.106 79.5353 110.102 79.5154C110.097 79.4954 110.098 79.4747 110.102 79.4548C110.107 79.4349 110.115 79.4162 110.128 79.3999C110.14 79.3836 110.155 79.3701 110.173 79.3602C110.191 79.3504 110.211 79.3445 110.231 79.3429C110.252 79.3412 110.272 79.344 110.291 79.3509C110.31 79.3577 110.328 79.3686 110.343 79.3828C110.357 79.397 110.369 79.4141 110.376 79.433C110.708 79.9441 111.153 80.3723 111.676 80.6849C112.199 80.9974 112.786 81.1859 113.394 81.2359C113.412 81.2366 113.43 81.2412 113.447 81.2493C113.463 81.2574 113.478 81.269 113.49 81.2831C113.502 81.2973 113.51 81.3138 113.515 81.3315C113.52 81.3493 113.522 81.3679 113.519 81.3862C113.518 81.4048 113.514 81.4231 113.505 81.44C113.497 81.4568 113.486 81.4718 113.472 81.4841C113.458 81.4964 113.441 81.5057 113.424 81.5115C113.406 81.5172 113.387 81.5193 113.369 81.5176C113.182 81.5057 112.996 81.4827 112.811 81.4488Z" fill="#263238"/>
<path d="M110.57 71.8834C110.527 71.8659 110.488 71.8379 110.458 71.802C110.41 71.7435 110.388 71.6689 110.395 71.594C110.402 71.5192 110.438 71.45 110.495 71.4014C110.834 71.1089 111.24 70.9044 111.677 70.8062C112.113 70.7079 112.568 70.7188 112.999 70.838C113.071 70.862 113.129 70.9135 113.163 70.981C113.196 71.0485 113.202 71.1265 113.178 71.1979C113.154 71.2693 113.102 71.3282 113.035 71.3617C112.967 71.3951 112.889 71.4004 112.818 71.3763C112.478 71.2902 112.122 71.2874 111.781 71.368C111.44 71.4487 111.124 71.6104 110.858 71.8396C110.819 71.8724 110.771 71.8939 110.72 71.9016C110.67 71.9093 110.618 71.903 110.57 71.8834Z" fill="#263238"/>
<path d="M117.25 71.9898C117.24 71.9444 117.24 71.8975 117.25 71.8521C117.271 71.7803 117.32 71.7196 117.385 71.6823C117.45 71.6451 117.527 71.6342 117.6 71.6518C118.031 71.7667 118.428 71.9853 118.755 72.2887C119.083 72.592 119.331 72.9708 119.478 73.3921C119.489 73.4278 119.492 73.4653 119.488 73.5023C119.484 73.5394 119.472 73.5753 119.454 73.6079C119.436 73.6405 119.412 73.6692 119.383 73.6923C119.354 73.7154 119.32 73.7325 119.284 73.7426C119.248 73.7531 119.211 73.7564 119.174 73.7523C119.137 73.7482 119.101 73.7368 119.068 73.7188C119.036 73.7007 119.007 73.6764 118.984 73.6472C118.961 73.618 118.944 73.5844 118.934 73.5486C118.813 73.2191 118.614 72.9241 118.353 72.6895C118.092 72.4548 117.778 72.2877 117.437 72.2027C117.391 72.1854 117.35 72.1569 117.317 72.1198C117.284 72.0827 117.261 72.038 117.25 71.9898Z" fill="#263238"/>
<path d="M92.5294 95.7027C91.3275 99.1332 90.1255 102.708 89.0551 106.213C88.5105 107.966 88.0159 109.725 87.5715 111.459C87.1407 113.125 86.8063 114.813 86.5699 116.517C86.5699 116.705 86.5198 116.912 86.5135 117.093V117.369C86.5135 117.456 86.5135 117.588 86.5135 117.544C86.5135 117.5 86.4634 117.581 86.5135 117.713C86.6723 118.191 86.9304 118.631 87.271 119.002C88.3463 120.193 89.566 121.244 90.9018 122.132C93.9163 124.165 97.0638 125.993 100.323 127.604L98.9834 131.46C97.0436 131.037 95.1308 130.497 93.2555 129.845C91.3449 129.19 89.4796 128.41 87.6716 127.51C85.689 126.543 83.855 125.297 82.2254 123.81C81.19 122.856 80.3557 121.705 79.7715 120.423C79.407 119.6 79.1949 118.718 79.1455 117.819C79.1455 117.538 79.1455 117.437 79.1455 117.287V116.849C79.1455 116.555 79.1455 116.286 79.1455 116.004C79.2533 113.92 79.5148 111.846 79.928 109.8C80.3036 107.822 80.7731 105.906 81.2802 104.003C82.2958 100.224 83.5099 96.5002 84.9172 92.8481L92.5294 95.7027Z" fill="#FFC3BD"/>
<path d="M90.7699 87.0702C96.8922 87.0139 98.0503 91.7777 94.72 99.3273C93.4457 102.055 91.8888 104.642 90.0751 107.046L79.9526 101.669C81.3048 95.6401 83.7775 87.1328 90.7699 87.0702Z" fill="#92E3A9"/>
<path d="M107.672 127.003L105.431 125.751C105.065 125.55 104.644 125.471 104.229 125.525L101.538 125.901C99.7284 126.089 98.4075 127.472 97.4247 128.674L96.2791 130.076C96.2228 132.906 103.372 132.242 103.372 132.242L109.632 132.161L109.438 129.695C109.388 129.135 109.201 128.597 108.893 128.127C108.585 127.657 108.166 127.271 107.672 127.003Z" fill="#FFC3BD"/>
<path d="M241.223 130.765H71.771V138.697H241.223V130.765Z" fill="#92E3A9"/>
<path opacity="0.3" d="M126.734 130.765H71.771V138.697H126.734V130.765Z" fill="#F5F5F5"/>
<path d="M76.3094 138.697H73.7178V226.136H76.3094V138.697Z" fill="#92E3A9"/>
<path opacity="0.7" d="M76.3094 138.697H73.7178V226.136H76.3094V138.697Z" fill="#F5F5F5"/>
<path d="M124.793 138.697H122.202V226.136H124.793V138.697Z" fill="#92E3A9"/>
<path opacity="0.7" d="M124.793 138.697H122.202V226.136H124.793V138.697Z" fill="#F5F5F5"/>
<path d="M190.799 138.697H188.207V226.136H190.799V138.697Z" fill="#92E3A9"/>
<path opacity="0.7" d="M190.799 138.697H188.207V226.136H190.799V138.697Z" fill="#F5F5F5"/>
<path d="M239.282 138.697H236.69V226.136H239.282V138.697Z" fill="#92E3A9"/>
<path opacity="0.7" d="M239.282 138.697H236.69V226.136H239.282V138.697Z" fill="#F5F5F5"/>
<path d="M222.856 95.7092H176.532C175.738 95.7378 174.978 96.0352 174.375 96.5527C173.772 97.0702 173.363 97.7771 173.214 98.5575L168.382 127.911C168.308 128.261 168.314 128.623 168.4 128.97C168.486 129.317 168.65 129.64 168.879 129.915C169.108 130.189 169.396 130.409 169.722 130.556C170.048 130.703 170.403 130.775 170.76 130.765H217.084C217.88 130.738 218.643 130.44 219.247 129.921C219.852 129.402 220.261 128.693 220.409 127.911L225.241 98.5575C225.315 98.2074 225.309 97.845 225.223 97.4977C225.136 97.1504 224.972 96.8273 224.742 96.5529C224.512 96.2785 224.223 96.0599 223.896 95.9138C223.57 95.7676 223.214 95.6977 222.856 95.7092Z" fill="#263238"/>
<path d="M193.44 128.85H149.827C149.54 128.85 149.307 129.082 149.307 129.369V130.246C149.307 130.533 149.54 130.765 149.827 130.765H193.44C193.727 130.765 193.96 130.533 193.96 130.246V129.369C193.96 129.082 193.727 128.85 193.44 128.85Z" fill="#263238"/>
<path opacity="0.2" d="M222.856 95.7093H177.546C176.752 95.7379 175.992 96.0352 175.389 96.5527C174.786 97.0702 174.377 97.7771 174.229 98.5576L169.396 127.911C169.321 128.261 169.326 128.623 169.412 128.971C169.497 129.319 169.661 129.642 169.89 129.917C170.119 130.192 170.408 130.412 170.735 130.558C171.061 130.705 171.417 130.776 171.775 130.765H217.053C217.849 130.738 218.612 130.44 219.216 129.921C219.82 129.402 220.23 128.693 220.377 127.911L225.21 98.5576C225.284 98.2101 225.278 97.8505 225.193 97.5056C225.108 97.1607 224.947 96.8393 224.72 96.5655C224.494 96.2917 224.209 96.0725 223.886 95.9243C223.563 95.776 223.211 95.7025 222.856 95.7093Z" fill="#F5F5F5"/>
<path d="M102.952 128.85C102.952 128.85 117.87 131.072 125.069 128.136C128.437 129.757 140.431 130.559 144.606 128.85C143.317 130.346 140.287 130.765 140.287 130.765H108.818C105.794 130.765 103.484 129.444 102.952 128.85Z" fill="#92E3A9"/>
<path opacity="0.7" d="M102.952 128.85C102.952 128.85 117.87 131.072 125.069 128.136C128.437 129.757 140.431 130.559 144.606 128.85C143.317 130.346 140.287 130.765 140.287 130.765H108.818C105.794 130.765 103.484 129.444 102.952 128.85Z" fill="#F5F5F5"/>
<path d="M27.3604 225.995L62.1919 225.732L97.0193 225.634L166.678 225.448L236.337 225.634L271.164 225.732L305.996 225.995L271.164 226.268L236.337 226.356L166.678 226.542L97.0193 226.356L62.1919 226.257L27.3604 225.995Z" fill="#263238"/>
</svg>
