<svg width="284" height="199" viewBox="0 0 284 199" fill="none" xmlns="http://www.w3.org/2000/svg">
<path d="M174.05 178.121C174.05 178.121 216.633 170.564 242.993 153.65C269.353 136.736 277.674 111.541 262.163 89.9346C246.653 68.3276 202.117 64.8975 170.245 48.2647C138.374 31.6318 97.1566 28.6228 70.1976 51.2079C43.2386 73.793 65.5547 86.5922 58.731 116.011C51.9074 145.43 74.7866 192.912 174.05 178.121Z" fill="#92E3A9"/>
<path opacity="0.8" d="M174.05 178.121C174.05 178.121 216.633 170.564 242.993 153.65C269.353 136.736 277.674 111.541 262.163 89.9346C246.653 68.3276 202.117 64.8975 170.245 48.2647C138.374 31.6318 97.1566 28.6228 70.1976 51.2079C43.2386 73.793 65.5547 86.5922 58.731 116.011C51.9074 145.43 74.7866 192.912 174.05 178.121Z" fill="white"/>
<path d="M45.3639 112.287C45.4049 112.287 46.1154 109.929 46.1427 109.759C46.4296 107.99 45.767 104.347 43.6492 103.463C43.2923 103.325 42.9057 103.253 42.5145 103.252C42.1233 103.252 41.7363 103.322 41.3787 103.459C41.0211 103.596 40.7008 103.796 40.4388 104.046C40.1767 104.297 39.9787 104.592 39.8577 104.913C39.2907 106.257 40.0148 107.914 40.8619 109.039C41.8662 110.383 45.3639 112.281 45.3639 112.287Z" fill="#92E3A9"/>
<path d="M57.6952 99.3959C55.352 99.1837 52.5784 101.948 51.7176 103.605C51.6493 103.746 50.7885 106.104 50.8295 106.098H50.8842C50.4401 106.534 49.9687 107.006 49.47 107.525C48.5546 108.497 47.5299 109.599 46.512 110.867C45.3938 112.218 44.3696 113.625 43.4446 115.081C42.3941 116.707 41.5161 118.412 40.8213 120.174V120.239C40.8213 119.65 40.8213 117.981 40.7803 117.852C40.5139 116.054 38.7309 112.718 36.4492 112.346C36.0626 112.294 35.6674 112.312 35.2897 112.4C34.9119 112.488 34.5599 112.645 34.2569 112.858C33.9538 113.072 33.7064 113.338 33.5309 113.64C33.3554 113.942 33.2557 114.272 33.2383 114.61C33.1017 116.036 34.3041 117.469 35.4722 118.37C36.7907 119.384 40.4593 120.375 40.753 120.451C40.0875 122.242 39.5626 124.07 39.1818 125.921C38.9563 127.006 38.7719 128.102 38.6011 129.211C38.6011 128.698 38.6011 128.238 38.6011 128.173C38.3346 126.375 36.5516 123.033 34.2699 122.668C33.8838 122.615 33.4893 122.633 33.112 122.721C32.7346 122.809 32.383 122.965 32.08 123.178C31.7771 123.391 31.5296 123.656 31.3536 123.957C31.1777 124.259 31.0774 124.588 31.0591 124.925C30.9225 126.358 32.1248 127.784 33.293 128.686C34.4612 129.588 37.59 130.496 38.4098 130.725L38.2253 131.999C37.9453 134.032 37.672 136.072 37.3372 138.058C37.2211 138.76 37.0708 139.443 36.9274 140.133C36.9274 139.673 36.9274 139.29 36.9274 139.231C36.6541 137.433 34.8779 134.097 32.5962 133.726C32.2096 133.673 31.8145 133.692 31.4367 133.78C31.0589 133.868 30.707 134.024 30.4039 134.238C30.1008 134.451 29.8534 134.718 29.6779 135.02C29.5024 135.321 29.4027 135.652 29.3854 135.989C29.2487 137.416 30.4511 138.848 31.6193 139.75C32.7875 140.652 35.6089 141.471 36.5858 141.742C36.415 142.444 36.2442 143.145 36.0461 143.817C35.8958 144.271 35.7865 144.719 35.602 145.173C35.4176 145.627 35.2673 146.063 35.1033 146.505C34.7481 147.342 34.4202 148.209 34.024 149.022C33.7712 149.612 33.5184 150.124 33.2657 150.661C33.3955 149.965 33.6141 148.598 33.6141 148.48C33.5879 146.885 33.0893 145.323 32.1658 143.941C32.1726 143.763 32.1588 143.586 32.1248 143.41C32.0771 143.074 31.9475 142.751 31.7445 142.461C31.5415 142.172 31.2698 141.922 30.9472 141.73C30.6246 141.537 30.2583 141.405 29.8726 141.344C29.4868 141.282 29.0903 141.291 28.709 141.371C26.4341 141.896 24.9927 145.338 24.8834 147.148C24.8834 147.254 24.9585 148.421 25.02 149.158C24.9107 148.727 24.8014 148.315 24.6784 147.879C24.4393 147.006 24.1729 146.146 23.886 145.22C23.7357 144.778 23.5786 144.33 23.4146 143.882C23.2507 143.434 23.0525 142.968 22.8681 142.509C22.4172 141.448 21.9048 140.387 21.3583 139.337C22.2396 139.155 25.3548 138.465 26.6049 137.64C27.8551 136.814 29.1667 135.465 29.1531 134.032C29.164 133.695 29.0924 133.36 28.9431 133.048C28.7937 132.737 28.57 132.456 28.2863 132.224C28.0027 131.992 27.6656 131.814 27.2971 131.702C26.9285 131.59 26.5367 131.547 26.1472 131.574C23.8108 131.792 21.775 135.005 21.3652 136.785C21.3652 136.897 21.2012 138.2 21.1397 138.913C20.805 138.282 20.4566 137.652 20.115 137.021C19.0698 135.205 17.9426 133.396 16.8359 131.586L15.8248 129.918C16.139 129.853 19.8622 129.11 21.29 128.179C22.5333 127.36 23.8587 126.01 23.845 124.577C23.8558 124.24 23.7842 123.905 23.6349 123.593C23.4857 123.281 23.262 123 22.9785 122.767C22.695 122.535 22.358 122.357 21.9895 122.244C21.6209 122.131 21.2289 122.087 20.8391 122.114C18.4959 122.332 16.4669 125.55 16.0571 127.324C16.0571 127.46 15.8248 129.334 15.8043 129.818C15.0665 128.592 14.3492 127.366 13.6934 126.134C12.7972 124.472 12.0304 122.761 11.398 121.011C11.5414 121.011 15.4354 120.221 16.8632 119.272C18.1065 118.447 19.425 117.097 19.4113 115.665C19.4222 115.328 19.3507 114.993 19.2013 114.681C19.052 114.369 18.8282 114.089 18.5446 113.857C18.261 113.625 17.9239 113.447 17.5553 113.335C17.1867 113.223 16.7949 113.179 16.4055 113.207C14.0691 113.425 12.0401 116.643 11.6234 118.418C11.6234 118.536 11.4458 119.962 11.3911 120.646H11.2613C10.6725 118.873 10.2724 117.058 10.0658 115.223C9.92919 114.215 9.87454 113.242 9.84038 112.276C10.5782 112.199 13.9393 111.81 15.3602 111.097C16.7812 110.383 18.1885 109.175 18.3593 107.749C18.4121 107.414 18.383 107.074 18.2737 106.751C18.1644 106.427 17.9774 106.127 17.7249 105.869C17.4723 105.612 17.1599 105.403 16.8078 105.257C16.4558 105.11 16.072 105.029 15.6813 105.019C13.3313 105.019 10.8993 108.02 10.2571 109.735C10.2571 109.829 9.98384 110.814 9.82672 111.539C9.82672 111.108 9.82672 110.672 9.82672 110.26C9.82672 108.727 9.94285 107.312 10.059 106.074C10.1273 105.367 10.2024 104.73 10.2844 104.135C10.9676 103.728 13.7002 102.072 14.5268 100.887C15.3534 99.7024 16.0092 98.0638 15.4012 96.7257C15.2695 96.4085 15.0619 96.1187 14.7921 95.8751C14.5222 95.6316 14.196 95.4397 13.8347 95.3118C13.4734 95.184 13.0849 95.1231 12.6946 95.1331C12.3042 95.1432 11.9207 95.2238 11.5688 95.37C9.34168 96.3485 8.78832 99.9854 9.13673 101.754C9.13673 101.913 9.95651 104.283 9.99067 104.259H10.0317C9.94285 104.848 9.85404 105.438 9.76523 106.122C9.62177 107.365 9.47831 108.774 9.43732 110.313C9.36961 111.974 9.41523 113.637 9.57395 115.294C9.7389 117.148 10.0956 118.987 10.6397 120.787C10.6397 120.787 10.6397 120.834 10.6397 120.852C10.2639 120.351 9.17772 118.978 9.08208 118.877C7.71578 117.51 4.11556 115.559 1.94997 116.349C1.59395 116.488 1.27611 116.691 1.0172 116.944C0.758291 117.197 0.564144 117.494 0.447446 117.817C0.330747 118.139 0.294124 118.478 0.339963 118.814C0.385803 119.149 0.513076 119.472 0.713468 119.762C1.51276 121.023 3.44608 121.642 4.98317 121.836C6.73204 122.055 10.4484 121.135 10.7148 121.058C11.3215 122.879 12.0678 124.663 12.9487 126.399C13.4543 127.413 14.0008 128.421 14.5678 129.423C14.233 128.998 13.9256 128.621 13.8846 128.568C12.5183 127.2 8.91812 125.249 6.75253 126.039C6.39877 126.182 6.08362 126.387 5.82741 126.641C5.5712 126.896 5.37963 127.194 5.26505 127.516C5.15047 127.838 5.11543 128.177 5.16219 128.512C5.20895 128.846 5.33647 129.169 5.53652 129.458C6.33581 130.714 8.26913 131.338 9.80622 131.533C11.3433 131.727 14.5473 130.997 15.3807 130.796L16.0639 131.946C17.1296 133.779 18.209 135.606 19.1996 137.428C19.548 138.064 19.8827 138.707 20.1833 139.349C19.8827 138.972 19.6299 138.659 19.5821 138.612C18.2158 137.239 14.6156 135.288 12.45 136.084C12.0946 136.224 11.7774 136.427 11.5192 136.68C11.261 136.934 11.0676 137.231 10.9516 137.553C10.8355 137.875 10.7995 138.215 10.8458 138.549C10.8921 138.884 11.0197 139.207 11.2203 139.497C12.0196 140.752 13.953 141.371 15.49 141.571C17.0271 141.772 19.9169 141.106 20.9074 140.87C21.2149 141.53 21.5154 142.202 21.775 142.856C21.9458 143.31 22.1371 143.735 22.2806 144.194C22.424 144.654 22.5675 145.102 22.7178 145.544C22.9569 146.417 23.2097 147.313 23.4009 148.161C23.5512 148.751 23.6879 149.34 23.8177 149.889C23.4829 149.246 22.7861 148.002 22.711 147.902C21.5974 146.37 18.3866 143.97 16.1049 144.472C15.7287 144.563 15.3793 144.723 15.0794 144.939C14.7795 145.156 14.5358 145.424 14.3643 145.727C14.1928 146.031 14.0974 146.362 14.0842 146.699C14.071 147.036 14.1403 147.372 14.2877 147.684C14.8615 149.028 16.6446 149.894 18.1475 150.289C19.8007 150.726 23.4556 150.325 23.9133 150.289C24.1319 151.233 24.3369 152.152 24.5077 153.019C25.1293 156.037 25.5051 158.565 25.7442 160.34C25.7851 160.652 25.8193 160.929 25.8535 161.2H18.7692L20.9484 197.994H33.819L36.0051 161.2H29.4058L29.5561 160.941C30.4579 159.308 31.7149 156.974 33.0744 154.109C33.5048 153.207 33.942 152.235 34.386 151.233C34.8232 151.309 38.4849 151.946 40.1382 151.616C41.6684 151.321 43.5539 150.572 44.2371 149.258C44.4095 148.956 44.5064 148.625 44.5215 148.289C44.5365 147.952 44.4694 147.616 44.3245 147.303C44.1796 146.991 43.9601 146.707 43.6802 146.472C43.4004 146.237 43.0664 146.056 42.7 145.939C40.4661 145.291 37.064 147.478 35.8138 148.934C35.7387 149.022 35.0624 150.036 34.6456 150.702C34.8232 150.289 35.0009 149.894 35.1785 149.47C35.5337 148.633 35.8616 147.784 36.2169 146.876C36.3672 146.434 36.5243 145.986 36.6814 145.533C36.8385 145.079 36.9615 144.601 37.105 144.13C37.4056 143.027 37.6515 141.901 37.8701 140.764C38.7172 141.029 41.7572 141.943 43.3353 141.848C44.9134 141.754 46.8672 141.259 47.769 140.08C47.9941 139.804 48.1492 139.49 48.2241 139.159C48.299 138.828 48.292 138.486 48.2037 138.158C48.1154 137.829 47.9476 137.52 47.7114 137.251C47.4753 136.982 47.1759 136.759 46.8331 136.596C44.7426 135.665 40.9921 137.38 39.5028 138.659C39.414 138.736 38.4644 139.762 37.9521 140.328C38.0819 139.644 38.2049 138.96 38.3073 138.259C38.5942 136.249 38.8197 134.203 39.0451 132.164L39.2706 130.295C39.5712 130.389 43.1577 131.539 44.9202 131.433C46.4846 131.338 48.4453 130.843 49.3539 129.664C49.579 129.388 49.7341 129.074 49.809 128.743C49.8839 128.412 49.8769 128.071 49.7886 127.742C49.7003 127.413 49.5326 127.104 49.2964 126.835C49.0602 126.566 48.7609 126.343 48.418 126.181C46.3275 125.249 42.577 126.965 41.0878 128.244C40.9785 128.344 39.6121 129.812 39.2842 130.201C39.455 128.833 39.6395 127.466 39.8786 126.128C40.1997 124.316 40.6561 122.524 41.2449 120.764C41.3815 120.811 45.1183 122.025 46.9219 121.943C48.4863 121.848 50.4469 121.353 51.3555 120.174C51.5806 119.898 51.7357 119.584 51.8106 119.253C51.8855 118.922 51.8786 118.581 51.7903 118.252C51.7019 117.923 51.5342 117.614 51.298 117.345C51.0618 117.076 50.7625 116.853 50.4196 116.691C48.3292 115.759 44.5787 117.474 43.0894 118.754C42.9937 118.842 41.9554 119.962 41.4703 120.522L41.3542 120.469C41.9952 118.71 42.8207 117.005 43.8204 115.376C44.3532 114.468 44.9271 113.608 45.5009 112.83C46.1841 113.118 49.2378 114.403 50.8773 114.456C52.5169 114.51 54.4639 114.209 55.5159 113.101C55.77 112.847 55.9601 112.551 56.0741 112.231C56.188 111.91 56.2233 111.573 56.1776 111.24C56.132 110.907 56.0064 110.586 55.809 110.298C55.6115 110.009 55.3465 109.759 55.0309 109.564C53.0702 108.438 49.1216 109.794 47.5162 110.92C47.4274 110.985 46.594 111.692 45.9996 112.222C46.266 111.863 46.5325 111.486 46.7989 111.144C47.7826 109.865 48.7732 108.745 49.6613 107.76C50.1737 107.206 50.645 106.711 51.0959 106.251C51.9225 106.251 55.2563 106.151 56.7114 105.562C58.1665 104.972 59.7583 103.911 60.1272 102.508C60.2515 102.164 60.2845 101.8 60.2239 101.444C60.1633 101.087 60.0107 100.747 59.7772 100.448C59.5437 100.149 59.2354 99.8998 58.875 99.7176C58.5146 99.5355 58.1114 99.4255 57.6952 99.3959ZM31.7901 153.626C30.3759 156.432 29.0574 158.725 28.1352 160.316C27.9507 160.634 27.7799 160.906 27.6228 161.183H27.4384C27.3906 160.87 27.3427 160.534 27.2812 160.151C26.9943 158.383 26.5434 155.813 25.8466 152.783C25.628 151.822 25.3753 150.802 25.102 149.753C26.2028 149.373 27.2771 148.938 28.3196 148.45C29.522 149.576 32.6098 150.891 33.0061 151.062C32.6167 151.94 32.2204 152.8 31.7901 153.626Z" fill="#92E3A9"/>
<path d="M3.58251 111.503C5.2699 112.14 9.40297 112.057 9.4098 112.057C9.41663 112.057 8.5217 109.7 8.43972 109.582C7.53113 107.949 4.66872 105.243 2.33234 105.52C1.94746 105.575 1.58024 105.699 1.25442 105.884C0.928604 106.07 0.651449 106.312 0.440886 106.595C0.230323 106.878 0.0910407 107.197 0.0320509 107.529C-0.0269389 107.862 -0.00432396 108.202 0.098434 108.527C0.487831 109.924 2.16155 110.961 3.58251 111.503Z" fill="#92E3A9"/>
<path opacity="0.3" d="M3.58251 111.503C5.2699 112.14 9.40297 112.057 9.4098 112.057C9.41663 112.057 8.5217 109.7 8.43972 109.582C7.53113 107.949 4.66872 105.243 2.33234 105.52C1.94746 105.575 1.58024 105.699 1.25442 105.884C0.928604 106.07 0.651449 106.312 0.440886 106.595C0.230323 106.878 0.0910407 107.197 0.0320509 107.529C-0.0269389 107.862 -0.00432396 108.202 0.098434 108.527C0.487831 109.924 2.16155 110.961 3.58251 111.503Z" fill="white"/>
<path opacity="0.3" d="M45.3639 112.287C45.4049 112.287 46.1154 109.929 46.1427 109.759C46.4296 107.99 45.767 104.347 43.6492 103.463C43.2923 103.325 42.9057 103.253 42.5145 103.252C42.1233 103.252 41.7363 103.322 41.3787 103.459C41.0211 103.596 40.7008 103.796 40.4388 104.046C40.1767 104.297 39.9787 104.592 39.8577 104.913C39.2907 106.257 40.0148 107.914 40.8619 109.039C41.8662 110.383 45.3639 112.281 45.3639 112.287Z" fill="white"/>
<path opacity="0.3" d="M10.7421 121.047C11.3488 122.867 12.0951 124.652 12.976 126.387C13.4816 127.401 14.0281 128.409 14.5951 129.411C14.2604 128.987 13.953 128.609 13.912 128.556C12.5457 127.189 8.94545 125.238 6.77986 126.027C6.42188 126.168 6.10226 126.372 5.8419 126.626C5.58153 126.88 5.38629 127.179 5.26894 127.503C5.15158 127.827 5.11476 128.168 5.16087 128.505C5.20698 128.842 5.33498 129.167 5.53652 129.458C6.33581 130.714 8.26913 131.338 9.80622 131.533C11.3433 131.727 14.5473 130.997 15.3807 130.796L16.0639 131.946C17.1296 133.779 18.209 135.606 19.1996 137.428C19.548 138.064 19.8827 138.707 20.1833 139.349C19.8827 138.972 19.6299 138.659 19.5821 138.612C18.2158 137.239 14.6156 135.288 12.45 136.084C12.0946 136.224 11.7774 136.427 11.5192 136.68C11.261 136.934 11.0676 137.231 10.9516 137.553C10.8355 137.875 10.7995 138.215 10.8458 138.549C10.8921 138.884 11.0197 139.207 11.2203 139.497C12.0196 140.752 13.953 141.371 15.49 141.571C17.0271 141.772 19.9169 141.106 20.9074 140.87C21.2149 141.53 21.5154 142.202 21.775 142.856C21.9458 143.31 22.1371 143.735 22.2806 144.194C22.424 144.654 22.5675 145.102 22.7178 145.544C22.9569 146.417 23.2097 147.313 23.4009 148.161C23.5512 148.751 23.6879 149.34 23.8177 149.889C23.4829 149.246 22.7861 148.002 22.711 147.902C21.5974 146.37 18.3866 143.97 16.1049 144.472C15.7287 144.563 15.3793 144.723 15.0794 144.939C14.7795 145.156 14.5358 145.424 14.3643 145.727C14.1928 146.031 14.0974 146.362 14.0842 146.699C14.071 147.036 14.1403 147.372 14.2877 147.684C14.8615 149.028 16.6446 149.894 18.1475 150.289C19.8007 150.726 23.4556 150.325 23.9133 150.289C24.1319 151.233 24.3369 152.152 24.5077 153.019C25.1293 156.037 25.5051 158.565 25.7442 160.34C25.7851 160.652 25.8193 160.929 25.8535 161.2H18.7692L20.9484 197.994H33.819L36.0051 161.2H29.4059L29.5561 160.941C30.4579 159.308 31.7149 156.974 33.0744 154.109C33.5048 153.207 33.942 152.235 34.386 151.233C34.8232 151.309 38.4849 151.946 40.1382 151.616C41.6684 151.321 43.5539 150.572 44.2371 149.258C44.4095 148.956 44.5064 148.625 44.5215 148.289C44.5365 147.952 44.4694 147.616 44.3245 147.303C44.1796 146.991 43.9601 146.707 43.6802 146.472C43.4004 146.237 43.0664 146.056 42.7 145.939C40.4661 145.291 37.064 147.478 35.8138 148.934C35.7387 149.022 35.0624 150.036 34.6456 150.702C34.8233 150.289 35.0009 149.894 35.1785 149.47C35.5337 148.633 35.8616 147.784 36.2169 146.876C36.3672 146.434 36.5243 145.986 36.6814 145.533C36.8385 145.079 36.9615 144.601 37.105 144.13C37.4056 143.027 37.6515 141.901 37.8701 140.764C38.7172 141.029 41.7572 141.943 43.3353 141.848C44.9134 141.754 46.8672 141.259 47.769 140.08C47.9941 139.804 48.1492 139.49 48.2241 139.159C48.299 138.828 48.292 138.486 48.2037 138.158C48.1154 137.829 47.9476 137.52 47.7115 137.251C47.4753 136.982 47.176 136.759 46.8331 136.596C44.7426 135.665 40.9921 137.38 39.5028 138.659C39.414 138.736 38.4645 139.762 37.9521 140.328C38.0819 139.644 38.2049 138.96 38.3073 138.259C38.5943 136.249 38.8197 134.203 39.0451 132.164L39.2706 130.295C39.5712 130.389 43.1577 131.539 44.9202 131.433C46.4847 131.338 48.4453 130.843 49.3539 129.664C49.579 129.388 49.7341 129.074 49.809 128.743C49.8839 128.412 49.877 128.071 49.7886 127.742C49.7003 127.413 49.5326 127.104 49.2964 126.835C49.0602 126.566 48.7609 126.343 48.418 126.181C46.3275 125.249 42.577 126.965 41.0878 128.244C40.9785 128.344 39.6121 129.812 39.2842 130.201C39.455 128.833 39.6395 127.466 39.8786 126.128C40.1997 124.316 40.6561 122.524 41.2449 120.764C41.3815 120.811 45.1184 122.025 46.9219 121.943C48.4863 121.848 50.4469 121.353 51.3555 120.174C51.5806 119.898 51.7357 119.584 51.8106 119.253C51.8855 118.922 51.8786 118.581 51.7903 118.252C51.7019 117.923 51.5342 117.614 51.298 117.345C51.0618 117.076 50.7625 116.853 50.4196 116.691C48.3292 115.759 44.5787 117.474 43.0894 118.754C42.9938 118.842 41.9554 119.962 41.4703 120.522L41.3542 120.469C41.9952 118.71 42.8207 117.005 43.8204 115.376C44.3532 114.468 44.9271 113.608 45.5009 112.83C46.1841 113.118 49.2378 114.403 50.8773 114.456C52.5169 114.51 54.4639 114.209 55.5159 113.101C55.77 112.847 55.9601 112.551 56.0741 112.231C56.188 111.91 56.2233 111.573 56.1776 111.24C56.132 110.907 56.0064 110.586 55.809 110.298C55.6115 110.009 55.3465 109.759 55.0309 109.564C53.0702 108.438 49.1216 109.794 47.5162 110.92C47.4274 110.985 46.594 111.692 45.9996 112.222C46.266 111.863 46.5325 111.486 46.7989 111.144C47.7826 109.865 48.7732 108.745 49.6613 107.76C50.1737 107.206 50.6451 106.711 51.0959 106.251C51.9225 106.251 55.2563 106.151 56.7114 105.562C58.1666 104.972 59.7583 103.911 60.1272 102.508C60.2187 102.182 60.2298 101.842 60.1597 101.511C60.0897 101.181 59.9401 100.866 59.7206 100.588C59.5011 100.311 59.2165 100.076 58.8853 99.8989C58.5541 99.7219 58.1836 99.6068 57.7977 99.561C55.4544 99.3488 52.6808 102.113 51.8201 103.77C51.7518 103.911 50.891 106.269 50.932 106.263H50.9866C50.5426 106.699 50.0712 107.171 49.5725 107.69C48.6571 108.662 47.6324 109.764 46.6145 111.032C45.4963 112.383 44.472 113.79 43.5471 115.246C42.4966 116.872 41.6186 118.577 40.9238 120.339V120.404C40.9238 119.815 40.9238 118.146 40.8828 118.017C40.6164 116.219 38.8334 112.883 36.5516 112.511C36.165 112.459 35.7699 112.477 35.3921 112.565C35.0144 112.654 34.6624 112.81 34.3593 113.023C34.0563 113.237 33.8089 113.503 33.6334 113.805C33.4578 114.107 33.3582 114.437 33.3408 114.775C33.2042 116.201 34.4065 117.634 35.5747 118.536C36.8932 119.549 40.5617 120.54 40.8555 120.616C40.1635 122.351 39.6044 124.123 39.1818 125.921C38.9563 127.006 38.7719 128.102 38.6011 129.211C38.6011 128.698 38.6011 128.238 38.6011 128.173C38.3346 126.375 36.5516 123.033 34.2699 122.668C33.8838 122.615 33.4893 122.633 33.112 122.721C32.7346 122.809 32.383 122.965 32.08 123.178C31.7771 123.391 31.5296 123.656 31.3536 123.957C31.1777 124.259 31.0774 124.588 31.0591 124.925C30.9225 126.358 32.1248 127.784 33.293 128.686C34.4612 129.588 37.59 130.496 38.4098 130.725L38.2253 131.999C37.9453 134.032 37.672 136.072 37.3372 138.058C37.2211 138.76 37.0708 139.443 36.9274 140.133C36.9274 139.673 36.9274 139.29 36.9274 139.231C36.6541 137.433 34.8779 134.097 32.5962 133.726C32.2096 133.673 31.8145 133.692 31.4367 133.78C31.0589 133.868 30.707 134.024 30.4039 134.238C30.1008 134.451 29.8534 134.718 29.6779 135.02C29.5024 135.321 29.4027 135.652 29.3854 135.989C29.2487 137.416 30.4511 138.848 31.6193 139.75C32.7875 140.652 35.6089 141.471 36.5858 141.742C36.415 142.444 36.2442 143.145 36.0461 143.817C35.8958 144.271 35.7865 144.719 35.602 145.173C35.4176 145.627 35.2673 146.063 35.1033 146.505C34.7481 147.342 34.4202 148.209 34.024 149.022C33.7712 149.612 33.5184 150.124 33.2657 150.661C33.3955 149.965 33.6141 148.598 33.6141 148.48C33.5879 146.885 33.0894 145.323 32.1658 143.941C32.1726 143.763 32.1588 143.586 32.1248 143.41C32.0771 143.074 31.9475 142.751 31.7445 142.461C31.5415 142.172 31.2698 141.922 30.9472 141.73C30.6246 141.537 30.2583 141.405 29.8726 141.344C29.4868 141.282 29.0903 141.291 28.709 141.371C26.4341 141.896 24.9927 145.338 24.8834 147.148C24.8834 147.254 24.9585 148.421 25.02 149.158C24.9107 148.727 24.8014 148.315 24.6784 147.879C24.4393 147.006 24.1729 146.146 23.886 145.22C23.7357 144.778 23.5786 144.33 23.4146 143.882C23.2507 143.434 23.0525 142.968 22.8681 142.509C22.4172 141.448 21.9048 140.387 21.3583 139.337C22.2396 139.155 25.3548 138.465 26.6049 137.64C27.8551 136.814 29.1668 135.465 29.1531 134.032C29.164 133.695 29.0924 133.36 28.9431 133.048C28.7937 132.737 28.57 132.456 28.2863 132.224C28.0027 131.992 27.6656 131.814 27.2971 131.702C26.9285 131.59 26.5367 131.547 26.1472 131.574C23.8108 131.792 21.775 135.005 21.3652 136.785C21.3652 136.897 21.2012 138.2 21.1397 138.913C20.805 138.282 20.4566 137.652 20.115 137.021C19.0698 135.205 17.9426 133.396 16.8359 131.586L15.8248 129.918C16.139 129.853 19.8622 129.11 21.29 128.179C22.5333 127.36 23.8587 126.01 23.845 124.577C23.8558 124.24 23.7842 123.905 23.635 123.593C23.4857 123.281 23.262 123 22.9785 122.767C22.695 122.535 22.358 122.357 21.9895 122.244C21.6209 122.131 21.2289 122.087 20.8391 122.114C18.4959 122.332 16.467 125.55 16.0571 127.324C16.0571 127.46 15.8248 129.334 15.8043 129.818C15.0665 128.592 14.3492 127.366 13.6934 126.134C12.7972 124.472 12.0304 122.761 11.398 121.011C11.5414 121.011 15.4354 120.221 16.8632 119.272C18.1065 118.447 19.425 117.097 19.4113 115.665C19.4222 115.328 19.3507 114.993 19.2013 114.681C19.052 114.369 18.8282 114.089 18.5446 113.857C18.261 113.625 17.9239 113.447 17.5553 113.335C17.1867 113.223 16.7949 113.179 16.4055 113.207C14.0691 113.425 12.0401 116.643 11.6234 118.418C11.6234 118.536 11.4458 119.962 11.3911 120.646H11.2613C10.6725 118.873 10.2724 117.058 10.0658 115.223C9.92919 114.215 9.87454 113.242 9.84038 112.276C10.5782 112.199 13.9393 111.81 15.3602 111.097C16.7812 110.383 18.1885 109.175 18.3593 107.749C18.4121 107.414 18.383 107.074 18.2737 106.751C18.1644 106.427 17.9774 106.127 17.7249 105.869C17.4723 105.612 17.1599 105.403 16.8078 105.257C16.4558 105.11 16.072 105.029 15.6813 105.019C13.3313 105.019 10.8993 108.02 10.2571 109.735C10.2571 109.829 9.98384 110.814 9.82672 111.539C9.82672 111.108 9.82672 110.672 9.82672 110.26C9.82672 108.727 9.94285 107.312 10.059 106.074C10.1273 105.367 10.2024 104.73 10.2844 104.135C10.9676 103.728 13.7002 102.072 14.5268 100.887C15.3534 99.7024 16.0092 98.0638 15.4012 96.7257C15.2695 96.4085 15.062 96.1187 14.7921 95.8751C14.5222 95.6316 14.196 95.4397 13.8347 95.3118C13.4734 95.184 13.0849 95.1231 12.6946 95.1331C12.3042 95.1432 11.9207 95.2238 11.5688 95.37C9.34168 96.3485 8.78832 99.9854 9.13673 101.754C9.13673 101.913 9.95651 104.283 9.99067 104.259H10.0317C9.94285 104.848 9.85404 105.438 9.76523 106.122C9.62177 107.365 9.47831 108.774 9.43732 110.313C9.36961 111.974 9.41523 113.637 9.57395 115.294C9.7389 117.148 10.0956 118.987 10.6397 120.787C10.6397 120.787 10.6397 120.834 10.6397 120.852C10.2639 120.351 9.17772 118.978 9.08208 118.877C7.71578 117.51 4.11556 115.559 1.94997 116.349C1.59395 116.488 1.27611 116.691 1.0172 116.944C0.758291 117.197 0.564144 117.494 0.447446 117.817C0.330747 118.139 0.294124 118.478 0.339963 118.814C0.385803 119.149 0.513076 119.472 0.713468 119.762C1.51276 121.023 3.44608 121.642 4.98317 121.836C6.75936 122.043 10.4484 121.123 10.7421 121.047ZM28.347 148.439C29.5493 149.564 32.6372 150.879 33.0334 151.05C32.6167 151.94 32.1999 152.818 31.7901 153.614C30.3759 156.42 29.0574 158.713 28.1352 160.304C27.9507 160.623 27.78 160.894 27.6228 161.171H27.4384C27.3906 160.858 27.3427 160.522 27.2812 160.139C26.9943 158.371 26.5434 155.801 25.8466 152.771C25.628 151.81 25.3753 150.79 25.102 149.741C26.2121 149.362 27.2955 148.927 28.347 148.439Z" fill="white"/>
<path d="M46.7234 62.3784H257.954C259.849 62.3784 261.667 63.028 263.007 64.1843C264.347 65.3406 265.1 66.9089 265.1 68.5441V188.687H39.5776V68.5441C39.5776 66.9089 40.3305 65.3406 41.6706 64.1843C43.0107 63.028 44.8282 62.3784 46.7234 62.3784V62.3784Z" stroke="#2A2E43" stroke-linecap="round" stroke-linejoin="round"/>
<path d="M255.945 72.2458H48.7246V173.29H255.945V72.2458Z" stroke="#2A2E43" stroke-linecap="round" stroke-linejoin="round"/>
<path d="M230.348 182.604H75.3608V189.194H230.348V182.604Z" fill="#2A2E43" stroke="#2A2E43" stroke-linecap="round" stroke-linejoin="round"/>
<path d="M230.348 185.775H75.3608V189.194H230.348V185.775Z" fill="white" stroke="#2A2E43" stroke-linecap="round" stroke-linejoin="round"/>
<path d="M21.3369 193.119C21.3369 193.119 23.8851 195.807 31.5227 198H274.185C274.185 198 279.842 196.78 282.383 193.367L21.3369 193.119Z" fill="#2A2E43" stroke="#2A2E43" stroke-linecap="round" stroke-linejoin="round"/>
<path d="M281.645 188.292H22.1159C21.4028 188.292 20.8247 188.791 20.8247 189.406V192.306C20.8247 192.921 21.4028 193.42 22.1159 193.42H281.645C282.358 193.42 282.936 192.921 282.936 192.306V189.406C282.936 188.791 282.358 188.292 281.645 188.292Z" fill="white" stroke="#2A2E43" stroke-linecap="round" stroke-linejoin="round"/>
<path d="M154.265 66.1981C154.265 65.8597 154.149 65.529 153.931 65.2477C153.713 64.9665 153.403 64.7474 153.04 64.6182C152.678 64.489 152.279 64.4555 151.895 64.5219C151.51 64.5884 151.157 64.7518 150.881 64.9914C150.604 65.2311 150.416 65.5362 150.34 65.8682C150.264 66.2002 150.305 66.5441 150.456 66.8563C150.607 67.1686 150.861 67.4351 151.188 67.6223C151.515 67.8094 151.899 67.9086 152.291 67.9075C152.551 67.9075 152.808 67.8632 153.048 67.7772C153.288 67.6913 153.506 67.5653 153.689 67.4064C153.873 67.2476 154.018 67.0591 154.117 66.8518C154.216 66.6444 154.266 66.4223 154.265 66.1981Z" fill="white" stroke="#2A2E43" stroke-linecap="round" stroke-linejoin="round"/>
<path d="M41.7018 97.9226C41.5526 97.9226 41.4094 97.8718 41.3032 97.7814C41.1971 97.6909 41.1366 97.5679 41.1348 97.4392V83.2923C41.1366 83.1636 41.1971 83.0406 41.3032 82.9502C41.4094 82.8597 41.5526 82.809 41.7018 82.809C41.851 82.809 41.9942 82.8597 42.1003 82.9502C42.2065 83.0406 42.267 83.1636 42.2688 83.2923V97.4392C42.267 97.5679 42.2065 97.6909 42.1003 97.7814C41.9942 97.8718 41.851 97.9226 41.7018 97.9226Z" fill="#2A2E43" stroke="white" stroke-width="0.691688" stroke-miterlimit="10"/>
<path d="M199.674 72.2458V173.255" stroke="#2A2E43" stroke-linecap="round" stroke-linejoin="round"/>
<path d="M202.578 72.2458V173.255" stroke="#2A2E43" stroke-linecap="round" stroke-linejoin="round"/>
<path d="M48.8403 166.582H199.673" stroke="#2A2E43" stroke-linecap="round" stroke-linejoin="round"/>
<path d="M55.4883 154.003H106.506" stroke="#2A2E43" stroke-linecap="round" stroke-linejoin="round"/>
<path d="M55.4883 149.812H106.506" stroke="#2A2E43" stroke-linecap="round" stroke-linejoin="round"/>
<path d="M55.4883 145.621H106.506" stroke="#2A2E43" stroke-linecap="round" stroke-linejoin="round"/>
<path d="M55.4883 141.43H106.506" stroke="#2A2E43" stroke-linecap="round" stroke-linejoin="round"/>
<path d="M55.4883 137.233H106.506" stroke="#2A2E43" stroke-linecap="round" stroke-linejoin="round"/>
<path d="M55.4883 125.008H106.506" stroke="#2A2E43" stroke-linecap="round" stroke-linejoin="round"/>
<path d="M55.4883 120.817H106.506" stroke="#2A2E43" stroke-linecap="round" stroke-linejoin="round"/>
<path d="M55.4883 116.626H106.506" stroke="#2A2E43" stroke-linecap="round" stroke-linejoin="round"/>
<path d="M55.4883 112.435H106.506" stroke="#2A2E43" stroke-linecap="round" stroke-linejoin="round"/>
<path d="M55.4883 108.238H106.506" stroke="#2A2E43" stroke-linecap="round" stroke-linejoin="round"/>
<path d="M230.567 81.8187C230.386 81.8187 230.212 81.8808 230.084 81.9914C229.956 82.1019 229.884 82.2518 229.884 82.4082L229.843 83.1745H218.816L218.167 96.5138H239.345L239.83 86.4047L239.994 83.1745L240.062 81.8423L230.567 81.8187Z" fill="#92E3A9" stroke="#2A2E43" stroke-linecap="round" stroke-linejoin="round"/>
<path d="M239.345 96.4902L239.249 84.0822H218.898L219.062 96.3428L239.345 96.4902Z" fill="white" stroke="#2A2E43" stroke-linecap="round" stroke-linejoin="round"/>
<path d="M239.345 96.4902L238.416 84.0822H218.065L218.229 96.3428L239.345 96.4902Z" fill="white" stroke="#2A2E43" stroke-linecap="round" stroke-linejoin="round"/>
<path d="M218.167 96.4901L215.339 83.699H236.646L239.345 96.4901H218.167Z" fill="#92E3A9" stroke="#2A2E43" stroke-linecap="round" stroke-linejoin="round"/>
<path d="M230.567 104.359C230.391 104.359 230.222 104.417 230.095 104.521C229.968 104.626 229.892 104.768 229.884 104.919L229.843 105.691H218.816L218.167 119.031H239.345L239.83 108.916L239.994 105.691L240.062 104.359H230.567Z" fill="#92E3A9" stroke="#2A2E43" stroke-linecap="round" stroke-linejoin="round"/>
<path d="M239.345 119.031L239.249 106.623H218.898L219.062 118.878L239.345 119.031Z" fill="white" stroke="#2A2E43" stroke-linecap="round" stroke-linejoin="round"/>
<path d="M239.345 119.031L238.416 106.623H218.065L218.229 118.878L239.345 119.031Z" fill="white" stroke="#2A2E43" stroke-linecap="round" stroke-linejoin="round"/>
<path d="M218.167 119.031L215.339 106.234H236.646L239.345 119.031H218.167Z" fill="#92E3A9" stroke="#2A2E43" stroke-linecap="round" stroke-linejoin="round"/>
<path d="M230.567 126.894C230.386 126.894 230.212 126.956 230.084 127.067C229.956 127.177 229.884 127.327 229.884 127.484L229.843 128.25H218.816L218.167 141.589H239.345L239.83 131.48L239.994 128.25L240.062 126.918L230.567 126.894Z" fill="#92E3A9" stroke="#2A2E43" stroke-linecap="round" stroke-linejoin="round"/>
<path d="M239.345 141.566L239.249 129.158H218.898L219.062 141.418L239.345 141.566Z" fill="white" stroke="#2A2E43" stroke-linecap="round" stroke-linejoin="round"/>
<path d="M239.345 141.566L238.416 129.158H218.065L218.229 141.418L239.345 141.566Z" fill="white" stroke="#2A2E43" stroke-linecap="round" stroke-linejoin="round"/>
<path d="M218.167 141.566L215.339 128.769H236.646L239.345 141.566H218.167Z" fill="#92E3A9" stroke="#2A2E43" stroke-linecap="round" stroke-linejoin="round"/>
<path d="M230.567 149.435C230.391 149.435 230.222 149.493 230.095 149.597C229.968 149.701 229.892 149.844 229.884 149.995L229.843 150.767H218.816L218.167 164.106H239.345L239.83 153.991L239.994 150.767L240.062 149.435H230.567Z" fill="#92E3A9" stroke="#2A2E43" stroke-linecap="round" stroke-linejoin="round"/>
<path d="M239.345 164.106L239.249 151.698H218.898L219.062 163.953L239.345 164.106Z" fill="white" stroke="#2A2E43" stroke-linecap="round" stroke-linejoin="round"/>
<path d="M239.345 164.106L238.416 151.698H218.065L218.229 163.953L239.345 164.106Z" fill="white" stroke="#2A2E43" stroke-linecap="round" stroke-linejoin="round"/>
<path d="M218.167 164.107L215.339 151.31H236.646L239.345 164.107H218.167Z" fill="#92E3A9" stroke="#2A2E43" stroke-linecap="round" stroke-linejoin="round"/>
<path d="M172.417 185.663C173.346 186.818 173.851 188.188 173.865 189.594C173.729 191.622 179.535 193.832 181.127 192.995C182.719 192.158 182.992 189.895 181.81 188.463C180.709 187.231 179.532 186.05 178.285 184.926C177.937 184.566 177.937 184.271 176.83 184.271C175.723 184.271 172.834 184.23 172.417 185.663Z" fill="#2A2E43" stroke="#2A2E43" stroke-linecap="round" stroke-linejoin="round"/>
<path d="M182.124 188.928C182.15 189.434 182.092 189.94 181.954 190.431C181.605 191.504 181.271 191.563 181.271 191.563L180.649 190.726L179.337 191.027L179.269 192.099C178.521 192.135 177.771 192.055 177.055 191.864C176.29 191.563 174.774 190.85 174.494 189.417C174.196 188.365 173.683 187.366 172.977 186.47C173.585 187.427 173.894 188.504 173.872 189.594C173.735 191.622 179.542 193.833 181.134 192.995C182.555 192.247 182.917 190.343 182.124 188.928Z" fill="white" stroke="#2A2E43" stroke-linecap="round" stroke-linejoin="round"/>
<path d="M157.832 184.171C156.555 185.129 155.165 185.969 153.685 186.676C151.478 187.69 148.903 187.266 148.575 188.227C148.247 189.187 150.023 190.072 154.04 190.549C158.057 191.027 158.74 190.189 160.469 189.653C162.197 189.117 165.251 189.535 165.934 189.117C166.617 188.698 166.002 187.089 165.729 185.58C165.456 184.071 165.312 183.676 165.312 183.676C164.11 184.178 162.763 184.364 161.439 184.212C160.243 184.066 159.031 184.052 157.832 184.171Z" fill="#2A2E43" stroke="#2A2E43" stroke-linecap="round" stroke-linejoin="round"/>
<path d="M160.462 189.653C162.19 189.117 165.244 189.535 165.927 189.117C166.392 188.84 166.262 188.015 166.043 187.054C165.34 187.448 164.58 187.761 163.782 187.985C161.933 188.356 160.108 188.815 158.317 189.358C156.279 189.964 154.047 189.856 152.1 189.058C150.372 188.468 151.062 188.521 151.267 187.926C151.306 187.828 151.317 187.723 151.3 187.62C151.282 187.518 151.235 187.42 151.164 187.337C149.853 187.543 148.787 187.608 148.575 188.203C148.227 189.152 150.023 190.048 154.04 190.526C158.057 191.003 158.734 190.172 160.462 189.653Z" fill="white" stroke="#2A2E43" stroke-linecap="round" stroke-linejoin="round"/>
<path d="M153.897 124.477C153.897 124.477 153.412 128.474 153.412 137.239C153.387 143.897 153.825 150.55 154.723 157.162C155.277 160.799 155.406 160.858 155.482 161.336C155.557 161.813 158.112 175.347 158.112 176.184V177.316C158.112 177.316 156.745 178.495 157.21 179.585C157.674 180.676 158.528 182.863 158.317 182.922C158.105 182.981 157.353 183.281 157.353 183.818V184.354C158.254 185.217 159.473 185.785 160.803 185.963C163.222 186.382 163.987 186.682 164.608 185.904C165.4 184.993 165.986 183.961 166.337 182.863C166.61 181.731 166.959 181.194 166.125 180.063C165.292 178.931 165.018 178.448 165.018 177.852C165.018 177.257 165.988 167.36 165.367 163.959C164.745 160.558 164.192 158.341 164.192 156.573C164.192 154.805 164.813 139.396 164.813 139.396C164.813 139.396 168.338 158.418 168.755 162.532C169.172 166.647 170.484 177.086 170.34 177.74C170.197 178.395 169.165 179.408 169.657 180.481C170.165 181.409 170.788 182.286 171.515 183.098C171.369 183.205 171.269 183.351 171.231 183.512C171.194 183.674 171.222 183.842 171.31 183.988C171.59 184.578 172.144 185.598 172.417 185.663C172.69 185.727 178.292 184.943 178.292 184.943C178.292 184.943 180.294 181.961 179.658 180.411C179.023 178.86 178.415 178.147 178.415 177.97C178.757 176.373 178.985 174.758 179.098 173.137C179.166 170.991 176.892 149.824 176.892 149.824C176.892 149.824 175.921 130.678 175.921 130.501C175.921 130.325 175.717 127.277 175.717 127.277C175.717 127.277 168.386 131.456 162.101 129.664C155.816 127.872 153.897 124.477 153.897 124.477Z" fill="#92E3A9" stroke="#2A2E43" stroke-linecap="round" stroke-linejoin="round"/>
<path d="M164.813 139.384L163.986 137.121" stroke="#2A2E43" stroke-linecap="round" stroke-linejoin="round"/>
<path d="M165.019 137.716L162.047 136.166" stroke="#2A2E43" stroke-linecap="round" stroke-linejoin="round"/>
<path d="M164.356 91.8924C164.356 91.8924 159.321 91.2617 158.522 91.7214C157.722 92.1812 154.88 96.0068 153.487 97.616C152.093 99.2252 142.748 106.027 142.748 106.027L134.584 92.47C134.85 91.4536 135.026 90.421 135.11 89.3813C135.11 88.3556 134.516 87.7249 134.516 86.7523C134.516 85.7797 135.048 84.3474 134.782 84.0055C134.516 83.6636 133.785 84.0644 133.32 84.7482C132.856 85.432 132.924 87.3241 132.924 87.3241C132.924 87.3241 128.77 82.9032 128.415 82.3491C128.319 82.1959 127.623 82.2312 127.623 82.691C127.623 83.1508 130.205 87.3241 130.205 87.3241C130.205 87.3241 129.938 87.666 129.679 87.666C129.419 87.666 125.764 83.8935 125.58 83.8345C125.396 83.7756 124.787 83.8935 125.115 84.5183C125.443 85.1431 128.231 88.3557 128.231 88.3557C127.695 88.3676 127.162 88.4248 126.639 88.5266C126.563 88.569 126.5 88.6261 126.454 88.6934C126.408 88.7607 126.381 88.8363 126.375 88.9141C126.369 88.992 126.384 89.07 126.419 89.1419C126.454 89.2138 126.509 89.2776 126.577 89.3282C126.811 89.5164 127.078 89.6697 127.37 89.7821C127.37 89.7821 127.438 90.1299 127.5 90.7017C127.465 91.049 127.531 91.3984 127.694 91.7177C127.856 92.037 128.109 92.316 128.429 92.529C129.105 93.0708 129.893 93.4986 130.751 93.7904C131.079 93.8435 138.184 111.828 139.311 113.431C140.439 115.034 140.971 115.087 142.228 114.799C143.485 114.51 155.871 106.47 155.871 106.47C155.871 106.47 155.345 121.171 154.744 122.202C154.143 123.234 153.487 123.234 153.487 123.917C153.52 124.512 153.609 125.103 153.753 125.686C153.753 125.686 157.066 130.49 163.83 130.661C170.593 130.832 176.755 128.486 176.755 127.401C176.706 126.718 176.55 126.044 176.29 125.397C176.29 125.173 177.09 124.082 176.973 123.399C176.857 122.715 176.379 122.538 176.509 121.512C176.639 120.487 182.343 105.78 182.609 101.259C182.876 96.7377 182.937 96.3958 181.68 95.6C180.423 94.8043 175.778 94.1087 175.778 94.1087L167.956 92.3934L164.841 92.1635L164.356 91.8924Z" fill="#D9D9D9" stroke="#2A2E43" stroke-linecap="round" stroke-linejoin="round"/>
<path d="M182.589 101.27C182.855 96.7552 182.917 96.4074 181.66 95.6117C180.403 94.8159 175.757 94.1204 175.757 94.1204L167.935 92.4051L164.82 92.1752L164.356 91.8922C164.356 91.8922 159.321 91.2615 158.521 91.7213C157.722 92.1811 154.88 96.0066 153.487 97.6158C152.093 99.225 142.747 106.027 142.747 106.027L140.015 101.235L135.021 104.112C137.07 108.78 138.86 112.782 139.298 113.407C140.425 115.005 140.958 115.064 142.215 114.775C143.472 114.486 155.871 106.469 155.871 106.469C155.871 106.469 155.345 121.17 154.744 122.202C154.142 123.234 153.487 123.234 153.487 123.917C153.52 124.512 153.609 125.103 153.753 125.686C153.753 125.686 157.066 130.49 163.83 130.661C170.593 130.832 176.755 128.486 176.755 127.401C176.706 126.718 176.55 126.044 176.29 125.397C176.29 125.173 177.09 124.082 176.973 123.399C176.857 122.715 176.379 122.538 176.509 121.512C176.639 120.487 182.322 105.792 182.589 101.27Z" fill="#2A2E43" stroke="#2A2E43" stroke-linecap="round" stroke-linejoin="round"/>
<path d="M155.905 99.7144L155.871 106.475L154.21 99.7792" stroke="white" stroke-width="0.75" stroke-linecap="round" stroke-linejoin="round"/>
<path d="M154.504 126.086C161.188 127.654 168.261 127.467 174.821 125.55" stroke="white" stroke-width="0.75" stroke-linecap="round" stroke-linejoin="round"/>
<path d="M169.636 128.745C170.319 128.674 170.962 128.586 171.686 128.474" stroke="white" stroke-width="0.75" stroke-linecap="round" stroke-linejoin="round"/>
<path d="M156.315 126.865C156.315 126.865 159.97 128.993 166.61 128.922" stroke="white" stroke-width="0.75" stroke-linecap="round" stroke-linejoin="round"/>
<path d="M132.924 87.2943C132.889 87.7 132.747 88.0934 132.507 88.4437C132.104 89.0332 131.598 89.2395 131.53 90.271C131.505 90.5597 131.558 90.8495 131.685 91.1175C131.812 91.3855 132.009 91.6245 132.261 91.8154" stroke="#2A2E43" stroke-linecap="round" stroke-linejoin="round"/>
<path d="M128.681 88.9509C128.681 88.9509 126.031 87.3534 125.498 87.6364C125.353 87.7237 125.231 87.837 125.14 87.9686C125.05 88.1002 124.994 88.247 124.975 88.399C124.956 88.5511 124.975 88.7048 125.031 88.8499C125.087 88.9949 125.179 89.1279 125.3 89.2397C125.901 89.6995 128.483 90.0413 128.948 89.8291C129.412 89.6169 129.105 89.1866 128.681 88.9509Z" fill="#D9D9D9" stroke="#2A2E43" stroke-linecap="round" stroke-linejoin="round"/>
<path d="M129.501 90.7251C129.501 90.7251 127.65 90.3833 127.199 90.3184C126.748 90.2536 126.481 90.4717 126.516 90.8784C126.55 91.2851 127.008 91.5386 127.725 91.5622C128.442 91.5857 130.034 91.8156 130.102 91.2203C130.123 91.1496 130.121 91.0755 130.097 91.0056C130.074 90.9356 130.029 90.8722 129.968 90.8219C129.907 90.7716 129.832 90.7362 129.75 90.7192C129.668 90.7022 129.582 90.7042 129.501 90.7251Z" fill="#D9D9D9" stroke="#2A2E43" stroke-linecap="round" stroke-linejoin="round"/>
<path d="M167.956 88.5618C167.956 88.5618 171.652 88.4616 172.909 87.9429" stroke="#2A2E43" stroke-linecap="round" stroke-linejoin="round"/>
<path d="M176.495 98.8064C176.495 98.8064 168.981 105.426 166.542 107.931C164.849 109.628 163.001 111.205 161.015 112.647L144.312 103.068C143.684 102.261 143.107 101.424 142.584 100.563C142.099 99.667 141.34 99.4312 140.719 98.0578C140.097 96.6844 139.468 95.7943 138.99 96.7492C138.512 97.7041 138.71 97.9989 138.99 98.4763C139.27 98.9538 140.234 100.386 140.234 100.386C140.234 100.386 136.087 98.9538 134.632 98.4174C133.177 97.881 131.66 97.7041 131.592 98.1816C131.523 98.659 131.803 98.5942 132.493 98.8359C133.183 99.0775 137.467 101.099 137.467 101.099L137.05 101.282C137.05 101.282 131.387 100.386 130.833 100.327C130.28 100.268 130.417 100.917 130.833 101.099C131.25 101.282 133.388 102.172 133.388 102.172C133.388 102.172 132.903 102.532 133.457 103.186C133.984 103.726 134.588 104.207 135.253 104.618C135.373 105.053 135.639 105.446 136.018 105.75C136.572 106.11 140.165 106.051 141.682 106.169C142.442 106.199 143.19 106.34 143.895 106.587C143.895 106.587 161.5 119.555 162.675 119.555C163.85 119.555 180.225 106.198 182.022 104.229C183.819 102.261 185.13 98.8064 184.03 97.1972C182.931 95.588 181.195 95.2284 180.089 95.5821" fill="#CCCCCC"/>
<path d="M176.495 98.8064C176.495 98.8064 168.981 105.426 166.542 107.931C164.849 109.628 163.001 111.205 161.015 112.647L144.312 103.068C143.684 102.261 143.107 101.424 142.584 100.563C142.099 99.667 141.34 99.4312 140.719 98.0578C140.097 96.6844 139.468 95.7943 138.99 96.7492C138.512 97.7041 138.71 97.9989 138.99 98.4763C139.27 98.9538 140.234 100.386 140.234 100.386C140.234 100.386 136.087 98.9538 134.632 98.4174C133.177 97.881 131.66 97.7041 131.592 98.1816C131.523 98.659 131.803 98.5942 132.493 98.8359C133.183 99.0775 137.467 101.099 137.467 101.099L137.05 101.282C137.05 101.282 131.387 100.386 130.833 100.327C130.28 100.268 130.417 100.917 130.833 101.099C131.25 101.282 133.388 102.172 133.388 102.172C133.388 102.172 132.903 102.532 133.457 103.186C133.984 103.726 134.588 104.207 135.253 104.618C135.373 105.053 135.639 105.446 136.018 105.75C136.572 106.11 140.165 106.051 141.682 106.169C142.442 106.199 143.19 106.34 143.895 106.587C143.895 106.587 161.5 119.555 162.675 119.555C163.85 119.555 180.225 106.198 182.022 104.229C183.819 102.261 185.13 98.8064 184.03 97.1972C182.931 95.588 181.195 95.2284 180.089 95.5821" stroke="#2A2E43" stroke-linecap="round" stroke-linejoin="round"/>
<path d="M133.389 102.137C133.389 102.137 135.602 102.797 136.292 102.974L133.389 102.137Z" fill="white"/>
<path d="M133.389 102.137C133.389 102.137 135.602 102.797 136.292 102.974" stroke="#2A2E43" stroke-linecap="round" stroke-linejoin="round"/>
<path d="M135.253 104.583L136.709 104.76" stroke="#2A2E43" stroke-linecap="round" stroke-linejoin="round"/>
<path d="M176.495 98.8066C176.495 98.8066 168.981 105.426 166.542 107.931C164.849 109.629 163.001 111.205 161.015 112.647L156.554 110.118L154.026 114.215C158.433 117.121 162.224 119.52 162.682 119.52C163.85 119.52 180.232 106.163 182.029 104.194C183.825 102.225 185.137 98.7712 184.037 97.162C182.937 95.5528 181.202 95.1933 180.095 95.5469L179.091 96.0951" fill="#2A2E43"/>
<path d="M176.495 98.8066C176.495 98.8066 168.981 105.426 166.542 107.931C164.849 109.629 163.001 111.205 161.015 112.647L156.554 110.118L154.026 114.215C158.433 117.121 162.224 119.52 162.682 119.52C163.85 119.52 180.232 106.163 182.029 104.194C183.825 102.225 185.137 98.7712 184.037 97.162C182.937 95.5528 181.202 95.1933 180.095 95.5469L179.091 96.0951" stroke="white" stroke-width="0.75" stroke-linecap="round" stroke-linejoin="round"/>
<path d="M175.757 94.1204L167.935 92.4051L165.448 92.2164L164.355 91.8922C164.355 91.8922 163.788 91.8215 162.989 91.7449L162.791 104.86L178.415 94.6037C177.048 94.309 175.757 94.1204 175.757 94.1204Z" fill="white" stroke="#2A2E43" stroke-linecap="round" stroke-linejoin="round"/>
<path d="M173.803 73.1241C172.168 73.0862 170.582 73.6025 169.383 74.5623C167.593 76.1539 167.477 77.1854 166.76 77.7513C166.043 78.3172 164.669 78.2641 163.72 80.0148C162.77 81.7655 162.046 85.4201 162.224 86.6049C162.401 87.7897 163.59 88.1493 164.731 88.3025C165.872 88.4558 167.955 88.5619 167.955 88.5619C167.955 88.5619 167.648 92.4287 167.354 92.3698C167.06 92.3108 165.448 92.2165 165.448 92.2165C165.448 92.2165 165.148 98.2407 165.093 99.7321L165.031 101.229L175.928 94.091L173.803 93.3247C173.862 92.1377 174.092 90.9616 174.486 89.8233C174.815 88.9196 175.233 88.042 175.736 87.2002C175.736 87.2002 179.152 86.2218 180.99 84.0113C182.472 82.2429 182.425 79.6906 181.618 77.6982C181.157 76.5343 180.338 75.5006 179.247 74.7083C178.157 73.9159 176.837 73.3947 175.429 73.2007C174.891 73.1287 174.347 73.103 173.803 73.1241Z" fill="#D9D9D9" stroke="#2A2E43" stroke-linecap="round" stroke-linejoin="round"/>
<path d="M167.833 78.989C167.247 79.551 166.586 80.0515 165.865 80.4803C164.909 80.9932 165.626 81.9717 166.821 82.3312C168.017 82.6908 168.372 82.231 168.372 82.231" stroke="#2A2E43" stroke-linecap="round" stroke-linejoin="round"/>
<path d="M168.55 84.0347C168.55 84.0347 166.105 83.7223 164.971 82.7969C165.049 83.0826 165.21 83.3463 165.44 83.563C165.67 83.7796 165.96 83.942 166.282 84.0347C167.029 84.1795 167.804 84.1795 168.55 84.0347V84.0347Z" stroke="#2A2E43" stroke-width="0.75" stroke-linecap="round" stroke-linejoin="round"/>
<path d="M172.014 77.6511C172.431 77.7638 172.8 77.9798 173.076 78.2722C173.351 78.5646 173.521 78.9205 173.564 79.2957" stroke="#2A2E43" stroke-linecap="round" stroke-linejoin="round"/>
<path d="M169.985 76.8256C169.688 76.6086 169.318 76.4809 168.93 76.4617C168.541 76.4426 168.156 76.5331 167.833 76.7195" stroke="#2A2E43" stroke-linecap="round" stroke-linejoin="round"/>
<path d="M170.934 79.6551C170.681 80.0029 170.326 80.2033 170.148 80.109C169.971 80.0147 170.025 79.6433 170.278 79.2956C170.531 78.9478 170.886 78.7474 171.071 78.8476C171.255 78.9478 171.194 79.3074 170.934 79.6551Z" fill="#2A2E43"/>
<path d="M167.539 78.2169C167.28 78.5646 166.932 78.765 166.747 78.6648C166.563 78.5646 166.624 78.2051 166.884 77.8573C167.143 77.5095 167.492 77.3091 167.669 77.4034C167.847 77.4977 167.792 77.8632 167.539 78.2169Z" fill="#2A2E43"/>
<path d="M169.623 80.5806C169.623 80.5806 171.474 80.6336 172.069 81.2525" stroke="#2A2E43" stroke-width="0.75" stroke-linecap="round" stroke-linejoin="round"/>
<path d="M181.591 77.7217C181.13 76.5578 180.311 75.5241 179.22 74.7318C178.13 73.9394 176.81 73.4182 175.402 73.2242C174.874 73.1458 174.339 73.1123 173.804 73.124C173.193 73.1286 172.585 73.1958 171.993 73.3244C172.223 73.6231 172.512 73.8844 172.847 74.0966C173.394 74.4444 174.938 74.3029 176.604 74.9218C178.271 75.5407 179.289 77.5979 178.217 78.8299C177.144 80.0619 176.037 78.5411 175.484 79.6728C175.238 80.234 175.028 80.8067 174.856 81.3881C174.836 81.5856 174.852 81.7844 174.903 81.9776C175.095 82.567 175.546 82.8618 175.293 83.1565C175.04 83.4512 174.644 83.746 174.644 84.1527C174.648 84.2593 174.699 84.3605 174.787 84.4356C175.798 84.0878 177.93 83.4866 178.203 84.583C178.558 86.0212 177.13 86.7463 175.996 86.8995C175.105 86.9534 174.21 86.8491 173.366 86.593C173.366 86.593 173.783 87.43 175.498 87.5951C175.621 87.377 175.696 87.2591 175.696 87.2591C175.696 87.2591 179.112 86.2806 180.949 84.0702C182.445 82.2546 182.398 79.7141 181.591 77.7217Z" fill="#2A2E43" stroke="#2A2E43" stroke-linecap="round" stroke-linejoin="round"/>
<path d="M160.374 37.5133C160.375 35.7601 159.975 34.0239 159.198 32.4039C158.421 30.7839 157.282 29.3119 155.845 28.0719C154.409 26.832 152.703 25.8483 150.826 25.1773C148.949 24.5062 146.937 24.1607 144.905 24.1607C144.019 24.161 143.135 24.228 142.263 24.3607C142.274 19.3225 139.964 14.487 135.843 10.9178C131.722 7.34873 126.126 5.33841 120.287 5.32913C114.448 5.31985 108.844 7.31237 104.708 10.8684C100.571 14.4243 98.2413 19.2525 98.2305 24.2907C97.522 24.2069 96.8078 24.1635 96.0927 24.1607C92.0574 24.146 88.1751 25.4923 85.2741 27.9125C82.3731 30.3328 80.683 33.6353 80.5643 37.1157C80.4456 40.596 81.9078 43.9786 84.6389 46.5418C87.37 49.1051 91.1537 50.646 95.183 50.836H145.855C149.786 50.6272 153.477 49.1327 156.174 46.6572C158.872 44.1817 160.374 40.9115 160.374 37.5133Z" fill="white" stroke="#2A2E43" stroke-linecap="round" stroke-linejoin="round"/>
<path d="M128.468 37.0135L118.636 29.9647L108.804 37.0135H110.965V59.6794H126.312V37.0135H128.468Z" fill="#2A2E43"/>
<path d="M120.351 55.3102C120.168 55.3125 119.992 55.3746 119.86 55.4841C119.728 55.5935 119.649 55.7422 119.638 55.9001L119.604 56.6999H108.091L107.414 70.6224H129.511L130.021 60.0693L130.195 56.6999L130.264 55.3102H120.351Z" fill="#92E3A9" stroke="#2A2E43" stroke-linecap="round" stroke-linejoin="round"/>
<path d="M129.511 70.6227L129.418 57.67H108.178L108.346 70.4627L129.511 70.6227Z" fill="white" stroke="#2A2E43" stroke-linecap="round" stroke-linejoin="round"/>
<path d="M129.511 70.6227L128.549 57.67H107.31L107.478 70.4627L129.511 70.6227Z" fill="white" stroke="#2A2E43" stroke-linecap="round" stroke-linejoin="round"/>
<path d="M107.414 70.6224L104.459 57.2698H126.695L129.511 70.6224H107.414Z" fill="#92E3A9" stroke="#2A2E43" stroke-linecap="round" stroke-linejoin="round"/>
<path d="M109.575 52.9556V53.8454" stroke="#2A2E43" stroke-linecap="round" stroke-linejoin="round"/>
<path d="M109.575 48.0066V52.0609" stroke="#2A2E43" stroke-linecap="round" stroke-linejoin="round"/>
<path d="M127.64 43.7073V47.1117" stroke="#2A2E43" stroke-linecap="round" stroke-linejoin="round"/>
<path d="M120.774 71.2124V74.6168" stroke="#2A2E43" stroke-linecap="round" stroke-linejoin="round"/>
<path d="M129.337 76.3966V84.1052" stroke="#2A2E43" stroke-linecap="round" stroke-linejoin="round"/>
<path d="M129.337 73.7218V75.1815" stroke="#2A2E43" stroke-linecap="round" stroke-linejoin="round"/>
<path d="M109.123 73.397V76.1515" stroke="#2A2E43" stroke-linecap="round" stroke-linejoin="round"/>
<path d="M111.191 86.1299V86.7798" stroke="#2A2E43" stroke-linecap="round" stroke-linejoin="round"/>
<path d="M111.191 75.0968V85.24" stroke="#2A2E43" stroke-linecap="round" stroke-linejoin="round"/>
<path d="M218.793 53.5957C218.797 52.4522 218.51 51.3218 217.953 50.2842C217.396 49.2466 216.582 48.327 215.568 47.5902C214.554 46.8534 213.366 46.3173 212.086 46.0196C210.807 45.7219 209.467 45.6698 208.162 45.8671C208.096 42.9465 206.707 40.1642 204.293 38.1168C201.878 36.0694 198.629 34.9198 195.244 34.9146C191.858 34.9093 188.605 36.0489 186.182 38.0888C183.759 40.1287 182.358 42.9067 182.281 45.8271C181.864 45.7751 181.444 45.7484 181.024 45.7471C178.661 45.7497 176.392 46.5455 174.697 47.966C173.002 49.3866 172.015 51.3204 171.943 53.3581C171.872 55.3959 172.722 57.3778 174.314 58.8842C175.906 60.3906 178.115 61.3034 180.473 61.4293H210.259C212.569 61.3047 214.738 60.4253 216.323 58.9701C217.908 57.5148 218.792 55.593 218.793 53.5957Z" fill="white" stroke="#2A2E43" stroke-linecap="round" stroke-linejoin="round"/>
<path d="M185.594 11.6531C185.594 10.4797 185.054 9.3544 184.092 8.5247C183.131 7.695 181.827 7.22888 180.467 7.22888C180.173 7.22754 179.881 7.24929 179.592 7.29387C179.592 5.62463 178.823 4.02376 177.455 2.84343C176.087 1.6631 174.232 1 172.298 1C170.363 1 168.508 1.6631 167.14 2.84343C165.772 4.02376 165.003 5.62463 165.003 7.29387C164.767 7.26778 164.529 7.25442 164.291 7.25388C162.963 7.26183 161.692 7.71345 160.742 8.51379C159.793 9.31412 159.241 10.4008 159.201 11.5454C159.161 12.69 159.637 13.8033 160.529 14.6513C161.421 15.4992 162.659 16.0158 163.984 16.0923H180.785C182.092 16.0221 183.319 15.5231 184.213 14.6977C185.107 13.8723 185.601 12.7829 185.594 11.6531Z" fill="white" stroke="#2A2E43" stroke-linecap="round" stroke-linejoin="round"/>
</svg>
