<svg width="23" height="18" viewBox="0 0 23 18" fill="none" xmlns="http://www.w3.org/2000/svg">
<path d="M20.1358 7.883C20.6611 7.87159 21.1718 7.70789 21.6058 7.41179C22.0399 7.11569 22.3786 6.69993 22.5808 6.215C21.7759 6.66631 20.8272 6.78714 19.9348 6.552C19.8968 6.342 19.8538 6.142 19.8118 5.962C19.2178 3.462 17.1838 1.446 15.0538 1.689C15.2258 1.609 15.4008 1.535 15.5758 1.468C15.8108 1.368 17.1868 1.115 16.9698 0.557999C16.7868 0.0679986 15.1058 0.928 14.7898 1.041C15.2078 0.861 15.8988 0.551 15.9728 0C15.301 0.120966 14.6859 0.455137 14.2188 0.953003C14.4029 0.73639 14.5199 0.470954 14.5558 0.189003C12.8478 1.44 11.8508 3.962 11.0438 6.409C10.5496 5.81318 9.97787 5.28616 9.34384 4.842C7.50241 3.72613 5.57732 2.75456 3.58584 1.936C3.57191 2.60085 3.74436 3.25631 4.08368 3.82821C4.42301 4.40011 4.91565 4.86561 5.50584 5.172C5.03773 5.15652 4.5704 5.22076 4.12384 5.362C4.21296 6.00186 4.50512 6.59622 4.95732 7.05761C5.40953 7.519 5.9979 7.82304 6.63584 7.925C6.34319 7.91747 6.05265 7.97656 5.7862 8.09783C5.51976 8.2191 5.28437 8.39937 5.09784 8.625C5.31471 9.15831 5.70606 9.60228 6.20793 9.88437C6.70981 10.1665 7.29252 10.27 7.86084 10.178C6.13884 11.029 7.16084 12.606 8.56084 12.371C8.0704 12.9961 7.44864 13.5057 6.73951 13.864C6.03038 14.2223 5.2512 14.4204 4.45707 14.4443C3.66293 14.4683 2.87324 14.3175 2.14381 14.0026C1.41438 13.6877 0.763043 13.2164 0.23584 12.622C5.88684 21.452 18.1708 17.844 20.0008 9.339C20.5073 9.37249 21.0144 9.28472 21.4802 9.08298C21.9459 8.88124 22.3568 8.57134 22.6788 8.179C21.82 8.31193 20.9412 8.20964 20.1358 7.883Z" fill="#4D4F5C"/>
</svg>
