<svg width="195" height="194" viewBox="0 0 195 194" fill="none" xmlns="http://www.w3.org/2000/svg">
<path d="M124.822 1.95854C124.822 1.95854 91.8404 -5.42472 61.2911 16.0084C30.7418 37.4416 17.0003 74.4578 5.06981 104.251C-6.86066 134.045 2.87221 161.78 27.8884 172.03C52.9046 182.279 68.1228 161.094 101.969 156.199C135.814 151.304 145.26 154.944 172.227 133.072C199.193 111.2 201.477 66.701 177.2 36.8075C152.922 6.914 124.822 1.95854 124.822 1.95854Z" fill="#92E3A9"/>
<path opacity="0.95" d="M124.822 1.95854C124.822 1.95854 91.8404 -5.42472 61.2911 16.0084C30.7418 37.4416 17.0003 74.4578 5.06981 104.251C-6.86066 134.045 2.87221 161.78 27.8884 172.03C52.9046 182.279 68.1228 161.094 101.969 156.199C135.814 151.304 145.26 154.944 172.227 133.072C199.193 111.2 201.477 66.701 177.2 36.8075C152.922 6.914 124.822 1.95854 124.822 1.95854Z" fill="#E8F9ED"/>
<path d="M84.1526 71.1614L64.9258 144.034L86.6326 131.009L99.0364 149.307L97.4859 72.7119L84.1526 71.1614Z" fill="#92E3A9"/>
<path d="M87.4972 127.092L69.5732 137.85L86.3245 74.3496L94.6242 75.3138L95.9271 139.522L87.4972 127.092Z" fill="white"/>
<path opacity="0.3" d="M97.8425 90.2321L97.4863 72.7208L84.1617 71.1616L80.0488 86.749C81.5168 89.7066 82.5244 93.6371 85.0998 94.4753C88.5743 95.5959 93.1997 90.1322 97.0303 90.1322C97.3035 90.1405 97.5754 90.174 97.8425 90.2321Z" fill="black"/>
<path d="M110.65 71.7175L141.291 140.573L121.056 130.349L108.466 151.235L97.7383 75.3831L110.65 71.7175Z" fill="#92E3A9"/>
<path d="M100.978 77.4894L109.017 75.2092L135.301 134.284L119.957 126.527L110.203 142.714L100.978 77.4894Z" fill="white"/>
<path opacity="0.3" d="M110.654 71.7175L97.7422 75.3831L99.7965 89.863H99.9876C103.818 89.863 108.465 95.3049 111.922 94.1843C114.572 93.3157 115.562 89.1768 117.104 86.1931L110.654 71.7175Z" fill="black"/>
<path d="M138.585 52.7424C138.585 56.5731 131.927 59.3049 130.802 62.7576C129.643 66.3407 133.382 72.4557 131.21 75.4394C129.039 78.4231 122.033 76.7728 119.024 78.9617C116.014 81.1506 115.493 88.308 111.91 89.4676C108.435 90.5925 103.805 85.1245 99.9749 85.1245C96.1443 85.1245 91.5015 90.5708 88.0444 89.4676C84.4614 88.308 83.9098 81.1332 80.9304 78.9617C77.9511 76.7901 70.9413 78.4492 68.7394 75.4394C66.5374 72.4297 70.3116 66.3407 69.1476 62.762C68.0271 59.2875 61.3691 56.5731 61.3691 52.7424C61.3691 48.9118 68.0271 46.18 69.1476 42.7273C70.3116 39.1442 66.5722 33.0292 68.7394 30.0455C70.9066 27.0617 77.9163 28.7121 80.9304 26.5232C83.9445 24.3343 84.4614 17.1769 88.0444 16.0173C91.5189 14.8924 96.1443 20.3386 99.9749 20.3386C103.805 20.3386 108.453 14.8924 111.91 16.0173C115.488 17.1769 116.04 24.3517 119.024 26.5232C122.007 28.6947 129.013 27.0357 131.21 30.0455C133.408 33.0552 129.643 39.1659 130.802 42.7229C131.936 46.1627 138.585 48.8945 138.585 52.7424Z" fill="#92E3A9"/>
<path opacity="0.6" d="M134.372 52.7424C134.372 56.1561 128.439 58.5882 127.423 61.6674C126.385 64.8596 129.716 70.3059 127.784 72.9595C125.851 75.6131 119.61 74.1495 116.926 76.0995C114.242 78.0496 113.781 84.4252 110.589 85.4632C107.51 86.4622 103.371 81.6109 99.9574 81.6109C96.5437 81.6109 92.4135 86.4448 89.3472 85.4459C86.1551 84.4079 85.6643 78.0192 83.0063 76.0822C80.3483 74.1452 74.103 75.6261 72.1486 72.9421C70.1942 70.2581 73.5471 64.8422 72.5134 61.6501C71.5101 58.5708 65.5645 56.1387 65.5645 52.725C65.5645 49.3114 71.4928 46.8792 72.5134 43.8C73.5471 40.6078 70.2159 35.1616 72.1486 32.5079C74.0813 29.8543 80.3266 31.3179 83.0063 29.3679C85.686 27.4178 86.1551 21.0422 89.3472 20.0042C92.4221 19.0053 96.5654 23.8565 99.9748 23.8565C103.384 23.8565 107.527 19.0053 110.607 20.0042C113.799 21.0422 114.29 27.4309 116.943 29.3679C119.597 31.3049 125.851 29.8022 127.801 32.5079C129.751 35.2137 126.402 40.6078 127.44 43.8C128.461 46.8792 134.372 49.3113 134.372 52.7424Z" fill="white"/>
<path d="M99.9748 81.4068C115.815 81.4068 128.657 68.5655 128.657 52.725C128.657 36.8845 115.815 24.0432 99.9748 24.0432C84.1342 24.0432 71.293 36.8845 71.293 52.725C71.293 68.5655 84.1342 81.4068 99.9748 81.4068Z" fill="white"/>
<path d="M86.3071 39.279C89.7338 37.5939 92.4396 36.6341 96.8304 31.4006H107.532V65.4331H113.121V73.4287H89.0737V65.4505H95.0845V43.1444L89.0737 45.9717L86.3071 39.279Z" fill="#263238"/>
<path d="M183.158 83.7694C182.52 80.7856 182.164 80.929 178.542 79.7911C174.559 78.5409 170.423 77.8466 166.251 77.7281C163.565 77.6268 160.88 77.9388 158.29 78.6532C158.29 78.6532 153.738 79.2221 150.472 79.9561C147.671 85.55 150.833 93.2286 150.833 93.2286C150.833 93.2286 154.811 101.967 154.811 106.445C154.811 110.922 151.397 118.736 151.258 118.948C151.119 119.161 140.744 137.189 138.112 143.317C135.48 149.446 135.415 151.917 136.835 154.332C138.255 156.746 154.455 179.057 154.455 179.057C154.455 179.057 150.112 184.03 148.131 185.311C146.151 186.592 143.662 186.792 144.531 187.86C145.4 188.929 151.137 189.35 152.7 188.994C154.264 188.638 157.816 185.519 159.875 184.095C161.934 182.67 163.784 181.676 163.002 179.899C162.22 178.123 160.514 176.56 159.806 175.122C159.098 173.684 156.535 169.58 155.115 164.464C153.695 159.348 152.631 156.295 150.994 153.524C149.356 150.753 148.223 149.689 148.223 149.689C148.223 149.689 154.333 144.073 157.604 141.233C160.874 138.392 163.784 136.047 163.784 136.047C163.784 136.047 174.867 124.677 175.862 122.188C176.857 119.7 179.558 111.887 181.547 105.068C183.536 98.2492 183.797 86.7531 183.158 83.7694Z" fill="#92E3A9" stroke="#263238" stroke-width="0.967197" stroke-linecap="round" stroke-linejoin="round"/>
<path d="M150.832 93.2202C150.832 93.2202 147.67 85.5417 150.472 79.9478C149.703 80.1095 148.944 80.3184 148.2 80.5732C145.503 81.5677 132.357 87.0878 131.006 87.6785C129.655 88.2691 127.171 90.306 127.81 92.4559C128.448 94.6057 129.443 95.2267 133.99 95.2962C138.537 95.3657 150.832 93.2202 150.832 93.2202Z" fill="#263238" stroke="#263238" stroke-width="0.967197" stroke-linecap="round" stroke-linejoin="round"/>
<path d="M141.169 54.4275C141.169 54.4275 145.217 56.4861 145.43 56.8422C145.642 57.1984 145.36 57.9758 145.074 58.5447C144.787 59.1137 143.228 60.4644 142.52 60.7467C141.812 61.029 142.376 58.9009 142.376 57.7065C142.376 56.5122 140.313 55.5046 140.101 54.9356C139.888 54.3667 140.622 54.2103 141.169 54.4275Z" fill="white" stroke="#263238" stroke-width="0.967197" stroke-linecap="round" stroke-linejoin="round"/>
<path d="M133.421 94.785L131.862 95.2193C130.298 95.6536 127.597 95.8578 127.171 95.2888C126.746 94.7199 125.252 87.189 125.464 82.9979C125.677 78.8068 131.931 60.9002 132.644 59.5452C133.356 58.1901 139.462 53.7906 139.462 53.7906C139.462 53.7906 140.244 53.5778 141.169 54.4334C142.094 55.2889 144.722 57.0609 144.578 57.7688C144.435 58.4768 142.945 60.6136 142.303 61.1825C141.66 61.7515 140.67 61.1825 140.67 61.1825C140.67 61.1825 139.888 62.5289 138.893 62.9588C137.899 63.3888 135.553 62.885 135.553 62.885C135.553 62.885 133.638 74.8242 134.203 79.3888C134.767 83.9534 135.91 89.2649 135.071 91.823" fill="#263238"/>
<path d="M133.421 94.785L131.862 95.2193C130.298 95.6536 127.597 95.8578 127.171 95.2888C126.746 94.7199 125.252 87.189 125.464 82.9979C125.677 78.8068 131.931 60.9002 132.644 59.5452C133.356 58.1901 139.462 53.7906 139.462 53.7906C139.462 53.7906 140.244 53.5778 141.169 54.4334C142.094 55.2889 144.722 57.0609 144.578 57.7688C144.435 58.4768 142.945 60.6136 142.303 61.1825C141.66 61.7515 140.67 61.1825 140.67 61.1825C140.67 61.1825 139.888 62.5289 138.893 62.9588C137.899 63.3888 135.553 62.885 135.553 62.885C135.553 62.885 133.638 74.8242 134.203 79.3888C134.767 83.9534 135.91 89.2649 135.071 91.823" stroke="#263238" stroke-width="0.967197" stroke-linecap="round" stroke-linejoin="round"/>
<path d="M138.885 62.953C139.879 62.5187 140.661 61.1767 140.661 61.1767C140.661 61.1767 141.656 61.7456 142.294 61.1767C142.933 60.6077 144.427 58.4753 144.57 57.763C144.713 57.0507 142.081 55.2788 141.161 54.4275C140.24 53.5763 139.454 53.7847 139.454 53.7847C139.454 53.7847 133.343 58.193 132.635 59.5393C132.461 59.8694 131.962 61.1767 131.297 63.0138C132.485 63.8407 133.86 64.3586 135.297 64.5209C135.445 63.4959 135.545 62.8661 135.545 62.8661C135.545 62.8661 137.899 63.3786 138.885 62.953Z" fill="white" stroke="#263238" stroke-width="0.967197" stroke-linecap="round" stroke-linejoin="round"/>
<path d="M145.213 58.4103C145.213 58.4103 146.207 58.6926 145.925 59.4049C145.643 60.1171 144.574 60.8945 143.936 60.825C143.297 60.7556 143.154 59.9 143.58 59.192C144.005 58.4841 144.857 58.1236 145.213 58.4103Z" fill="white" stroke="#263238" stroke-width="0.967197" stroke-linecap="round" stroke-linejoin="round"/>
<path d="M140.669 61.1766C140.669 61.1766 140.1 60.5338 140.457 60.0387C140.813 59.5436 141.521 59.8954 141.521 59.8954L140.457 58.5447" stroke="#263238" stroke-width="0.967197" stroke-linecap="round" stroke-linejoin="round"/>
<path d="M149.108 113.042C151.329 113.042 153.13 111.241 153.13 109.02C153.13 106.799 151.329 104.999 149.108 104.999C146.887 104.999 145.086 106.799 145.086 109.02C145.086 111.241 146.887 113.042 149.108 113.042Z" fill="white" stroke="#263238" stroke-width="0.967197" stroke-linecap="round" stroke-linejoin="round"/>
<path d="M148.053 105.077C148.474 103.94 149.141 102.911 150.005 102.061C150.869 101.211 151.909 100.562 153.052 100.16C157.03 98.6749 163.51 97.1201 167.258 92.1994C171.006 87.2787 169.651 77.8672 169.651 77.8672L172.566 78.2624C172.566 78.2624 172.175 87.6695 170.303 92.6641C168.431 97.6587 162.729 100.482 158.203 101.255C153.678 102.028 149.929 101.954 148.053 105.077Z" fill="white" stroke="#263238" stroke-width="0.967197" stroke-linecap="round" stroke-linejoin="round"/>
<path d="M148.053 105.077C148.053 105.077 147.584 101.876 150.472 98.5188C153.36 95.1616 158.047 91.496 158.828 88.0606C159.61 84.6253 158.75 78.6926 158.75 78.6926L161.247 77.989C161.935 81.0976 161.961 84.3158 161.326 87.4352C160.231 92.2734 157.578 94.6187 154.298 97.116C151.019 99.6133 148.053 105.077 148.053 105.077Z" fill="white" stroke="#263238" stroke-width="0.967197" stroke-linecap="round" stroke-linejoin="round"/>
<path d="M180.244 81.2112C179.406 81.9024 178.716 82.7557 178.216 83.7199C177.716 84.6841 177.416 85.7394 177.334 86.8225C177.047 90.5185 177.686 100.251 177.686 104.091C177.686 107.93 174.845 113.68 175.271 116.664C175.697 119.648 179.614 123.2 181.738 120.859C183.862 118.518 185.503 110.983 186.285 101.246C187.067 91.5087 186.428 84.9767 185.221 83.0049C184.014 81.0332 182.02 79.7172 180.244 81.2112Z" fill="#263238" stroke="#263238" stroke-width="0.967197" stroke-linecap="round" stroke-linejoin="round"/>
<path d="M182.589 117.945C182.155 120.36 180.813 122.723 179.393 123.2C177.972 123.678 176.352 121.711 174.064 118.015C171.775 114.319 170.589 110.271 169.721 106.006C168.95 102.108 168.382 98.1719 168.018 94.2147C167.944 92.5817 168.018 92.1517 168.939 91.1745C169.86 90.1973 173.204 89.3982 173.204 89.3982L173.773 88.4036C174.055 87.9085 175.549 87.6219 176.257 88.0518C176.965 88.4818 177.325 90.8227 177.325 90.8227C177.325 90.8227 179.314 91.9563 179.314 93.0941C179.314 94.232 178.033 95.4394 176.613 97.3591C175.193 99.2787 174.767 98.5664 174.624 100.343C174.481 102.119 175.492 104.464 177.251 106.097C179.01 107.73 181.595 109.719 182.298 112.916" fill="#263238"/>
<path d="M182.589 117.945C182.155 120.36 180.813 122.723 179.393 123.2C177.972 123.678 176.352 121.711 174.064 118.015C171.775 114.319 170.589 110.271 169.721 106.006C168.95 102.108 168.382 98.1719 168.018 94.2147C167.944 92.5817 168.018 92.1517 168.939 91.1745C169.86 90.1973 173.204 89.3982 173.204 89.3982L173.773 88.4036C174.055 87.9085 175.549 87.6219 176.257 88.0518C176.965 88.4818 177.325 90.8227 177.325 90.8227C177.325 90.8227 179.314 91.9563 179.314 93.0941C179.314 94.232 178.033 95.4394 176.613 97.3591C175.193 99.2787 174.767 98.5664 174.624 100.343C174.481 102.119 175.492 104.464 177.251 106.097C179.01 107.73 181.595 109.719 182.298 112.916" stroke="#263238" stroke-width="0.967197" stroke-linecap="round" stroke-linejoin="round"/>
<path d="M174.619 100.716C174.619 100.586 174.619 100.451 174.619 100.325C174.763 98.5491 175.188 99.2571 176.608 97.3418C178.029 95.4265 179.31 94.2147 179.31 93.0768C179.31 91.9389 177.321 90.8054 177.321 90.8054C177.321 90.8054 176.965 88.4601 176.252 88.0345C175.54 87.6089 174.05 87.8912 173.768 88.3863L173.195 89.3809C173.195 89.3809 169.855 90.1626 168.93 91.1572C168.005 92.1518 167.935 92.5817 168.009 94.1974C168.053 95.2571 168.4 98.1061 168.878 101.146C170.795 101.536 172.782 101.387 174.619 100.716Z" fill="white" stroke="#263238" stroke-width="0.967197" stroke-linecap="round" stroke-linejoin="round"/>
<path d="M175.932 121.984C167.376 119.122 156.774 117.767 151.979 117.263C151.584 118.245 151.298 118.879 151.258 118.94C151.115 119.153 140.744 137.181 138.112 143.309C135.48 149.437 135.415 151.908 136.835 154.323C138.255 156.738 154.455 179.048 154.455 179.048C157.061 178.731 159.384 176.981 160.392 176.117C160.163 175.808 159.96 175.481 159.784 175.139C159.072 173.719 156.514 169.598 155.093 164.482C153.673 159.365 152.609 156.312 150.972 153.541C149.334 150.77 148.201 149.706 148.201 149.706C148.201 149.706 154.312 144.091 157.582 141.25C160.852 138.41 163.762 136.065 163.762 136.065C163.762 136.065 174.846 124.694 175.84 122.206C175.871 122.136 175.897 122.063 175.932 121.984Z" fill="#787878" stroke="#263238" stroke-width="0.967197" stroke-linecap="round" stroke-linejoin="round"/>
<path d="M160.392 176.117C159.575 177.663 156.161 180.612 156.161 180.612C156.161 180.612 155.293 179.687 154.811 179.048C154.433 178.566 154.303 178.688 154.259 178.779L154.455 179.048C154.455 179.048 150.111 184.021 148.131 185.302C146.151 186.584 143.662 186.792 144.531 187.86C145.399 188.929 151.136 189.35 152.7 188.994C154.263 188.638 157.816 185.519 159.875 184.095C161.933 182.67 163.783 181.676 163.002 179.9C162.372 178.523 161.212 177.272 160.392 176.117Z" fill="#92E3A9" stroke="#263238" stroke-width="0.967197" stroke-linecap="round" stroke-linejoin="round"/>
<path d="M151.541 188.143C150.069 188.525 146.129 187.709 144.375 187.274C144.337 187.372 144.33 187.479 144.354 187.581C144.378 187.684 144.432 187.776 144.509 187.847C145.378 188.912 151.115 189.337 152.679 188.981C154.242 188.625 157.795 185.507 159.854 184.082C161.912 182.657 163.762 181.663 162.981 179.887C162.889 179.682 162.785 179.478 162.672 179.279C162.303 179.774 161.869 180.33 161.417 180.881C160.14 182.458 153.461 187.643 151.541 188.143Z" fill="white" stroke="#263238" stroke-width="0.967197" stroke-linecap="round" stroke-linejoin="round"/>
<path d="M171.579 125.546C171.579 125.546 165.377 120.004 159.358 118.015C153.338 116.026 142.09 116.595 139.249 117.732C136.409 118.87 137.616 122.51 137.686 126.684C137.755 130.857 140.6 138.618 141.807 143.027C143.015 147.435 143.44 152.334 143.584 154.036C143.727 155.739 143.727 156.382 143.727 156.382C143.727 156.382 135.84 156.312 133.777 156.099C131.714 155.886 130.511 156.534 130.155 157.237C129.944 157.602 129.868 158.03 129.942 158.445C129.942 158.445 135.271 161.919 139.888 163.843C144.504 165.767 148.913 166.97 149.482 166.683C150.05 166.397 150.615 162.067 150.615 159.083C150.615 156.099 151.54 141.745 151.54 139.187V132.581C151.54 132.581 165.325 139.9 170.797 138.193C176.27 136.486 175.931 121.984 175.931 121.984L171.505 120.573" fill="#787878"/>
<path d="M171.579 125.546C171.579 125.546 165.377 120.004 159.358 118.015C153.338 116.026 142.09 116.595 139.249 117.732C136.409 118.87 137.616 122.51 137.686 126.684C137.755 130.857 140.6 138.618 141.807 143.027C143.015 147.435 143.44 152.334 143.584 154.036C143.727 155.739 143.727 156.382 143.727 156.382C143.727 156.382 135.84 156.312 133.777 156.099C131.714 155.886 130.511 156.534 130.155 157.237C129.944 157.602 129.868 158.03 129.942 158.445C129.942 158.445 135.271 161.919 139.888 163.843C144.504 165.767 148.913 166.97 149.482 166.683C150.05 166.397 150.615 162.067 150.615 159.083C150.615 156.099 151.54 141.745 151.54 139.187V132.581C151.54 132.581 165.325 139.9 170.797 138.193C176.27 136.486 175.931 121.984 175.931 121.984L171.505 120.573" stroke="#263238" stroke-width="0.967197" stroke-linecap="round" stroke-linejoin="round"/>
<path d="M143.727 156.382C143.727 156.382 135.84 156.312 133.777 156.1C131.714 155.887 130.511 156.534 130.155 157.237C129.944 157.602 129.868 158.03 129.942 158.445C129.942 158.445 135.271 161.919 139.888 163.843C144.504 165.767 148.913 166.97 149.482 166.684C149.981 166.436 150.48 163.048 150.593 160.204C147.666 157.711 143.727 156.382 143.727 156.382Z" fill="#92E3A9" stroke="#263238" stroke-width="0.967197" stroke-linecap="round" stroke-linejoin="round"/>
<path d="M149.482 166.684C149.703 166.575 149.916 165.815 150.116 164.807C147.636 164.626 145.196 164.086 142.872 163.205C138.854 161.689 132.309 158.506 130.077 157.407C129.926 157.731 129.879 158.093 129.942 158.445C129.942 158.445 135.271 161.919 139.888 163.843C144.505 165.767 148.913 166.966 149.482 166.684Z" fill="white" stroke="#263238" stroke-width="0.967197" stroke-linecap="round" stroke-linejoin="round"/>
<path d="M151.54 132.582C151.54 132.582 151.471 126.401 148.344 123.344" stroke="#263238" stroke-width="0.967197" stroke-linecap="round" stroke-linejoin="round"/>
<path d="M146.703 70.94C146.703 70.94 148.396 76.4948 149.143 78.4579C149.89 80.421 149.956 81.4981 152.323 83.7391C154.69 85.9801 155.167 87.7347 157.604 87.9345C160.04 88.1343 160.991 86.6316 160.991 86.6316C160.991 86.6316 161.33 88.8683 162.616 89.5415C163.901 90.2146 166.746 90.3536 168.505 86.9009C170.264 83.4481 169.183 81.7587 168.574 80.1343C167.966 78.51 167.15 76.4774 167.15 76.4774C168.033 75.2585 168.491 73.7827 168.453 72.2777C168.318 69.9107 167.641 69.6371 166.898 69.433C166.155 69.2288 164.053 70.5839 163.176 70.18C162.299 69.7761 163.784 67.4699 161.413 67.2701C159.041 67.0703 156.605 70.3103 152.34 70.6534C148.075 70.9965 146.546 69.6545 146.703 70.94Z" fill="white" stroke="#263238" stroke-width="0.967197" stroke-linecap="round" stroke-linejoin="round"/>
<path d="M160.969 86.649L164.826 82.3059C166.52 80.4124 166.52 77.5676 166.52 77.5676" fill="white"/>
<path d="M160.969 86.649L164.826 82.3059C166.52 80.4124 166.52 77.5676 166.52 77.5676" stroke="#263238" stroke-width="0.967197" stroke-linecap="round" stroke-linejoin="round"/>
<path d="M153.387 77.5762C153.387 77.5762 153.86 79.7477 153.387 80.8248C152.913 81.9019 153.317 82.4535 154.129 82.5186C154.518 82.5849 154.917 82.5381 155.28 82.384" stroke="#263238" stroke-width="0.967197" stroke-linecap="round" stroke-linejoin="round"/>
<path d="M155.892 77.7805C155.892 77.7805 156.365 76.3603 158.598 76.7642" stroke="#263238" stroke-width="1.93439" stroke-linecap="round" stroke-linejoin="round"/>
<path d="M150.272 78.1844C150.272 78.1844 151.575 77.4418 152.505 78.458" stroke="#263238" stroke-width="1.93439" stroke-linecap="round" stroke-linejoin="round"/>
<path d="M149.122 76.0212C149.122 76.0212 150.676 74.4621 152.505 76.8898" stroke="#263238" stroke-width="0.967197" stroke-linecap="round" stroke-linejoin="round"/>
<path d="M154.671 76.2213C154.671 76.2213 155.414 73.7197 157.712 74.0498" stroke="#263238" stroke-width="0.967197" stroke-linecap="round" stroke-linejoin="round"/>
<path d="M156.77 83.0615C156.77 83.0615 160.292 82.3839 160.969 78.2537C160.969 78.2537 162.707 81.0376 161.503 83.2699C160.3 85.5023 158.667 85.1592 158.667 85.1592L156.77 83.0615Z" stroke="#263238" stroke-width="0.967197" stroke-linecap="round" stroke-linejoin="round"/>
<path d="M148.982 63.0877C148.982 63.0877 150.746 60.6512 148.783 60.99C146.82 61.3287 143.571 65.1203 143.975 68.7077C144.379 72.295 151.623 73.1072 155.145 72.5687C157.259 72.239 159.22 71.2688 160.765 69.7891C160.765 69.7891 159.462 72.5687 160.835 72.9031C162.207 73.2375 162.863 72.9031 162.863 72.9031C162.863 72.9031 164.166 75.8173 164.557 74.9357C164.948 74.054 164.461 73.3635 164.691 72.2299C165.234 69.5893 167.197 69.6545 167.197 69.6545C167.197 69.6545 167.536 63.0877 165.1 60.534C162.663 57.9802 156.296 57.6892 153.656 59.0443C151.015 60.3993 148.982 63.0877 148.982 63.0877Z" fill="#263238" stroke="#263238" stroke-width="0.967197" stroke-linecap="round" stroke-linejoin="round"/>
<path d="M19.732 176.477C19.732 176.477 14.4291 179.213 12.3096 181.689C10.1902 184.164 12.5746 185.841 16.9046 184.429C21.2347 183.018 22.8243 176.92 22.8243 176.92C22.8243 176.92 21.3216 175.682 19.732 176.477Z" fill="#92E3A9" stroke="#263238" stroke-width="0.967197" stroke-linecap="round" stroke-linejoin="round"/>
<path d="M76.0185 176.477C76.0185 176.477 81.3215 179.213 83.4409 181.689C85.5603 184.164 83.176 185.841 78.8459 184.429C74.5158 183.018 72.9263 176.92 72.9263 176.92C72.9263 176.92 74.429 175.682 76.0185 176.477Z" fill="#92E3A9" stroke="#263238" stroke-width="0.967197" stroke-linecap="round" stroke-linejoin="round"/>
<path d="M42.6244 64.4297L42.5593 69.1419C40.588 68.6824 38.6436 68.114 36.7352 67.4394C33.5951 66.3276 32.8264 67.3092 30.9762 68.877C29.1261 70.4449 20.3791 80.5382 19.4497 81.3764C18.5203 82.2146 15.6538 86.5881 15.6538 88.8335C15.6538 91.0789 17.4214 92.6294 20.9524 90.7315C24.4833 88.8335 30.9632 83.7304 30.9632 83.7304C30.9632 83.7304 34.303 93.6761 34.3682 95.3786C34.4333 97.0811 32.075 100.807 30.8329 104.212C29.5908 107.617 29.0045 117.103 28.1619 120.373C27.3194 123.643 25.1522 127.048 23.454 135.748C21.7559 144.447 21.6212 151.126 21.2303 152.825C20.8395 154.523 20.3183 161.007 19.7233 166.097C19.1283 171.187 18.7417 176.825 19.3976 177.415C20.0534 178.006 21.9469 178.397 22.872 177.415C23.7971 176.434 30.6505 159.044 32.0446 155.053C33.4388 151.061 42.7113 132.998 43.4974 130.97C44.2835 128.942 45.6993 126.141 45.6993 126.141C45.6993 126.141 50.5419 135.17 52.1749 139.682C53.8079 144.195 62.7764 161.602 65.265 166.175C67.7535 170.749 71.8056 176.838 72.9175 177.428C74.0293 178.019 75.823 177.654 76.0184 176.477C76.2139 175.3 74.3594 157.211 72.9783 153.806C71.5972 150.401 70.6895 148.508 70.2986 146.023C69.9077 143.539 66.1075 123.187 64.3442 119.457C62.5809 115.726 62.316 115.009 62.2508 114.81C62.1857 114.61 60.9479 110.232 59.1064 105.78C57.265 101.329 55.2498 97.3416 55.2498 97.3416L58.5853 88.1821C58.5853 88.1821 63.493 98.3232 65.7818 100.482C68.0706 102.64 75.532 111.93 75.532 111.93L77.886 109.576L70.2986 96.5469C70.2986 96.5469 68.6612 88.1082 66.6982 82.8053C64.7351 77.5024 63.2975 73.5806 60.7438 72.3819C58.1901 71.1832 52.696 70.8748 51.7145 70.484C50.733 70.0931 51.0587 69.763 50.9936 69.5676C50.9284 69.3721 51.3236 64.9899 51.3236 64.9899C51.3236 64.9899 47.6798 66.2625 45.9425 65.737C44.8094 65.3735 43.701 64.9368 42.6244 64.4297Z" fill="#263238" stroke="#263238" stroke-width="0.967197" stroke-linecap="round" stroke-linejoin="round"/>
<path d="M56.7176 111.457L49.1562 121.259" stroke="#696969" stroke-width="0.967197" stroke-linecap="round" stroke-linejoin="round"/>
<path d="M32.6353 112.299L41.0391 120.981" stroke="#696969" stroke-width="0.967197" stroke-linecap="round" stroke-linejoin="round"/>
<path d="M34.0381 117.337L42.4376 122.657" stroke="#696969" stroke-width="0.967197" stroke-linecap="round" stroke-linejoin="round"/>
<path d="M55.2542 97.3417L58.5897 88.1821C58.5897 88.1821 56.8221 75.7609 53.4562 70.8532C52.8688 70.788 52.2878 70.6747 51.719 70.5144C50.7374 70.1235 51.0632 69.7935 50.998 69.598C50.9329 69.4026 51.3281 65.0204 51.3281 65.0204C51.3281 65.0204 47.6799 66.2625 45.9427 65.737C44.8037 65.3757 43.6895 64.9404 42.6072 64.4341L42.542 69.1463C42.542 69.1463 41.6734 68.9509 40.3183 68.5774C38.8808 70.4232 33.0741 78.0801 30.959 83.7348C30.959 83.7348 34.2988 93.6805 34.364 95.383C34.4117 96.6164 33.187 98.9095 32.0361 101.376C34.1685 102.805 37.9774 104.495 44.1967 104.608C51.6625 104.742 55.6668 103.022 57.4388 101.932C56.2314 99.2657 55.2542 97.3417 55.2542 97.3417Z" fill="#92E3A9" stroke="#263238" stroke-width="0.967197" stroke-linecap="round" stroke-linejoin="round"/>
<path d="M50.8325 75.7609C52.1354 74.4927 52.535 72.5687 52.5133 70.6968C52.2429 70.6603 51.9768 70.5978 51.7185 70.5101C50.7369 70.1192 51.0627 69.7891 50.9975 69.5937C50.9324 69.3982 51.3276 65.0161 51.3276 65.0161C51.3276 65.0161 47.6794 66.2625 45.9422 65.737C44.8032 65.3757 43.689 64.9404 42.6067 64.4341L42.5415 69.1463C42.5415 69.1463 42.2679 69.0855 41.7945 68.9683C41.434 70.3581 40.7391 74.0975 42.9976 76.1474C45.1691 78.0931 48.8043 77.7153 50.8325 75.7609Z" fill="#B2B2B2" stroke="#263238" stroke-width="0.967197" stroke-linecap="round" stroke-linejoin="round"/>
<path d="M40.1358 68.4861C40.1358 68.4861 39.9404 73.3938 38.6983 76.0778C37.4561 78.7618 36.1445 79.1527 36.1445 79.1527C36.6671 79.484 37.2145 79.7744 37.7819 80.0213C38.8286 80.4556 39.024 80.2819 39.024 80.2819C39.024 80.2819 40.9871 79.0398 41.9035 75.7651C42.4623 73.6103 42.6835 71.3819 42.5593 69.1593L40.1358 68.4861Z" fill="white" stroke="#263238" stroke-width="0.967197" stroke-linecap="round" stroke-linejoin="round"/>
<path d="M43.8189 43.4091C43.8189 43.4091 43.7363 41.1898 47.7667 40.1214C51.7971 39.053 55.3411 42.2582 55.6668 44.3993C55.9925 46.5405 55.3411 47.6914 54.846 47.8738C54.3509 48.0562 52.2141 45.8977 49.0045 44.8336C45.795 43.7696 43.4063 44.3993 43.8189 43.4091Z" fill="#263238" stroke="#263238" stroke-width="0.967197" stroke-linecap="round" stroke-linejoin="round"/>
<path d="M39.7016 54.1929C39.7016 54.1929 39.2108 52.7119 37.9644 53.6153C36.7179 54.5186 37.3042 57.3199 37.8818 58.1408C38.4595 58.9616 39.6191 58.9659 39.8536 58.3883C40.0881 57.8107 40.1012 54.5186 40.1012 54.5186" fill="#B2B2B2"/>
<path d="M39.7016 54.1929C39.7016 54.1929 39.2108 52.7119 37.9644 53.6153C36.7179 54.5186 37.3042 57.3199 37.8818 58.1408C38.4595 58.9616 39.6191 58.9659 39.8536 58.3883C40.0881 57.8107 40.1012 54.5186 40.1012 54.5186" stroke="#263238" stroke-width="0.967197" stroke-linecap="round" stroke-linejoin="round"/>
<path d="M39.5409 47.0312C39.5409 47.0312 38.1381 49.0899 38.7982 51.1485C39.4584 53.2071 39.1283 54.6838 39.1283 57.0725C39.1283 59.4612 40.8655 62.6664 42.0078 64.6425C43.15 66.6186 45.4562 68.9639 47.9231 68.2255C50.3899 67.4872 54.0034 62.3363 54.6809 59.9519C55.3584 57.5676 55.0935 56.9899 55.5017 55.9997C56.1961 54.247 56.5328 52.3731 56.492 50.4883C56.492 47.7739 53.2824 44.1518 49.3302 43.0008C45.378 41.8499 41.0219 43.0009 39.5409 47.0312Z" fill="#B2B2B2" stroke="#263238" stroke-width="0.967197" stroke-linecap="round" stroke-linejoin="round"/>
<path d="M54.5161 56.5773C54.5161 56.5773 55.1763 54.6012 56.4097 55.1788C57.6431 55.7564 57.148 58.8009 56.1621 59.7043C55.1763 60.6077 54.1035 60.1994 54.1035 59.6218" fill="#B2B2B2"/>
<path d="M54.5161 56.5773C54.5161 56.5773 55.1763 54.6012 56.4097 55.1788C57.6431 55.7564 57.148 58.8009 56.1621 59.7043C55.1763 60.6077 54.1035 60.1994 54.1035 59.6218" stroke="#263238" stroke-width="0.967197" stroke-linecap="round" stroke-linejoin="round"/>
<path d="M45.2173 59.2095C45.6183 59.6077 46.1561 59.838 46.721 59.8533C47.286 59.8687 47.8355 59.6679 48.2574 59.292" stroke="#263238" stroke-width="0.967197" stroke-linecap="round" stroke-linejoin="round"/>
<path d="M44.4961 61.1333C44.4961 61.1333 46.4896 62.8706 49.2344 61.0942" stroke="#263238" stroke-width="0.967197" stroke-linecap="round" stroke-linejoin="round"/>
<path d="M43.8928 57.22C44.2262 57.22 44.4964 56.7825 44.4964 56.2428C44.4964 55.7031 44.2262 55.2656 43.8928 55.2656C43.5593 55.2656 43.2891 55.7031 43.2891 56.2428C43.2891 56.7825 43.5593 57.22 43.8928 57.22Z" fill="#263238"/>
<path d="M49.7599 57.22C50.0933 57.22 50.3636 56.7825 50.3636 56.2428C50.3636 55.7031 50.0933 55.2656 49.7599 55.2656C49.4265 55.2656 49.1562 55.7031 49.1562 56.2428C49.1562 56.7825 49.4265 57.22 49.7599 57.22Z" fill="#263238"/>
<path d="M42.2378 53.8368C42.6349 53.4816 43.1213 53.2414 43.6447 53.1419C44.1681 53.0424 44.7087 53.0874 45.2085 53.2722" stroke="#263238" stroke-width="0.967197" stroke-linecap="round" stroke-linejoin="round"/>
<path d="M48.2925 53.498C48.2925 53.498 50.5118 52.5208 51.7148 54.4752" stroke="#263238" stroke-width="0.967197" stroke-linecap="round" stroke-linejoin="round"/>
<path d="M49.3302 43.0007C45.3823 41.8454 41.0219 43.0007 39.5409 47.0311C39.5409 47.0311 38.1381 49.0897 38.7982 51.1484C39.0082 51.8018 39.1366 52.4786 39.1804 53.1635L39.2933 53.2852C39.7866 52.7324 40.1014 52.0437 40.1967 51.309C40.3617 50.0756 43.0762 46.966 47.5235 47.2787C51.9708 47.5914 54.1033 50.7531 54.5159 52.7944C54.9285 54.8356 53.8601 56.3297 55.5017 55.9996C56.1961 54.2469 56.5328 52.373 56.492 50.4882C56.492 47.7738 53.2824 44.1516 49.3302 43.0007Z" fill="#263238" stroke="#263238" stroke-width="0.967197" stroke-linecap="round" stroke-linejoin="round"/>
<path d="M77.8902 109.576L82.1421 110.445C82.4854 110.513 82.7934 110.7 83.0108 110.975C83.7274 111.874 85.3343 113.937 85.4863 114.545C85.6818 115.331 85.6817 115.526 85.4212 115.526C85.0693 115.511 84.7193 115.468 84.3745 115.396C84.0444 115.331 82.8023 113.563 81.8207 113.498C80.8611 113.351 79.9183 113.11 79.0064 112.777C79.0064 112.777 81.0998 114.349 81.5602 114.74C82.0205 115.131 81.951 115.331 81.6253 115.461C81.2996 115.591 80.8392 115.396 80.3832 115.2C79.9272 115.005 79.7274 114.936 78.1552 114.284C76.583 113.633 75.5493 111.926 75.5493 111.926L77.8902 109.576Z" fill="#B2B2B2" stroke="#263238" stroke-width="0.967197" stroke-linecap="round" stroke-linejoin="round"/>
<path d="M61.2087 81.1809L58.5898 88.182L60.9438 83.9952" stroke="#696969" stroke-width="0.967197" stroke-linecap="round" stroke-linejoin="round"/>
<path d="M30.9762 76.0083V83.7303L29.6689 78.106" stroke="#696969" stroke-width="0.967197" stroke-linecap="round" stroke-linejoin="round"/>
<path d="M43.932 81.2462C44.2726 81.4803 44.6579 81.6416 45.0636 81.7201C45.4694 81.7985 45.887 81.7924 46.2903 81.7022C47.5932 81.3765 51.1285 78.8228 53.2914 75.9433C55.4542 73.0638 56.4314 71.4178 56.4314 71.4178L52.957 70.3711C52.957 70.3711 51.1242 75.3439 48.7051 77.5025C46.286 79.661 42.6855 80.7077 42.6855 80.7077L43.932 81.2462Z" fill="white" stroke="#263238" stroke-width="0.967197" stroke-linecap="round" stroke-linejoin="round"/>
<path d="M27.7713 57.8845C27.7713 57.8845 43.2154 80.8508 43.932 81.246C44.2719 81.4372 44.6212 81.6112 44.9787 81.7671C44.9787 81.7671 41.3174 81.7671 40.2707 80.8985C39.2241 80.0299 30.8462 64.4773 30.1253 62.7748C29.543 61.4749 28.8876 60.2091 28.1622 58.9833L27.5107 57.7368L27.7713 57.8845Z" fill="white" stroke="#263238" stroke-width="0.967197" stroke-linecap="round" stroke-linejoin="round"/>
<path d="M27.771 57.8848C27.771 57.8848 34.1857 76.3386 34.7199 77.6458C35.2541 78.9531 37.0739 80.0041 38.0554 80.1344L39.037 80.2647C39.037 80.2647 34.3942 72.673 32.366 68.1041C30.3378 63.5351 27.771 57.8848 27.771 57.8848Z" fill="white" stroke="#263238" stroke-width="0.967197" stroke-linecap="round" stroke-linejoin="round"/>
<path d="M26.0383 58.6751C28.2618 58.6751 30.0643 56.8726 30.0643 54.6491C30.0643 52.4256 28.2618 50.623 26.0383 50.623C23.8147 50.623 22.0122 52.4256 22.0122 54.6491C22.0122 56.8726 23.8147 58.6751 26.0383 58.6751Z" fill="white" stroke="#263238" stroke-width="0.967197" stroke-linecap="round" stroke-linejoin="round"/>
<path d="M22.277 89.9453C20.1836 91.0614 16.0577 93.676 15.2759 92.499C14.4942 91.322 14.6201 84.6467 16.518 80.6554C18.416 76.6641 21.8383 69.5284 21.9469 68.3036C22.0555 67.0789 21.7819 58.9617 21.8948 58.6272C22.0077 58.2928 25.3953 56.4557 25.3953 56.4557C25.5737 56.4117 25.7615 56.4254 25.9316 56.4949C26.1018 56.5643 26.2455 56.6859 26.3421 56.8422C26.6765 57.3981 28.1793 59.0138 28.1228 59.4481C28.0663 59.8824 28.0099 60.2255 28.0099 60.2255C28.0099 60.2255 28.9002 60.7293 28.6787 61.5632C28.4572 62.397 28.0663 64.9551 27.5669 65.2895C27.1513 65.4902 26.6811 65.5482 26.2292 65.4546C26.1733 66.0599 26.0039 66.6493 25.7297 67.1918C25.3432 67.8042 24.9523 68.1386 24.8959 68.3036C24.8394 68.4687 23.6494 87.7216 22.9936 88.3774" fill="#263238"/>
<path d="M22.277 89.9453C20.1836 91.0614 16.0577 93.676 15.2759 92.499C14.4942 91.322 14.6201 84.6467 16.518 80.6554C18.416 76.6641 21.8383 69.5284 21.9469 68.3036C22.0555 67.0789 21.7819 58.9617 21.8948 58.6272C22.0077 58.2928 25.3953 56.4557 25.3953 56.4557C25.5737 56.4117 25.7615 56.4254 25.9316 56.4949C26.1018 56.5643 26.2455 56.6859 26.3421 56.8422C26.6765 57.3981 28.1793 59.0138 28.1228 59.4481C28.0663 59.8824 28.0099 60.2255 28.0099 60.2255C28.0099 60.2255 28.9002 60.7293 28.6787 61.5632C28.4572 62.397 28.0663 64.9551 27.5669 65.2895C27.1513 65.4902 26.6811 65.5482 26.2292 65.4546C26.1733 66.0599 26.0039 66.6493 25.7297 67.1918C25.3432 67.8042 24.9523 68.1386 24.8959 68.3036C24.8394 68.4687 23.6494 87.7216 22.9936 88.3774" stroke="#263238" stroke-width="0.967197" stroke-linecap="round" stroke-linejoin="round"/>
<path d="M28.01 60.2384C28.01 60.2384 28.0665 59.9084 28.123 59.461C28.1794 59.0137 26.6767 57.4024 26.3423 56.8552C26.2457 56.6989 26.1019 56.5773 25.9318 56.5078C25.7617 56.4383 25.5739 56.4246 25.3955 56.4686C25.3955 56.4686 22.0036 58.3014 21.895 58.6402C21.7864 58.9789 22.0079 65.5674 21.9731 67.7607C22.3749 68.0878 22.8488 68.3144 23.3556 68.4217C23.8625 68.5289 24.3876 68.5137 24.8874 68.3774C24.8874 68.3383 24.8874 68.3122 24.8874 68.3036C24.9438 68.1385 25.3217 67.8041 25.7212 67.1917C25.9954 66.6492 26.1648 66.0598 26.2207 65.4545C26.6726 65.5481 27.1428 65.4901 27.5584 65.2894C28.0578 64.955 28.427 62.3969 28.6702 61.5631C28.9134 60.7292 28.01 60.2384 28.01 60.2384Z" fill="#B2B2B2" stroke="#263238" stroke-width="0.967197" stroke-linecap="round" stroke-linejoin="round"/>
<path d="M28.0099 60.2385L25.1738 59.1267" stroke="#263238" stroke-width="0.967197" stroke-linecap="round" stroke-linejoin="round"/>
<path d="M24.8394 60.686C24.8394 60.686 27.7883 61.3505 28.0663 61.7979C28.24 62.1028 28.3355 62.446 28.3442 62.7968" stroke="#263238" stroke-width="0.967197" stroke-linecap="round" stroke-linejoin="round"/>
<path d="M25.0088 62.2971C25.0088 62.2971 27.2325 62.7966 27.5669 63.0745C27.9013 63.3525 27.9534 64.5208 27.9534 64.5208" stroke="#263238" stroke-width="0.967197" stroke-linecap="round" stroke-linejoin="round"/>
<path d="M26.2295 65.4675V64.5772L26.8419 64.5208" stroke="#263238" stroke-width="0.967197" stroke-linecap="round" stroke-linejoin="round"/>
<path d="M43.8667 105.064L43.0806 115.791L44.327 115.987C44.327 115.987 44.327 104.669 43.8667 105.064Z" fill="white" stroke="#263238" stroke-width="0.967197" stroke-linecap="round" stroke-linejoin="round"/>
<path d="M44.6396 105.454L45.0305 117.363L46.9936 117.298L45.0957 105.572C45.0957 105.572 44.783 104.473 44.6396 105.454Z" fill="white" stroke="#263238" stroke-width="0.967197" stroke-linecap="round" stroke-linejoin="round"/>
<path d="M78.0073 10.0586L80.2397 12.2692L81.4731 10.3105L78.0073 10.0586Z" fill="#9C9C9C"/>
<path d="M50.0596 13.772L52.2919 15.9783L53.5254 14.0195L50.0596 13.772Z" fill="#9C9C9C"/>
<path d="M32.4878 4.78174L34.7201 6.99237L35.9536 5.02929L32.4878 4.78174Z" fill="#9C9C9C"/>
<path d="M103.202 21.95L101.799 24.7599L104.045 25.3202L103.202 21.95Z" fill="#9C9C9C"/>
<path d="M124.609 2.05859L123.206 4.86857L125.451 5.42883L124.609 2.05859Z" fill="#9C9C9C"/>
<path d="M78.1729 26.5973L75.9883 24.3389L74.7158 26.2715L78.1729 26.5973Z" fill="#92E3A9"/>
<path d="M65.3692 27.4352L63.189 25.1768L61.9121 27.1094L65.3692 27.4352Z" fill="#92E3A9"/>
<path d="M92.9521 17.3724L95.5059 15.5439L93.7817 13.9978L92.9521 17.3724Z" fill="#92E3A9"/>
<path d="M64.1968 8.27351L66.7505 6.44941L65.0263 4.89893L64.1968 8.27351Z" fill="#92E3A9"/>
<path d="M113.078 24.5513L115.632 22.7272L113.908 21.1768L113.078 24.5513Z" fill="#92E3A9"/>
<path d="M10.8457 26.0586L9.44287 28.8642L11.6883 29.4288L10.8457 26.0586Z" fill="#9C9C9C"/>
<path d="M25.1177 28.1562L23.7148 30.9662L25.9602 31.5265L25.1177 28.1562Z" fill="#9C9C9C"/>
<path d="M17.2998 18.5277L15.1152 16.2693L13.8384 18.202L17.2998 18.5277Z" fill="#92E3A9"/>
<path d="M77.1738 40.6817L79.7319 38.8576L78.0077 37.3071L77.1738 40.6817Z" fill="#92E3A9"/>
<path d="M145.221 18.7839L147.454 20.9902L148.687 19.0315L145.221 18.7839Z" fill="#9C9C9C"/>
<path d="M170.42 24.5166L169.013 27.3266L171.262 27.8868L170.42 24.5166Z" fill="#9C9C9C"/>
<path d="M136.418 9.65918L135.015 12.4692L137.261 13.0338L136.418 9.65918Z" fill="#9C9C9C"/>
<path d="M184.691 26.6145L183.284 29.4245L185.534 29.9891L184.691 26.6145Z" fill="#9C9C9C"/>
<path d="M191.827 15.9128L190.42 18.7228L192.67 19.2831L191.827 15.9128Z" fill="#9C9C9C"/>
<path d="M145.391 29.1595L143.207 26.9011L141.93 28.8381L145.391 29.1595Z" fill="#92E3A9"/>
<path d="M132.587 30.0021L130.403 27.7437L129.126 29.6763L132.587 30.0021Z" fill="#92E3A9"/>
<path d="M159.745 8.66023L162.298 6.83613L160.574 5.28564L159.745 8.66023Z" fill="#92E3A9"/>
<path d="M131.415 5.71101L133.969 3.88257L132.245 2.33643L131.415 5.71101Z" fill="#92E3A9"/>
<path d="M173.599 12.2518L176.153 10.4277L174.429 8.88159L173.599 12.2518Z" fill="#92E3A9"/>
<path d="M144.392 43.2486L146.945 41.4202L145.221 39.874L144.392 43.2486Z" fill="#92E3A9"/>
<path d="M40.7485 24.5428L43.3023 22.7187L41.5781 21.1682L40.7485 24.5428Z" fill="#92E3A9"/>
<path d="M124.105 58.3581L121.873 56.1475L120.64 58.1062L124.105 58.3581Z" fill="#9C9C9C"/>
<path d="M145.721 56.8857L143.488 54.6794L142.255 56.6382L145.721 56.8857Z" fill="#9C9C9C"/>
<path d="M170.316 59.6872L168.084 57.4766L166.85 59.4396L170.316 59.6872Z" fill="#9C9C9C"/>
<path d="M98.907 52.621L100.314 49.811L98.0645 49.2507L98.907 52.621Z" fill="#9C9C9C"/>
<path d="M84.6355 50.5233L86.0427 47.7133L83.793 47.1531L84.6355 50.5233Z" fill="#9C9C9C"/>
<path d="M155.21 55.5352L157.395 57.7936L158.672 55.8565L155.21 55.5352Z" fill="#92E3A9"/>
<path d="M92.9043 51.3745L90.3506 53.1986L92.0748 54.7447L92.9043 51.3745Z" fill="#92E3A9"/>
<path d="M94.1641 41.2983L91.6104 43.1268L93.3346 44.6729L94.1641 41.2983Z" fill="#92E3A9"/>
<path d="M191.267 48.5165L192.67 45.7065L190.42 45.1462L191.267 48.5165Z" fill="#9C9C9C"/>
<path d="M176.991 46.4191L178.398 43.6091L176.148 43.0488L176.991 46.4191Z" fill="#9C9C9C"/>
<path d="M185.261 47.2703L182.707 49.0944L184.431 50.6405L185.261 47.2703Z" fill="#92E3A9"/>
<path d="M64.1054 41.4157L61.8731 39.2051L60.6396 41.1682L64.1054 41.4157Z" fill="#9C9C9C"/>
<path d="M31.6931 50.0541L33.096 47.2484L30.8506 46.6838L31.6931 50.0541Z" fill="#9C9C9C"/>
<path d="M17.4217 47.9564L18.8245 45.1464L16.5791 44.5862L17.4217 47.9564Z" fill="#9C9C9C"/>
<path d="M10.2854 58.6622L11.6883 55.8523L9.44287 55.292L10.2854 58.6622Z" fill="#9C9C9C"/>
<path d="M25.2393 57.5852L27.4238 59.8436L28.7007 57.9109L25.2393 57.5852Z" fill="#92E3A9"/>
<path d="M70.6983 57.5764L68.1445 59.4049L69.8687 60.951L70.6983 57.5764Z" fill="#92E3A9"/>
<path d="M26.9502 38.7317L24.3921 40.5601L26.1163 42.1063L26.9502 38.7317Z" fill="#92E3A9"/>
<path d="M157.256 39.7698L154.702 41.5939L156.426 43.14L157.256 39.7698Z" fill="#92E3A9"/>
<path d="M56.3882 68.9944L58.6205 71.205L59.854 69.2463L56.3882 68.9944Z" fill="#9C9C9C"/>
<path d="M31.793 66.1973L34.0253 68.4036L35.2588 66.4448L31.793 66.1973Z" fill="#9C9C9C"/>
<path d="M103.202 73.2593L101.799 76.0693L104.045 76.6295L103.202 73.2593Z" fill="#9C9C9C"/>
<path d="M36.0015 87.9258L34.5986 90.7358L36.844 91.296L36.0015 87.9258Z" fill="#9C9C9C"/>
<path d="M78.1729 77.9064L75.9883 75.6479L74.7158 77.5806L78.1729 77.9064Z" fill="#92E3A9"/>
<path d="M65.3692 78.7447L63.189 76.4863L61.9121 78.419L65.3692 78.7447Z" fill="#92E3A9"/>
<path d="M46.9024 70.3495L44.7178 68.0911L43.4409 70.0237L46.9024 70.3495Z" fill="#92E3A9"/>
<path d="M109.656 65.7325L107.471 63.4741L106.194 65.4068L109.656 65.7325Z" fill="#92E3A9"/>
<path d="M92.9521 68.6817L95.5059 66.8533L93.7817 65.3071L92.9521 68.6817Z" fill="#92E3A9"/>
<path d="M109.208 74.5101L111.762 72.6816L110.038 71.1355L109.208 74.5101Z" fill="#92E3A9"/>
<path d="M107.949 84.586L110.503 82.7576L108.779 81.2114L107.949 84.586Z" fill="#92E3A9"/>
<path d="M10.8457 77.3633L9.44287 80.1733L11.6883 80.7379L10.8457 77.3633Z" fill="#9C9C9C"/>
<path d="M25.1177 79.4656L23.7148 82.2756L25.9602 82.8358L25.1177 79.4656Z" fill="#9C9C9C"/>
<path d="M17.2998 69.837L15.1152 67.5786L13.8384 69.5113L17.2998 69.837Z" fill="#92E3A9"/>
<path d="M16.8525 78.6143L19.4063 76.7859L17.6821 75.2397L16.8525 78.6143Z" fill="#92E3A9"/>
<path d="M77.1738 91.991L79.7319 90.1626L78.0077 88.6165L77.1738 91.991Z" fill="#92E3A9"/>
<path d="M123.605 71.561L125.838 73.7717L127.071 71.8086L123.605 71.561Z" fill="#9C9C9C"/>
<path d="M170.42 75.8262L169.013 78.6362L171.262 79.1964L170.42 75.8262Z" fill="#9C9C9C"/>
<path d="M184.691 77.9238L183.284 80.7338L185.534 81.2984L184.691 77.9238Z" fill="#9C9C9C"/>
<path d="M191.827 67.2224L190.42 70.0324L192.67 70.5927L191.827 67.2224Z" fill="#9C9C9C"/>
<path d="M132.587 81.3114L130.403 79.053L129.126 80.9857L132.587 81.3114Z" fill="#92E3A9"/>
<path d="M128.353 129.958L126.168 127.7L124.896 129.633L128.353 129.958Z" fill="#92E3A9"/>
<path d="M103.497 3.37458L106.051 1.54614L104.327 0L103.497 3.37458Z" fill="#92E3A9"/>
<path d="M144.392 94.5577L146.945 92.7293L145.221 91.1831L144.392 94.5577Z" fill="#92E3A9"/>
<path d="M44.8525 86.1148L47.4106 84.2864L45.6864 82.7402L44.8525 86.1148Z" fill="#92E3A9"/>
<path d="M145.721 108.195L143.488 105.989L142.255 107.947L145.721 108.195Z" fill="#9C9C9C"/>
<path d="M98.907 103.93L100.314 101.12L98.0645 100.56L98.907 103.93Z" fill="#9C9C9C"/>
<path d="M84.6355 101.832L86.0427 99.0224L83.793 98.4622L84.6355 101.832Z" fill="#9C9C9C"/>
<path d="M123.936 99.2876L126.121 101.546L127.397 99.6133L123.936 99.2876Z" fill="#92E3A9"/>
<path d="M136.739 98.4492L138.924 100.708L140.201 98.7706L136.739 98.4492Z" fill="#92E3A9"/>
<path d="M155.21 139.144L157.395 141.402L158.672 139.47L155.21 139.144Z" fill="#92E3A9"/>
<path d="M109.161 108.512L106.607 110.341L108.331 111.887L109.161 108.512Z" fill="#92E3A9"/>
<path d="M94.1641 92.6077L91.6104 94.4361L93.3346 95.9823L94.1641 92.6077Z" fill="#92E3A9"/>
<path d="M191.267 132.13L192.67 129.32L190.42 128.76L191.267 132.13Z" fill="#9C9C9C"/>
<path d="M176.991 97.7284L178.398 94.9184L176.148 94.3582L176.991 97.7284Z" fill="#9C9C9C"/>
<path d="M185.261 130.879L182.707 132.707L184.431 134.253L185.261 130.879Z" fill="#92E3A9"/>
<path d="M124.935 85.1982L122.381 87.0267L124.105 88.5728L124.935 85.1982Z" fill="#92E3A9"/>
<path d="M78.5068 105.633L76.2745 103.422L75.041 105.381L78.5068 105.633Z" fill="#9C9C9C"/>
<path d="M31.6931 101.363L33.096 98.5578L30.8506 97.9932L31.6931 101.363Z" fill="#9C9C9C"/>
<path d="M65.6951 104.933L67.0979 102.123L64.8525 101.563L65.6951 104.933Z" fill="#9C9C9C"/>
<path d="M17.4217 99.2657L18.8245 96.4601L16.5791 95.8955L17.4217 99.2657Z" fill="#9C9C9C"/>
<path d="M10.2854 109.972L11.6883 107.162L9.44287 106.601L10.2854 109.972Z" fill="#9C9C9C"/>
<path d="M69.5254 95.8823L71.71 98.1407L72.9825 96.2081L69.5254 95.8823Z" fill="#92E3A9"/>
<path d="M25.2393 108.894L27.4238 111.153L28.7007 109.22L25.2393 108.894Z" fill="#92E3A9"/>
<path d="M41.9473 105.945L39.3936 107.774L41.1178 109.32L41.9473 105.945Z" fill="#92E3A9"/>
<path d="M50.4727 152.212L47.9189 154.041L49.6432 155.587L50.4727 152.212Z" fill="#92E3A9"/>
<path d="M100.566 131.361L98.0122 133.19L99.7364 134.736L100.566 131.361Z" fill="#92E3A9"/>
<path d="M157.256 91.0745L154.702 92.9029L156.426 94.449L157.256 91.0745Z" fill="#92E3A9"/>
<path d="M78.0073 155.474L80.2397 157.685L81.4731 155.722L78.0073 155.474Z" fill="#9C9C9C"/>
<path d="M30.2642 135.574L32.4965 137.78L33.7299 135.822L30.2642 135.574Z" fill="#9C9C9C"/>
<path d="M103.202 161.207L101.799 164.017L104.045 164.577L103.202 161.207Z" fill="#9C9C9C"/>
<path d="M69.2045 121.515L67.7974 124.325L70.0471 124.886L69.2045 121.515Z" fill="#9C9C9C"/>
<path d="M117.474 163.309L116.071 166.115L118.316 166.679L117.474 163.309Z" fill="#9C9C9C"/>
<path d="M124.609 152.603L123.206 155.413L125.451 155.974L124.609 152.603Z" fill="#9C9C9C"/>
<path d="M78.1729 165.854L75.9883 163.595L74.7158 165.528L78.1729 165.854Z" fill="#92E3A9"/>
<path d="M45.3692 139.726L43.189 137.468L41.9121 139.4L45.3692 139.726Z" fill="#92E3A9"/>
<path d="M92.9521 156.629L95.5059 154.801L93.7817 153.255L92.9521 156.629Z" fill="#92E3A9"/>
<path d="M107.949 172.534L110.503 170.705L108.779 169.159L107.949 172.534Z" fill="#92E3A9"/>
<path d="M9.31732 146.74L7.91016 149.55L10.1599 150.11L9.31732 146.74Z" fill="#9C9C9C"/>
<path d="M23.5889 148.838L22.186 151.648L24.4314 152.212L23.5889 148.838Z" fill="#9C9C9C"/>
<path d="M15.7672 139.213L13.5869 136.955L12.3101 138.888L15.7672 139.213Z" fill="#92E3A9"/>
<path d="M77.1738 183.027L79.7319 181.203L78.0077 179.652L77.1738 183.027Z" fill="#92E3A9"/>
<path d="M145.221 121.915L147.454 124.126L148.687 122.163L145.221 121.915Z" fill="#9C9C9C"/>
<path d="M170.42 159.952L169.013 162.762L171.262 163.322L170.42 159.952Z" fill="#9C9C9C"/>
<path d="M136.418 124.082L135.015 126.892L137.261 127.452L136.418 124.082Z" fill="#9C9C9C"/>
<path d="M184.691 162.049L183.284 164.859L185.534 165.42L184.691 162.049Z" fill="#9C9C9C"/>
<path d="M191.827 151.348L190.42 154.154L192.67 154.718L191.827 151.348Z" fill="#9C9C9C"/>
<path d="M132.587 169.255L130.403 167L129.126 168.933L132.587 169.255Z" fill="#92E3A9"/>
<path d="M176.87 152.421L174.689 150.162L173.413 152.095L176.87 152.421Z" fill="#92E3A9"/>
<path d="M160.166 155.37L162.719 153.541L160.995 151.995L160.166 155.37Z" fill="#92E3A9"/>
<path d="M175.163 171.274L177.717 169.446L175.993 167.899L175.163 171.274Z" fill="#92E3A9"/>
<path d="M144.392 185.593L146.945 183.765L145.221 182.219L144.392 185.593Z" fill="#92E3A9"/>
<path d="M35.0156 168.026L37.5694 166.197L35.8452 164.651L35.0156 168.026Z" fill="#92E3A9"/>
<path d="M78.0073 188.977L80.2397 189.45L81.4731 189.029L78.0073 188.977Z" fill="#9C9C9C"/>
<path d="M56.3882 180.104L58.6205 180.581L59.854 180.16L56.3882 180.104Z" fill="#9C9C9C"/>
<path d="M31.793 179.504L34.0253 179.978L35.2588 179.557L31.793 179.504Z" fill="#9C9C9C"/>
<path d="M103.202 181.02L101.799 181.624L104.045 181.745L103.202 181.02Z" fill="#9C9C9C"/>
<path d="M69.2045 180.256L67.7974 180.859L70.0471 180.981L69.2045 180.256Z" fill="#9C9C9C"/>
<path d="M117.474 181.472L116.071 182.075L118.316 182.197L117.474 181.472Z" fill="#9C9C9C"/>
<path d="M124.609 179.174L123.206 179.778L125.451 179.9L124.609 179.174Z" fill="#9C9C9C"/>
<path d="M72.4009 187.769L70.2207 187.283L68.9438 187.7L72.4009 187.769Z" fill="#92E3A9"/>
<path d="M65.3692 182.197L63.189 181.715L61.9121 182.127L65.3692 182.197Z" fill="#92E3A9"/>
<path d="M46.9024 180.395L44.7178 179.913L43.4409 180.325L46.9024 180.395Z" fill="#92E3A9"/>
<path d="M109.656 179.404L107.471 178.922L106.194 179.335L109.656 179.404Z" fill="#92E3A9"/>
<path d="M92.9521 180.039L95.5059 179.648L93.7817 179.313L92.9521 180.039Z" fill="#92E3A9"/>
<path d="M64.1968 179.409L66.7505 179.014L65.0263 178.684L64.1968 179.409Z" fill="#92E3A9"/>
<path d="M109.208 181.289L111.762 180.898L110.038 180.564L109.208 181.289Z" fill="#92E3A9"/>
<path d="M107.949 183.452L110.503 183.061L108.779 182.727L107.949 183.452Z" fill="#92E3A9"/>
<path d="M10.8457 181.902L9.44287 182.506L11.6883 182.627L10.8457 181.902Z" fill="#9C9C9C"/>
<path d="M25.1177 182.354L23.7148 182.957L25.9602 183.079L25.1177 182.354Z" fill="#9C9C9C"/>
<path d="M11.9146 186.927L9.72999 186.445L8.45312 186.862L11.9146 186.927Z" fill="#92E3A9"/>
<path d="M21.5864 188.073L24.1402 187.682L22.416 187.348L21.5864 188.073Z" fill="#92E3A9"/>
<path d="M15.5933 184.334L18.147 183.943L16.4228 183.608L15.5933 184.334Z" fill="#92E3A9"/>
<path d="M77.1738 185.042L79.7319 184.651L78.0077 184.316L77.1738 185.042Z" fill="#92E3A9"/>
<path d="M145.221 180.343L147.454 180.816L148.687 180.395L145.221 180.343Z" fill="#9C9C9C"/>
<path d="M123.605 180.655L125.838 181.133L127.071 180.712L123.605 180.655Z" fill="#9C9C9C"/>
<path d="M170.42 181.572L169.013 182.175L171.262 182.297L170.42 181.572Z" fill="#9C9C9C"/>
<path d="M136.418 180.807L135.015 181.411L137.261 181.528L136.418 180.807Z" fill="#9C9C9C"/>
<path d="M184.691 182.023L183.284 182.627L185.534 182.749L184.691 182.023Z" fill="#9C9C9C"/>
<path d="M108.526 187.348L107.124 187.952L109.369 188.073L108.526 187.348Z" fill="#9C9C9C"/>
<path d="M191.827 179.726L190.42 180.33L192.67 180.451L191.827 179.726Z" fill="#9C9C9C"/>
<path d="M145.391 182.571L143.207 182.084L141.93 182.501L145.391 182.571Z" fill="#92E3A9"/>
<path d="M132.587 182.748L130.403 182.266L129.126 182.679L132.587 182.748Z" fill="#92E3A9"/>
<path d="M185.916 187.839L183.736 187.352L182.459 187.769L185.916 187.839Z" fill="#92E3A9"/>
<path d="M176.87 179.956L174.689 179.469L173.413 179.886L176.87 179.956Z" fill="#92E3A9"/>
<path d="M160.166 180.59L162.719 180.195L160.995 179.865L160.166 180.59Z" fill="#92E3A9"/>
<path d="M131.415 179.96L133.969 179.565L132.245 179.235L131.415 179.96Z" fill="#92E3A9"/>
<path d="M176.422 181.841L178.976 181.45L177.251 181.116L176.422 181.841Z" fill="#92E3A9"/>
<path d="M175.163 184.004L177.717 183.613L175.993 183.279L175.163 184.004Z" fill="#92E3A9"/>
<path d="M159.619 191.252L158.211 191.856L160.461 191.978L159.619 191.252Z" fill="#9C9C9C"/>
<path d="M173.89 191.704L172.487 192.308L174.733 192.429L173.89 191.704Z" fill="#9C9C9C"/>
<path d="M166.068 189.637L163.888 189.15L162.611 189.567L166.068 189.637Z" fill="#92E3A9"/>
<path d="M165.621 191.522L168.174 191.131L166.45 190.796L165.621 191.522Z" fill="#92E3A9"/>
<path d="M164.361 193.685L166.915 193.294L165.191 192.959L164.361 193.685Z" fill="#92E3A9"/>
<path d="M123.241 190.175L125.795 189.78L124.071 189.45L123.241 190.175Z" fill="#92E3A9"/>
<path d="M44.8525 183.782L47.4106 183.387L45.6864 183.057L44.8525 183.782Z" fill="#92E3A9"/>
<path d="M37.4302 186.875L39.6625 187.348L40.896 186.927L37.4302 186.875Z" fill="#9C9C9C"/>
<path d="M46.4117 188.968L44.2315 188.486L42.9546 188.898L46.4117 188.968Z" fill="#92E3A9"/>
<path d="M27.9448 187.166L25.7603 186.679L24.4834 187.096L27.9448 187.166Z" fill="#92E3A9"/>
<path d="M25.895 190.553L28.4531 190.158L26.7289 189.828L25.895 190.553Z" fill="#92E3A9"/>
</svg>
