<svg width="16" height="18" viewBox="0 0 16 18" fill="none" xmlns="http://www.w3.org/2000/svg">
<path d="M13.229 12.969H12.256V12.404C12.2565 12.2828 12.305 12.1667 12.3908 12.0811C12.4766 11.9955 12.5928 11.9473 12.714 11.947H12.776C12.8974 11.947 13.0138 11.9951 13.0999 12.0807C13.1859 12.1664 13.2345 12.2826 13.235 12.404L13.229 12.969ZM9.579 11.758C9.47081 11.7487 9.36328 11.7821 9.27938 11.8511C9.19549 11.92 9.14188 12.0191 9.13 12.127V14.876C9.14986 14.9808 9.20568 15.0754 9.28783 15.1435C9.36999 15.2115 9.47332 15.2488 9.58 15.2488C9.68669 15.2488 9.79002 15.2115 9.87218 15.1435C9.95433 15.0754 10.0102 14.9808 10.03 14.876V12.127C10.0181 12.0183 9.96396 11.9186 9.87919 11.8496C9.79441 11.7805 9.68585 11.7476 9.577 11.758H9.579ZM15.506 10.22V15.449C15.4856 16.0712 15.2201 16.6601 14.7674 17.0874C14.3146 17.5147 13.7113 17.7456 13.089 17.73H3.146C2.52367 17.7456 1.92039 17.5147 1.46764 17.0874C1.01489 16.6601 0.749391 16.0712 0.729004 15.449V10.22C0.749391 9.59781 1.01489 9.00889 1.46764 8.58162C1.92039 8.15435 2.52367 7.92336 3.146 7.939H13.086C13.7085 7.92309 14.312 8.15396 14.765 8.58126C15.218 9.00856 15.4836 9.59763 15.504 10.22H15.506ZM3.811 16.02V10.509H5.043V9.693H1.758V10.493H2.783V16.017L3.811 16.02ZM7.505 11.332H6.476V14.273C6.49228 14.5104 6.49228 14.7486 6.476 14.986C6.392 15.214 6.017 15.456 5.871 15.011C5.85631 14.7719 5.85631 14.5321 5.871 14.293V11.331H4.84V14.246C4.84 14.693 4.83 15.026 4.84 15.178C4.865 15.445 4.856 15.757 5.104 15.935C5.38455 16.056 5.69986 16.0692 5.98955 15.9721C6.27924 15.8751 6.52294 15.6746 6.674 15.409V16.016H7.499V11.329L7.505 11.332ZM10.79 14.7V12.252C10.79 11.319 10.09 10.76 9.144 11.515V9.695H8.118V15.977L8.962 15.965L9.039 15.574C10.113 16.562 10.791 15.884 10.79 14.7ZM14.005 14.376H13.235C13.235 14.407 13.235 14.442 13.235 14.476V14.906C13.2339 15.017 13.1891 15.123 13.1103 15.2011C13.0315 15.2792 12.925 15.323 12.814 15.323H12.663C12.552 15.323 12.4456 15.2792 12.3667 15.2011C12.2879 15.123 12.2431 15.017 12.242 14.906V13.781H14.006V13.117C14.0132 12.7003 13.9955 12.2836 13.953 11.869C13.827 10.992 12.595 10.852 11.973 11.301C11.7712 11.4435 11.6203 11.6467 11.542 11.881C11.4432 12.2168 11.3989 12.5662 11.411 12.916V14.376C11.409 16.8 14.357 16.46 14.005 14.373V14.376ZM10.054 6.448C10.1044 6.57371 10.1902 6.68209 10.301 6.76C10.4254 6.84171 10.5722 6.88261 10.721 6.877C10.8622 6.8796 11.0004 6.83646 11.115 6.754C11.2405 6.65713 11.3395 6.53023 11.403 6.385L11.383 6.785H12.529V1.919H11.629V5.709C11.629 5.80859 11.5894 5.9041 11.519 5.97452C11.4486 6.04494 11.3531 6.0845 11.2535 6.0845C11.1539 6.0845 11.0584 6.04494 10.988 5.97452C10.9176 5.9041 10.878 5.80859 10.878 5.709V1.919H9.937V5.2C9.937 5.618 9.945 5.9 9.957 6.039C9.96875 6.17941 10.0014 6.31727 10.054 6.448ZM6.583 3.7C6.57122 3.32976 6.61025 2.95964 6.699 2.6C6.76777 2.33855 6.9248 2.10892 7.1435 1.95C7.36219 1.79108 7.6291 1.71265 7.899 1.728C8.13528 1.72186 8.36936 1.77479 8.58 1.882C8.75925 1.97401 8.91077 2.11207 9.019 2.282C9.11833 2.43803 9.18941 2.61032 9.229 2.791C9.27447 3.05512 9.29356 3.3231 9.286 3.591V4.82C9.29343 5.15419 9.27571 5.48847 9.233 5.82C9.1985 6.03059 9.12162 6.23199 9.007 6.412C8.90154 6.58622 8.74855 6.72672 8.566 6.817C8.37169 6.90743 8.15928 6.95223 7.945 6.948C7.7192 6.95468 7.49428 6.91697 7.283 6.837C7.11131 6.76974 6.96413 6.65186 6.861 6.499C6.75409 6.33293 6.68102 6.14738 6.646 5.953C6.5954 5.63563 6.57398 5.31428 6.582 4.993V3.7H6.583ZM7.483 5.635C7.47706 5.69834 7.4844 5.76222 7.50457 5.82255C7.52473 5.88289 7.55726 5.93835 7.60009 5.98539C7.64292 6.03242 7.6951 6.07 7.75329 6.09571C7.81147 6.12143 7.87439 6.13471 7.938 6.13471C8.00162 6.13471 8.06453 6.12143 8.12272 6.09571C8.18091 6.07 8.23309 6.03242 8.27591 5.98539C8.31874 5.93835 8.35128 5.88289 8.37144 5.82255C8.39161 5.76222 8.39895 5.69834 8.393 5.635V3.04C8.39895 2.97666 8.39161 2.91278 8.37144 2.85245C8.35128 2.79211 8.31874 2.73665 8.27591 2.68961C8.23309 2.64258 8.18091 2.605 8.12272 2.57929C8.06453 2.55357 8.00162 2.54029 7.938 2.54029C7.87439 2.54029 7.81147 2.55357 7.75329 2.57929C7.6951 2.605 7.64292 2.64258 7.60009 2.68961C7.55726 2.73665 7.52473 2.79211 7.50457 2.85245C7.4844 2.91278 7.47706 2.97666 7.483 3.04V5.635ZM4.311 6.941H5.391V3.206L6.669 0.007H5.487L4.809 2.383L4.12 0H2.951L4.309 3.208L4.311 6.941Z" fill="#4D4F5C"/>
</svg>
